<?xml version="1.0" encoding="UTF-8"?>
<svg width="26px" height="28px" viewBox="0 0 26 28" version="1.1" xmlns="http://www.w3.org/2000/svg" xmlns:xlink="http://www.w3.org/1999/xlink">
    <!-- Generator: sketchtool 40.3 (33839) - http://www.bohemiancoding.com/sketch -->
    <title>B34F4B53-1A21-4043-8C52-EE14159CC0F4</title>
    <desc>Created with sketchtool.</desc>
    <defs></defs>
    <g id="Designs" stroke="none" stroke-width="1" fill="none" fill-rule="evenodd">
        <g id="Luno-home-web-02a" transform="translate(-462.000000, -3682.000000)" fill="#FFFFFF">
            <g id="//-Section" transform="translate(110.000000, 2913.000000)">
                <g id="cta" transform="translate(352.000000, 763.000000)">
                    <g id="book" transform="translate(0.000000, 6.000000)">
                        <g id="Capa_1">
                            <path d="M13.0057167,27.9572717 C12.9020465,27.9572717 12.8043679,27.9324008 12.7187273,27.8874605 L0.382854123,21.8343892 C0.17364482,21.7314528 0.0416109937,21.5219653 0.0416109937,21.2924085 L0.0416109937,2.50769942 C0.0416109937,2.29767245 0.152536998,2.10296724 0.334591966,1.99231599 C0.516646934,1.88107129 0.743940803,1.87222351 0.935065539,1.96566474 L13.0056617,7.88914836 L25.0763129,1.96571869 C25.266833,1.87103661 25.4946765,1.88171869 25.6767865,1.99236994 C25.8588414,2.10302119 25.9697674,2.29767245 25.9697674,2.50775337 L25.9697674,21.2924085 C25.9697674,21.5219653 25.837129,21.7314528 25.6285243,21.8343892 L13.2926512,27.8874605 C13.2070655,27.9324008 13.1093869,27.9572717 13.0057167,27.9572717 L13.0057167,27.9572717 Z M13.6230655,8.94127938 L13.6230655,26.3715222 L24.7351247,20.9184277 L24.7351247,3.48818497 L13.6230655,8.94127938 L13.6230655,8.94127938 Z M1.27630867,20.9184277 L12.3883679,26.3715222 L12.3883679,8.94127938 L1.27630867,3.48818497 L1.27630867,20.9184277 L1.27630867,20.9184277 Z M13.0032981,6.17213873 C12.9080381,6.17213873 12.8121734,6.15023507 12.7247738,6.10707514 L2.84741226,1.201842 C2.54294292,1.05035067 2.42118816,0.685865125 2.57493446,0.387684008 C2.72989006,0.0894489403 3.10186047,-0.0312369942 3.40446089,0.120254335 L13.0032981,4.88694412 L22.6021353,0.120200385 C22.9047907,-0.032477842 23.2773658,0.0876685934 23.4316617,0.387630058 C23.5860127,0.685865125 23.4629937,1.05035067 23.1591839,1.20178805 L13.2818224,6.10696724 C13.1944228,6.15023507 13.0985581,6.17213873 13.0032981,6.17213873 L13.0032981,6.17213873 Z" id="Shape"></path>
                        </g>
                    </g>
                </g>
            </g>
        </g>
    </g>
</svg>