<?xml version="1.0" encoding="utf-8"?>
<!-- Generator: Adobe Illustrator 20.1.0, SVG Export Plug-In . SVG Version: 6.00 Build 0)  -->
<svg version="1.1" id="Layer_1" xmlns="http://www.w3.org/2000/svg" xmlns:xlink="http://www.w3.org/1999/xlink" x="0px" y="0px"
	 viewBox="0 0 62 62" style="enable-background:new 0 0 62 62;" xml:space="preserve">
<style type="text/css">
	.st0{fill:none;stroke:#231F20;stroke-width:0.9422;stroke-miterlimit:10;}
	.st1{fill:none;stroke:#FFFFFF;stroke-width:1.0768;stroke-linecap:square;stroke-miterlimit:10;}
	.st2{fill:#FFFFFF;}
</style>
<title>Asset 5</title>
<g id="Layer_2">
	<g id="Layer_1-2">
		<ellipse class="st0" cx="31" cy="31" rx="30" ry="29.6"/>
		<ellipse class="st1" cx="31" cy="31" rx="30" ry="29.6"/>
		<path class="st2" d="M43.1,38.3c0-3.9-3.3-6.2-5.6-6.9c2-0.9,4.8-3.5,4.8-6.7c0-4.2-3.5-7.4-8.2-7.8v-4.7h-5.2v4.7h-5.6
			c-0.5,0-0.8,0.4-0.8,0.8v28.1c0,0.4,0.4,0.8,0.8,0.8l0,0h5.6v4.3H34v-4.3C39.1,46.3,43.1,43,43.1,38.3z M28,21.8h4.6
			c1.9-0.1,3.6,1.4,3.7,3.3c0,0.1,0,0.2,0,0.3c0.1,2-1.5,3.7-3.5,3.8c-0.1,0-0.1,0-0.2,0H28V21.8z M33.2,41.5H28v-7.6h4.7
			c2.2,0,4.4,1.6,4.4,3.7c0.1,2.1-1.6,3.8-3.8,3.9C33.3,41.5,33.2,41.5,33.2,41.5z"/>
	</g>
</g>
</svg>
