<?xml version="1.0" encoding="utf-8"?>
<!-- Generator: Adobe Illustrator 21.0.2, SVG Export Plug-In . SVG Version: 6.00 Build 0)  -->
<svg version="1.1" id="Layer_1" xmlns="http://www.w3.org/2000/svg" xmlns:xlink="http://www.w3.org/1999/xlink" x="0px" y="0px"
	 viewBox="0 0 250 200" style="enable-background:new 0 0 250 200;" xml:space="preserve">
<style type="text/css">
	.st0{clip-path:url(#SVGID_2_);}
	.st1{fill:#0091FF;stroke:#424242;stroke-width:1.6857;stroke-linecap:round;stroke-linejoin:round;}
	.st2{opacity:0.1;fill:#231F20;enable-background:new    ;}
	.st3{fill:none;stroke:#424242;stroke-width:1.6857;stroke-linecap:round;stroke-linejoin:round;}
	.st4{fill:#FFFFFF;}
	.st5{fill:#E6F7FF;}
	.st6{fill:#FFFFFF;stroke:#231F20;stroke-width:0.6292;stroke-miterlimit:10;}
	.st7{opacity:0.1;}
	.st8{fill:#231F20;}
	.st9{fill:#0091FF;}
	.st10{fill:none;stroke:#FDCE07;stroke-width:1.935;stroke-miterlimit:10;}
	.st11{fill:none;stroke:#FDCE07;stroke-width:1.935;stroke-miterlimit:10;stroke-dasharray:3.775,3.775;}
	.st12{fill:none;stroke:#FDCE07;stroke-width:1.935;stroke-miterlimit:10;stroke-dasharray:3.8819;}
</style>
<title>ill_financial_freedom</title>
<g>
	<defs>
		<rect id="SVGID_1_" x="4.7" y="7" width="240.7" height="186.1"/>
	</defs>
	<clipPath id="SVGID_2_">
		<use xlink:href="#SVGID_1_"  style="overflow:visible;"/>
	</clipPath>
	<g class="st0">
		<g id="Layer_2">
			<g id="Layer_1-2">
				<path class="st1" d="M149.6,109.7c0,0,16.3-2.8,14.8-40.8c-1.1-28,24-20.8,35.1-20.8c27.5-0.2,37-9.5,37.5-9.9
					c0.8-0.6,10,25-30.9,29.8c0,0,13.3,7.4,22.8,5.3c0,0-7.6,18.3-32.8,13.7c3.9,3.9,9,6.4,14.5,7.1c0,0-6.1,12.1-27.8,9.7
					C183,103.7,172.3,117.1,149.6,109.7z"/>
				<path class="st2" d="M228.4,74.1c0,0-15.9,9.7-36.7-8.5l18,4.2l11.3,3.2L228.4,74.1z"/>
				<path class="st2" d="M210,94.7c0,0-10.9,3.6-22.6-9.9l8.3,2.6l11,6.8L210,94.7z"/>
				<path class="st2" d="M194,103.2c-4.9,0.5-5-7-5.1-10.1c-0.2-8.3-3-16.3-7.8-22.9c-4.6-6.5-8.8-14-3.9-21.5c0,0-15.9,4-10.4,17.2
					l5.1,5.8l6.9,13.9l3.6,18.8L194,103.2z"/>
				<path class="st3" d="M149.6,109.7c0,0,16.3-2.8,14.8-40.8c-1.1-28,24-20.8,35.1-20.8c27.5-0.2,37-9.5,37.5-9.9
					c0.8-0.6,10,25-30.9,29.8c0,0,13.3,7.4,22.8,5.3c0,0-7.6,18.3-32.8,13.7c3.9,3.9,9,6.4,14.5,7.1c0,0-6.1,12.1-27.8,9.7
					C183,103.7,172.3,117.1,149.6,109.7z"/>
				<path class="st3" d="M214.2,66.8c0,0-13.5,4.2-23.4-2"/>
				<path class="st3" d="M211.5,87c0,0-13.5,3-23.3-3.1"/>
				<path class="st1" d="M102.8,109.7c0,0-16.3-2.8-14.8-40.8c1.1-28-24-20.8-35.1-20.8c-27.5-0.2-37-9.5-37.5-9.9
					c-0.8-0.6-10,25,30.9,29.8c0,0-13.3,7.4-22.8,5.3c0,0,7.6,18.3,32.9,13.7c-3.9,3.9-9,6.4-14.5,7.1c0,0,6.1,12.1,27.9,9.7
					C69.5,103.7,80.2,117.1,102.8,109.7z"/>
				<path class="st2" d="M23.7,74.1c0,0,16,9.7,36.6-8.5l-17.9,4.2L31,72.9L23.7,74.1z"/>
				<path class="st2" d="M42.1,94.7c0,0,10.9,3.6,22.6-9.9l-8.3,2.6l-11,6.8L42.1,94.7z"/>
				<path class="st2" d="M58.1,103.2c4.9,0.5,5-7,5.1-10.1c0.2-8.3,3-16.3,7.8-22.9c4.6-6.5,8.8-14,3.9-21.5c0,0,15.9,4,10.4,17.2
					l-5.1,5.8l-7,13.9l-3.6,18.8L58.1,103.2z"/>
				<path class="st3" d="M102.8,109.7c0,0-16.3-2.8-14.8-40.8c1.1-28-24-20.8-35.1-20.8c-27.5-0.2-37-9.5-37.5-9.9
					c-0.8-0.6-10,25,30.9,29.8c0,0-13.3,7.4-22.8,5.3c0,0,7.6,18.3,32.9,13.7c-3.9,3.9-9,6.4-14.5,7.1c0,0,6.1,12.1,27.9,9.7
					C69.5,103.7,80.2,117.1,102.8,109.7z"/>
				<path class="st3" d="M38.3,66.8c0,0,13.5,3.4,23.4-2.7"/>
				<path class="st3" d="M41,87c0,0,13.5,3,23.3-3.1"/>
				
					<ellipse transform="matrix(0.7356 -0.6774 0.6774 0.7356 -84.0081 61.7263)" class="st4" cx="37.1" cy="138.5" rx="21.4" ry="21.4"/>
				<path class="st5" d="M26.3,126.5c8-7.4,20.2-7.6,28.4-0.6c-6.8-9.7-20.2-12.1-29.9-5.3s-12.1,20.2-5.3,29.9
					c0.6,0.8,1.3,1.8,2,2.5c0.6,0.7,1.2,1.3,1.9,1.9C17,146,18.3,133.8,26.3,126.5z"/>
				
					<ellipse transform="matrix(0.4164 -0.9092 0.9092 0.4164 -89.0434 139.6056)" class="st4" cx="64.2" cy="139.2" rx="21.4" ry="21.4"/>
				
					<ellipse transform="matrix(0.4164 -0.9092 0.9092 0.4164 -97.0329 157.3112)" class="st4" cx="74" cy="154.2" rx="15.7" ry="15.7"/>
				
					<ellipse transform="matrix(0.4164 -0.9092 0.9092 0.4164 -85.6088 173.6712)" class="st4" cx="92.5" cy="153.5" rx="15.7" ry="15.7"/>
				
					<ellipse transform="matrix(0.4164 -0.9092 0.9092 0.4164 -131.9699 93.8497)" class="st4" cx="7.1" cy="149.7" rx="15.7" ry="15.7"/>
				
					<ellipse transform="matrix(0.4164 -0.9092 0.9092 0.4164 -129.8592 116.7589)" class="st4" cx="26" cy="159.5" rx="21.2" ry="21.2"/>
				
					<ellipse transform="matrix(0.4164 -0.9092 0.9092 0.4164 -107.8164 152.7088)" class="st4" cx="65" cy="160.3" rx="21.2" ry="21.2"/>
				<path class="st5" d="M70.9,124.7c9.9,4.5,14.8,15.7,11.5,26c0.5-0.7,0.8-1.5,1.3-2.4c4.3-11-1.2-23.5-12.2-27.8
					c-10.2-3.9-21.7,0.4-26.8,10c-0.4,0.8-0.7,1.7-0.9,2.5C49.5,123.8,61.2,120.2,70.9,124.7z"/>
				
					<ellipse transform="matrix(0.4164 -0.9092 0.9092 0.4164 -112.1203 136.6364)" class="st4" cx="50.4" cy="155.7" rx="13.5" ry="13.5"/>
				<path class="st5" d="M54.7,146.5c6.3,2.8,9.4,10,7.4,16.5c0.4-0.5,0.6-0.9,0.8-1.5c3.2-6.8,0.4-15-6.4-18.2s-15.1-0.4-18.3,6.4
					c0,0.1-0.1,0.2-0.1,0.4c-0.2,0.5-0.5,1.1-0.6,1.5C41,145.8,48.4,143.7,54.7,146.5z"/>
				<circle class="st6" cx="125.4" cy="103.6" r="56.5"/>
				<g class="st7">
					<path class="st8" d="M146.8,140.6c10.9,0,19.1-1.5,27.8-6.6c-10.2,16.4-26.6,26-47.8,26c-32.2,0-58.3-25.2-58.3-56.3
						c0.1-20.1,10.9-38.5,28.3-48.3c-5.5,8.7-8.3,18.8-8.3,29C88.5,115.4,114.6,140.6,146.8,140.6z"/>
				</g>
				<circle class="st3" cx="125.4" cy="103.6" r="56.5"/>
				<path class="st9" d="M148.1,117.6c0-7.5-6.3-11.9-10.6-13.3c3.8-1.8,8.9-6.6,8.9-12.9c0-8.1-6.6-14.2-15.4-15v-9h-9.7v8.9h-10.6
					c-0.8,0-1.5,0.7-1.5,1.5l0,0v53.8c0,0.8,0.7,1.5,1.5,1.5l0,0h10.6v8.2h9.7v-8.2C140.7,132.9,148.1,126.5,148.1,117.6z M119.6,86
					h8.7c3.7-0.2,6.8,2.6,7,6.3c0,0.2,0,0.5,0,0.6c0.2,3.8-2.7,7.1-6.6,7.4c-0.1,0-0.2,0-0.4,0h-8.7L119.6,86L119.6,86z
					 M129.4,123.6h-9.9v-14.5h8.9c4.2,0,8.3,3,8.3,7.1c0,4-3.1,7.2-7.1,7.4C129.7,123.6,129.6,123.6,129.4,123.6L129.4,123.6z"/>
				
					<ellipse transform="matrix(0.7356 -0.6774 0.6774 0.7356 -55.3864 159.7335)" class="st4" cx="176.9" cy="150.8" rx="21.4" ry="21.4"/>
				<path class="st5" d="M166.1,139c8-7.4,20.2-7.6,28.4-0.6c-6.9-9.6-20.3-11.9-29.9-5c-9.6,6.9-11.9,20.3-5,29.9
					c1.1,1.4,2.3,2.7,3.6,3.9C157,158.4,158.2,146.3,166.1,139z"/>
				
					<ellipse transform="matrix(0.4164 -0.9092 0.9092 0.4164 -18.7549 274.1093)" class="st4" cx="204.1" cy="151.7" rx="21.4" ry="21.4"/>
				
					<ellipse transform="matrix(0.4164 -0.9092 0.9092 0.4164 -26.5714 291.7705)" class="st4" cx="214" cy="166.6" rx="15.7" ry="15.7"/>
				
					<ellipse transform="matrix(0.4164 -0.9092 0.9092 0.4164 -15.3867 308.1227)" class="st4" cx="232.3" cy="166" rx="15.7" ry="15.7"/>
				
					<ellipse transform="matrix(0.4164 -0.9092 0.9092 0.4164 -61.8315 228.4207)" class="st4" cx="147" cy="162.4" rx="15.7" ry="15.7"/>
				
					<ellipse transform="matrix(0.4164 -0.9092 0.9092 0.4164 -78.5473 227.8625)" class="st4" cx="138.2" cy="175.1" rx="9.6" ry="9.6"/>
				
					<ellipse transform="matrix(0.4164 -0.9092 0.9092 0.4164 -59.2847 251.2115)" class="st4" cx="166" cy="171.8" rx="21.2" ry="21.2"/>
				
					<ellipse transform="matrix(0.4164 -0.9092 0.9092 0.4164 -37.3493 287.0517)" class="st4" cx="204.9" cy="172.6" rx="21.2" ry="21.2"/>
				<path class="st5" d="M210.9,137.1c9.9,4.5,14.8,15.7,11.5,26c0.5-0.7,0.9-1.5,1.3-2.4c5-10.8,0.2-23.5-10.6-28.5
					c-10.8-5-23.5-0.2-28.5,10.6c-0.4,0.8-0.7,1.7-0.9,2.5C189.4,136.1,201,132.5,210.9,137.1z"/>
				
					<ellipse transform="matrix(0.4164 -0.9092 0.9092 0.4164 -41.8588 271.1339)" class="st4" cx="190.3" cy="168.2" rx="13.5" ry="13.5"/>
				<path class="st5" d="M194.5,158.9c6.3,2.8,9.4,10,7.4,16.5c0.4-0.5,0.6-0.9,0.8-1.5c3.1-6.9,0.1-15-6.8-18
					c-6.9-3.1-15-0.1-18,6.8c-0.2,0.5-0.5,1.1-0.6,1.5C180.8,158.3,188.3,156,194.5,158.9z"/>
				<path class="st5" d="M134.1,169c4-1.9,8.9-0.5,11.2,3.3c-0.1-0.4-0.2-0.7-0.4-1.1c-1.9-4.5-7.1-6.5-11.6-4.5
					c-4.5,1.9-6.5,7.1-4.5,11.6c0,0.1,0.1,0.2,0.1,0.4c0.1,0.4,0.4,0.6,0.5,0.9C128,175.5,130,170.9,134.1,169z"/>
				<path class="st10" d="M61.4,111.3c-0.6,0.2-1.2,0.5-1.8,0.7"/>
				<path class="st11" d="M56.1,113c-20.3,4.5-40.2-8.3-44.8-28.6c-1.5-7.2-1.1-14.8,1.7-21.7"/>
				<path class="st10" d="M13.7,61c0.2-0.6,0.6-1.2,0.8-1.8"/>
				<path class="st12" d="M233,84.5c10,26.1-3.1,55.2-29.2,65.2c-11.5,4.4-24.2,4.4-35.9,0.1"/>
				<path class="st12" d="M120.8,172.3c-5.8,13.1-21.2,18.9-34.3,13.1c-13.1-5.8-18.9-21.2-13.1-34.3c0.8-1.8,1.8-3.6,3-5.1"/>
				<path class="st12" d="M75.9,37.9c22.4-27.2,62.6-31,89.7-8.7c3.2,2.6,6.1,5.5,8.7,8.7"/>
			</g>
		</g>
	</g>
</g>
</svg>
