<?xml version="1.0" encoding="utf-8"?>
<svg version="1.1" id="Layer_1" xmlns="http://www.w3.org/2000/svg" xmlns:xlink="http://www.w3.org/1999/xlink" x="0px" y="0px"
	 width="22px" height="22px" viewBox="0 0 27.2 17.9" enable-background="new 0 0 27.2 17.9" xml:space="preserve">
<g>
	<path fill="#BDBDBD" d="M9.5,10.6h4.2c-0.7,2.1-2.8,3.6-5.1,3.6c-2.9,0-5.2-2.3-5.3-5.2C3.2,6,5.6,3.5,8.7,3.5
		c1.4,0,2.7,0.5,3.6,1.4c0.2,0.2,0.6,0.2,0.8,0l1.6-1.5c0.2-0.2,0.2-0.6,0-0.8c-1.5-1.4-3.5-2.3-5.8-2.4C4.1,0.1,0,4,0,8.8
		c0,4.8,3.9,8.7,8.7,8.7c4.6,0,8.4-3.6,8.6-8.2c0-0.1,0-2,0-2H9.5c-0.3,0-0.6,0.3-0.6,0.6V10C8.9,10.4,9.2,10.6,9.5,10.6z"/>
	<path fill="#BDBDBD" d="M24.5,7.5V5.5c0-0.3-0.2-0.5-0.5-0.5h-1.7c-0.3,0-0.5,0.2-0.5,0.5v2.1h-2.1c-0.3,0-0.5,0.2-0.5,0.5v1.7
		c0,0.3,0.2,0.5,0.5,0.5h2.1v2.1c0,0.3,0.2,0.5,0.5,0.5H24c0.3,0,0.5-0.2,0.5-0.5v-2.1h2.1c0.3,0,0.5-0.2,0.5-0.5V8
		c0-0.3-0.2-0.5-0.5-0.5L24.5,7.5L24.5,7.5z"/>
</g>
</svg>
