<?xml version="1.0" encoding="utf-8"?>
<!-- Generator: Adobe Illustrator 20.1.0, SVG Export Plug-In . SVG Version: 6.00 Build 0)  -->
<svg version="1.1" id="Layer_1" xmlns="http://www.w3.org/2000/svg" xmlns:xlink="http://www.w3.org/1999/xlink" x="0px" y="0px"
	 viewBox="0 0 130 130" style="enable-background:new 0 0 130 130;" xml:space="preserve">
<style type="text/css">
	.st0{fill:#FFFFFF;stroke:#424242;stroke-width:1.7;stroke-linecap:square;stroke-miterlimit:10;}
	.st1{opacity:0.1;fill:#231F20;enable-background:new    ;}
	.st2{fill:#FFFFFF;}
	.st3{fill:#FF5722;stroke:#424242;stroke-width:1.7;stroke-linecap:square;stroke-miterlimit:10;}
	.st4{fill:#FDD835;stroke:#424242;stroke-width:1.7;stroke-linecap:square;stroke-miterlimit:10;}
	.st5{fill:#0091FF;stroke:#424242;stroke-width:1.7;stroke-linecap:round;stroke-miterlimit:10;}
	.st6{fill:none;stroke:#424242;stroke-width:1.7;stroke-miterlimit:10;}
	.st7{fill:none;stroke:#424242;stroke-width:1.7;stroke-linecap:square;stroke-miterlimit:10;}
</style>
<title>ic_trusted</title>
<g id="Layer_2">
	<g id="Layer_1-2">
		<path class="st0" d="M28.6,79.1l-8.4-8.5C7.8,58.5,5.9,40.8,18.6,27.8l0,0c12.7-13,33.1-13.6,45.5-1.4"/>
		<path class="st1" d="M28.6,79.1l-8.4-8.5C7.8,58.5,5.9,40.8,18.6,27.8l0,0c12.7-13,33.1-13.6,45.5-1.4"/>
		<path class="st1" d="M43.1,75.8l-8.4-8.5c-12.4-12.2-14.3-29.9-1.6-42.9l0,0c2.8-2.8,6-5.1,9.6-6.9c0,0-31.1,0.1-32.8,31.2
			c0,0-1,13,17.3,29L43.1,75.8z"/>
		<path class="st2" d="M64.3,27.7c0,0-33,31.8-32.6,32.6c0.4,0.8,10.8,18.7,11.6,19.3c0.8,0.6,21,15,22.9,15.2
			c1.9,0.2,12.3,4.4,12.3,4.4l14.3-9.8l7.3-7.5l9.2-11.2L75.9,38L64.3,27.7z"/>
		<path class="st1" d="M64.3,27.7c0,0-33,31.8-32.6,32.6c0.4,0.8,10.8,18.7,11.6,19.3c0.8,0.6,21,15,22.9,15.2
			c1.9,0.2,12.3,4.4,12.3,4.4l14.3-9.8l7.3-7.5l5.7,0.7l4.9-3.9l0.2-6L75.9,38L64.3,27.7z"/>
		<path class="st3" d="M75.1,37.7"/>
		<path class="st0" d="M75.6,58.2l24,22.8c2.6,2.7,2.5,7.1-0.2,9.7l0,0c-2.7,2.8-7.3,3.1-9.9,0.6"/>
		<path class="st0" d="M65.9,68.8l24,22.8c2.6,2.7,2.5,7.1-0.2,9.7l0,0c-2.5,2.8-6.8,3.1-9.6,0.6l-24-22.8"/>
		<path class="st1" d="M75.6,58.2l24,22.8c2.6,2.7,2.5,7.1-0.2,9.7l0,0c-2.7,2.8-7.3,3.1-9.9,0.6"/>
		<path class="st1" d="M65.9,68.8l24,22.8c2.6,2.7,2.5,7.1-0.2,9.7l0,0c-2.5,2.8-6.8,3.1-9.6,0.6l-24-22.8"/>
		<path class="st1" d="M79.4,95.8c0,0,7.4,6.9,11.1-2.8c0,0,1.1,2.2,1.2,2.5c0.1,0.8,0.1,1.7,0,2.5c-0.4,1-0.9,2-1.4,2.9l-1.4,1.3
			l-2,1l-3,0.2l-1.3-0.2l-1.4-0.8l-2.5-2l0.4-2.4L79.4,95.8z"/>
		<path class="st1" d="M88.2,89.4l2.5,2l1.4,0.8l1.3,0.2l3-0.2l2-1l1.4-1.4c0.5-0.9,1-1.9,1.5-2.9c0.1-0.8,0.1-1.7,0-2.5
			c-0.1-0.3-1.2-2.5-1.2-2.5c-5.1,12.4-28.5-12.3-28.5-12.3S67.8,66,66,68.5L88.2,89.4z"/>
		<path class="st1" d="M98,79.2l2.5,2l1.3,0.8l1.4,0.2l3-0.2l2-1l1.3-1.3c0.5-0.9,1-1.9,1.4-2.9c0.1-0.8,0.1-1.7,0-2.5
			c-0.1-0.3-1.2-2.5-1.2-2.5c-5.1,12.4-29-12.6-29-12.6s-3.6-3.7-5.5-1.2L98,79.2z"/>
		<path class="st1" d="M41.4,83.5c-2.6,2.4-6.6,2.4-9.1-0.2l0,0c-2.6-2.4-2.8-6.5-0.4-9.1l9.2-9.4c2.6-2.4,6.6-2.3,9.1,0.2l0,0
			c2.6,2.4,2.8,6.5,0.4,9.1L41.4,83.5z"/>
		<path class="st1" d="M51.1,92.6c-2.6,2.4-6.6,2.4-9.1-0.2l0,0c-2.6-2.4-2.8-6.5-0.4-9.1l9.2-9.3c2.6-2.4,6.6-2.3,9.1,0.2l0,0
			c2.6,2.4,2.8,6.5,0.4,9.1L51.1,92.6z"/>
		<path class="st1" d="M61.1,101.3c-2.6,2.4-6.6,2.4-9.1-0.2l0,0c-2.6-2.4-2.8-6.5-0.4-9.1c0,0,0,0,0,0l9.2-9.3
			c2.6-2.4,6.6-2.4,9.1,0.2l0,0c2.6,2.4,2.8,6.5,0.4,9.1c0,0,0,0,0,0L61.1,101.3z"/>
		<path class="st3" d="M46.1,59.2"/>
		<path class="st0" d="M38.9,83.5c-2.6,2.4-6.6,2.4-9.1-0.2l0,0c-2.6-2.4-2.8-6.5-0.4-9.1l9.2-9.4c2.6-2.4,6.6-2.3,9.1,0.2l0,0
			c2.6,2.4,2.8,6.4,0.4,9.1c0,0,0,0,0,0L38.9,83.5z"/>
		<path class="st0" d="M48.6,92.6c-2.6,2.4-6.6,2.4-9.1-0.2l0,0c-2.6-2.4-2.8-6.5-0.4-9.1l9.2-9.3c2.6-2.4,6.6-2.3,9.1,0.2l0,0
			c2.6,2.4,2.8,6.5,0.4,9.1L48.6,92.6z"/>
		<path class="st4" d="M58.6,101.3c-2.6,2.4-6.6,2.3-9.1-0.2l0,0c-2.6-2.4-2.8-6.4-0.4-9.1c0,0,0,0,0,0l9.2-9.3
			c2.6-2.4,6.6-2.4,9.1,0.2l0,0c2.6,2.4,2.8,6.5,0.4,9.1L58.6,101.3z"/>
		<path class="st0" d="M68.3,110.6c-2.6,2.4-6.6,2.4-9.1-0.2l0,0c-2.6-2.4-2.8-6.5-0.4-9.1l9.2-9.3c2.6-2.4,6.6-2.4,9.1,0.2l0,0
			c2.6,2.4,2.8,6.5,0.4,9.1c0,0,0,0,0,0L68.3,110.6z"/>
		<path class="st5" d="M109,80.4"/>
		<path class="st0" d="M111.3,73.1c12.2-12.4,11.6-32.8-1.4-45.5l0,0C97,14.8,76.6,14.6,64.4,27L45,46.7c-2.5,2.6-2.3,8.2,0.8,11
			c2.1,1.9,7.3,3.3,11.2,0.4l12.7-13.1l6.2-6.9l20.3,20"/>
		<path class="st6" d="M96.2,58l13.1,12.7c2.4,2.5,2.6,6.3,0.4,9l-0.6,0.7c-2.7,2.8-6.9,3.1-9.5,0.6L97.5,79"/>
		<path class="st1" d="M30.6,73.9c0,0,1.9,10.4,14.3,2.4l-6.1,7.2l-1.8,1.7c0,0-9,2.6-9.5-8.5C27.7,76.6,29.7,73.5,30.6,73.9z"/>
		<path class="st7" d="M38.9,83.5c-2.6,2.4-6.6,2.4-9.1-0.2l0,0c-2.6-2.4-2.8-6.5-0.4-9.1l9.2-9.4c2.6-2.4,6.6-2.3,9.1,0.2l0,0
			c2.6,2.4,2.8,6.4,0.4,9.1c0,0,0,0,0,0L38.9,83.5z"/>
		<path class="st1" d="M40.4,83c0,0,1.9,10.4,14.3,2.4l-6.1,7.2l-1.7,1.7c0,0-9,2.6-9.5-8.5C37.4,85.7,39.4,82.5,40.4,83z"/>
		<path class="st7" d="M48.6,92.5c-2.6,2.4-6.6,2.4-9.1-0.2l0,0c-2.6-2.4-2.8-6.5-0.4-9.1l9.2-9.3c2.6-2.4,6.6-2.4,9.1,0.2l0,0
			c2.6,2.4,2.8,6.5,0.4,9.1L48.6,92.5z"/>
		<path class="st0" d="M58.6,101.3c-2.6,2.4-6.6,2.4-9.1-0.2l0,0c-2.6-2.4-2.8-6.4-0.4-9.1l9.2-9.3c2.6-2.4,6.6-2.4,9.1,0.2l0,0
			c2.6,2.4,2.8,6.5,0.4,9.1L58.6,101.3z"/>
		<path class="st1" d="M50.3,91.7c0,0,1.9,10.4,14.3,2.4l-6.1,7.2l-1.7,1.7c0,0-9,2.6-9.5-8.5C47.4,94.4,49.4,91.3,50.3,91.7z"/>
		<path class="st7" d="M58.6,101.2c-2.6,2.4-6.6,2.4-9.1-0.2l0,0c-2.6-2.4-2.8-6.5-0.4-9.1c0,0,0,0,0,0l9.2-9.3
			c2.6-2.4,6.6-2.4,9.1,0.2l0,0c2.6,2.4,2.7,6.4,0.4,9L58.6,101.2z"/>
		<path class="st1" d="M60.1,100.9c0,0,1.9,10.4,14.3,2.4l-6.1,7.2l-1.8,1.7c0,0-9,2.6-9.5-8.5C57.1,103.6,59.1,100.5,60.1,100.9z"
			/>
		<path class="st7" d="M68.4,110.5c-2.6,2.4-6.6,2.4-9.1-0.2l0,0c-2.6-2.4-2.8-6.5-0.4-9.1c0,0,0,0,0,0l9.2-9.4
			c2.6-2.4,6.6-2.4,9.1,0.2l0,0c2.6,2.4,2.8,6.5,0.4,9.1c0,0,0,0,0,0L68.4,110.5z"/>
		<path class="st1" d="M75.1,37.7c0,0,3.9-4.9,7.9-1l24.8,23.7c0,0,7.9,4.8,10.9-2.2l-0.4,4.3l-1.9,4l-2.8,4.2c0,0-2.4,2.6-3.2,1.8
			l-2.3-3.4L75.1,37.7z"/>
		<path class="st1" d="M45.4,47.4c0,0,5.8,14.4,27.2-6.8l-8.2,10l-8.2,7.9l-3.7,1c0,0-9.1,1.1-9.3-8.9l0.6-2.2L45.4,47.4z"/>
	</g>
</g>
</svg>
