<?xml version="1.0" encoding="utf-8"?>
<!-- Generator: Adobe Illustrator 20.1.0, SVG Export Plug-In . SVG Version: 6.00 Build 0)  -->
<svg version="1.1" id="Layer_1" xmlns="http://www.w3.org/2000/svg" xmlns:xlink="http://www.w3.org/1999/xlink" x="0px" y="0px"
	 viewBox="0 0 130 130" style="enable-background:new 0 0 130 130;" xml:space="preserve">
<style type="text/css">
	.st0{opacity:0.1;fill:#231F20;enable-background:new    ;}
	.st1{fill:#FFFFFF;stroke:#424242;stroke-width:1.73;stroke-linecap:square;stroke-miterlimit:10;}
	.st2{opacity:0.1;}
	.st3{fill:#231F20;stroke:#424242;stroke-width:1.73;stroke-linecap:square;stroke-miterlimit:10;}
	.st4{fill:#FFFFFF;}
	.st5{fill:none;stroke:#424242;stroke-width:1.73;stroke-linecap:square;stroke-miterlimit:10;}
	.st6{fill:none;}
	.st7{fill:#424242;}
</style>
<title>ic_secure</title>
<g id="Layer_2">
	<g id="Layer_1-2">
		<path class="st0" d="M44.7,44c0,0,2.6,11.3,7,12.3l-0.5,0.9l-7.1-0.4L44.7,44z"/>
		<path class="st1" d="M37.8,60.5V35.7c0-12.2,9.8-22,22-22H71c12.2,0,22,9.8,22,22v24.8 M83,60.5V35.7c0-6.6-5.4-12-12-12H59.8
			c-6.6,0-12,5.4-12,12v24.8"/>
		<g class="st2">
			<path class="st3" d="M37.8,60.5V35.7c0-12.2,9.8-22,22-22H71c12.2,0,22,9.8,22,22v24.8 M83,60.5V35.7c0-6.6-5.4-12-12-12H59.8
				c-6.6,0-12,5.4-12,12v24.8"/>
		</g>
		<path class="st4" d="M95.3,49.5H34.7c-4.9,0-8.9,4-8.9,8.9c0,0,0,0,0,0v29.2l0,0c0,0.4,0,0.9,0,1.3v0.1c0,0.4,0,0.8,0.1,1.3
			c1.3,14.8,13.8,26.1,28.6,26.1h20.8c14.7,0,27.1-11.1,28.6-25.7c0.1-0.5,0.2-1.1,0.2-1.7V58.4C104.2,53.5,100.2,49.5,95.3,49.5
			C95.3,49.5,95.3,49.5,95.3,49.5z"/>
		<path class="st4" d="M95.3,49.5H34.7c-4.9,0-8.9,4-8.9,8.9c0,0,0,0,0,0v29.2l0,0c0,0.4,0,0.9,0,1.3v0.1c0,0.4,0,0.8,0.1,1.3
			c1.3,14.8,13.8,26.1,28.6,26.1h20.8c14.7,0,27.1-11.1,28.6-25.7c0.1-0.5,0.2-1.1,0.2-1.7V58.4C104.2,53.5,100.2,49.5,95.3,49.5
			C95.3,49.5,95.3,49.5,95.3,49.5z"/>
		<path class="st0" d="M83.8,32.2c0,0,3.3,14.6,9.1,16l-0.7,1.2l-9.2-0.5L83.8,32.2z"/>
		<path class="st0" d="M38.5,32.4c0,0,3.3,14.6,9,16l-0.7,1.2l-9.2-0.5L38.5,32.4z"/>
		<path class="st0" d="M35.6,50.4c0,0-11.8,80.1,64,50.5l-0.9,3.7l-10.4,8.3l-9.6,3.5l-30.3-0.4l-9.8-4l-7.4-7.7l-4.9-11l-0.5-37
			l2.6-4.2l4-1.9L35.6,50.4z"/>
		<path class="st5" d="M95.3,49.5H34.7c-4.9,0-8.9,4-8.9,8.9c0,0,0,0,0,0v29.2l0,0c0,0.4,0,0.9,0,1.3v0.1c0,0.4,0,0.8,0.1,1.3
			c1.3,14.8,13.8,26.1,28.6,26.1h20.8c14.7,0,27.1-11.1,28.6-25.7c0.1-0.5,0.2-1.1,0.2-1.7V58.4C104.2,53.5,100.2,49.5,95.3,49.5
			C95.3,49.5,95.3,49.5,95.3,49.5z"/>
		<path class="st6" d="M73,75.1c0-4.4-3.5-7.9-7.9-7.9s-7.9,3.5-7.9,7.9c0,2.9,1.6,5.6,4.2,7l-3.7,10.4h14.9L68.9,82
			C71.4,80.6,72.9,78,73,75.1z"/>
		<path class="st7" d="M76.4,88c0-3.9-3.2-6.1-5.4-6.8c2-0.9,4.6-3.4,4.6-6.6c0-4.1-3.4-7.3-7.9-7.7v-4.6h-5v4.6h-5.5
			c-0.4,0-0.8,0.4-0.8,0.8v27.7c0,0.4,0.4,0.8,0.8,0.8h5.5v4.2h5V96C72.6,95.8,76.4,92.5,76.4,88z M61.8,71.7h4.5
			c1.9-0.1,3.5,1.3,3.6,3.2c0,0.1,0,0.2,0,0.3c0.1,2-1.4,3.7-3.4,3.8c-0.1,0-0.1,0-0.2,0h-4.5V71.7z M66.8,91.1h-5.1v-7.4h4.6
			c2.2,0,4.3,1.6,4.3,3.6c0,2.1-1.6,3.8-3.7,3.8C66.9,91.1,66.9,91.1,66.8,91.1L66.8,91.1z"/>
	</g>
</g>
</svg>
