<?xml version="1.0" encoding="utf-8"?>
<!-- Generator: Adobe Illustrator 20.1.0, SVG Export Plug-In . SVG Version: 6.00 Build 0)  -->
<svg version="1.1" id="Layer_1" xmlns="http://www.w3.org/2000/svg" xmlns:xlink="http://www.w3.org/1999/xlink" x="0px" y="0px"
	 viewBox="0 0 130 130" style="enable-background:new 0 0 130 130;" xml:space="preserve">
<style type="text/css">
	.st0{fill:#FFFFFF;stroke:#424242;stroke-width:1.76;stroke-linecap:square;stroke-miterlimit:10;}
	
		.st1{opacity:0.1;fill:#231F20;stroke:#424242;stroke-width:1.76;stroke-linecap:square;stroke-miterlimit:10;enable-background:new    ;}
	.st2{opacity:0.1;fill:#231F20;enable-background:new    ;}
	.st3{fill:none;stroke:#424242;stroke-width:1.76;stroke-linecap:square;stroke-miterlimit:10;}
</style>
<title>ic_built</title>
<g id="Layer_2">
	<g id="Layer_1-2">
		<path class="st0" d="M38.3,69.9v-8.2c0-0.6-0.4-1-1-1H20.7c-0.6,0-1,0.4-1,1v8.1"/>
		<path class="st0" d="M58,25.7v-8.2c0-0.6,0.4-1,1-1h16.7c0.6,0,1,0.4,1,1v8.2"/>
		<path class="st0" d="M94,25.7v-8.2c0-0.6,0.4-1,1-1h16.7c0.6,0,1,0.4,1,1v8.2"/>
		<path class="st1" d="M58,25.7v-8.2c0-0.6,0.4-1,1-1h16.7c0.6,0,1,0.4,1,1v8.2"/>
		<path class="st1" d="M94,25.7v-8.2c0-0.6,0.4-1,1-1h16.7c0.6,0,1,0.4,1,1v8.2"/>
		<path class="st0" d="M48.8,26h72.7c0.6,0,1,0.5,1,1v42c0,0.6-0.5,1-1,1H48.8c-0.6,0-1-0.5-1-1v-42C47.7,26.5,48.2,26,48.8,26z"/>
		<path class="st0" d="M8.7,70.3h72.7c0.6,0,1,0.5,1,1v42c0,0.6-0.5,1-1,1H8.7c-0.6,0-1-0.5-1-1v-42C7.6,70.8,8.1,70.3,8.7,70.3z"/>
		<path class="st1" d="M8.7,70.3h72.7c0.6,0,1,0.5,1,1v42c0,0.6-0.5,1-1,1H8.7c-0.6,0-1-0.5-1-1v-42C7.6,70.8,8.1,70.3,8.7,70.3z"/>
		<path class="st2" d="M21.2,61.1c0,0,9.6,8.4,17.8,7.9l-0.7,1.7l-18,0.3l-0.1-8.9L21.2,61.1z"/>
		<path class="st1" d="M59,16.3c0,0,9.7,8.4,17.8,7.9l-0.7,1.7l-18,0.3L58,17.3L59,16.3z"/>
		<path class="st3" d="M58,25.7v-8.2c0-0.6,0.4-1,1-1h16.7c0.6,0,1,0.4,1,1v8.2"/>
		<path class="st2" d="M49.8,26.3c0,0,18.5,42.5,72.8,41.5l-0.2,2.5l-74.7-0.2L48,27.8l-0.2-1.5H49.8z"/>
		<path class="st1" d="M9.7,70.3c0,0,18.5,42.5,72.8,41.5l-0.2,2.5l-74.7-0.2l0.2-42.3l-0.2-1.5H9.7z"/>
		<path class="st3" d="M8.7,70.3h72.7c0.6,0,1,0.5,1,1v42c0,0.6-0.5,1-1,1H8.7c-0.6,0-1-0.5-1-1v-42C7.6,70.8,8.1,70.3,8.7,70.3z"/>
		<path class="st1" d="M95.3,15.9c0,0,9.7,8.4,17.8,7.9l-0.7,1.7l-18,0.3l-0.1-8.9L95.3,15.9z"/>
		<path class="st3" d="M94,25.7v-8.2c0-0.6,0.4-1,1-1h16.7c0.6,0,1,0.4,1,1v8.2"/>
	</g>
</g>
</svg>
