<?xml version="1.0" encoding="utf-8"?>
<!-- Generator: Adobe Illustrator 20.1.0, SVG Export Plug-In . SVG Version: 6.00 Build 0)  -->
<svg version="1.1" id="Layer_1" xmlns="http://www.w3.org/2000/svg" xmlns:xlink="http://www.w3.org/1999/xlink" x="0px" y="0px"
	 viewBox="0 0 130 130" style="enable-background:new 0 0 130 130;" xml:space="preserve">
<style type="text/css">
	.st0{fill:#FFFFFF;}
	.st1{opacity:0.1;fill:#231F20;enable-background:new    ;}
	.st2{fill:#FFFFFF;stroke:#424242;stroke-width:1.65;stroke-linecap:round;stroke-linejoin:round;}
	.st3{fill:none;stroke:#424242;stroke-width:1.65;stroke-linecap:square;stroke-miterlimit:10;}
	.st4{fill:none;stroke:#424242;stroke-width:1.65;stroke-linecap:round;stroke-linejoin:round;}
</style>
<title>ic_global</title>
<g id="Layer_2">
	<g id="Layer_1-2">
		<path class="st0" d="M52.7,78.3c0,0,10.5,4.8,24.7,0.3l-0.1,9.3L95.7,92c0,0,14.4,1.5,14.7,14.3c0,0-14.4,10.4-42.6,11
			c0,0-25.5-1.2-46.2-9.9c0,0-2.7-0.2-1.7-3.9c0,0,0.5-7.1,10-10.2l22.9-5.4L52.7,78.3z"/>
		<path class="st1" d="M68.7,95.6c0,0,4.5,19.8,33.5,14.3c0,0-12.1,3.7-12.1,4.1s-9.2,2-9.6,2.2s-6.8,0.3-6.8,0.3L68.7,95.6z"/>
		<path class="st1" d="M64.9,94.2l3-7.2l-1-3.6h-9l-1.4,3.8l3.7,7l-4.7,22.6l0.2,0.3c1.1-1.3,2.9-1.5,4.3-0.6c1,0.4,2,0.7,3.1,0.9
			c1.4,0.3,2.8,1,3.9,2c0.3,0.3,0.7,0.7,0.9,1.1l3.1-3.8L64.9,94.2z"/>
		<polygon class="st2" points="59.2,86.9 62.8,93.9 67.6,93.9 70.6,86.7 69.5,83.1 60.5,83.1 		"/>
		<polygon class="st0" points="61.3,80.6 57.4,90.7 52.7,87.9 52.9,78.9 		"/>
		<polygon class="st0" points="67.6,80.3 71.5,90.3 77.4,87.6 77.2,78.6 		"/>
		<polyline class="st3" points="52.7,87.9 52.7,75.5 77.2,75.5 77.2,87.9 		"/>
		<circle class="st0" cx="65" cy="42.5" r="38"/>
		<circle class="st1" cx="65" cy="42.5" r="38"/>
		<path class="st0" d="M99.9,27l-0.4-0.9L99.9,27L99.9,27 M99.5,26.1c-0.3-0.7-0.8-1.6-1.2-2.4l-0.1-0.1
			C98.7,24.4,99.1,25.3,99.5,26.1L99.5,26.1 M98.2,23.6L98.2,23.6l0.1,0.1L98.2,23.6 M103.1,40.7c0-0.1,0-0.2,0-0.4
			C103.1,40.4,103.1,40.6,103.1,40.7L103.1,40.7 M103.1,40.2c0-0.2,0-0.3,0-0.5C103.1,40,103.1,40.1,103.1,40.2
			S103.1,40.3,103.1,40.2 M102.9,38.1v-0.5c0,0.2,0,0.5,0.1,0.8L102.9,38.1 M58.5,5.1L58.5,5.1L58.9,5l0,0L58.5,5.1 M58.3,5.1H58
			h0.1H58.3 M53.2,6.3L53.2,6.3L53.2,6.3 M54,6.1L54.2,6l0,0h-0.1l0,0L54,6.1L54,6.1 M54.4,5.9L54.4,5.9h-0.1L54,6L54.4,5.9 M54.2,6
			L54.2,6l0.3-0.1L54.2,6L54.2,6 M54.5,5.9l0.3-0.1l0,0H55h-0.1L54.5,5.9L54.3,6L54.5,5.9 M55.4,5.7L55.4,5.7l0.2-0.1l0.3-0.1l0,0
			l-0.4,0.1L55.4,5.7L55.4,5.7 M56.1,5.5L56.1,5.5l0.3-0.1h0.1l-0.2,0.1H56.1L56.1,5.5L56.1,5.5 M56.7,5.4L56.7,5.4l0.5-0.1l0,0H57
			L56.7,5.4L56.7,5.4h-0.2H56.7 M57.2,5.3L57.2,5.3 M58.5,5L58.9,5H59L58.7,5l0,0l-0.3,0.1L58.5,5 M59.1,5L59.1,5 M57,5.4L57,5.4
			 M57,5.4h0.1h0.2h0.2l0,0h0.3h0.3h0l-0.8,0.2L57,5.6l0,0 M26.9,46.2L26.9,46.2L26.9,46.2L26.9,46.2 M26.9,46c0-0.1,0-0.2,0-0.3
			s0,0,0,0.1V46L26.9,46 M26.8,43.9c0,0.2,0,0.3,0,0.5c0,0.4,0,0.7,0,1l0,0C26.8,44.9,26.7,44.4,26.8,43.9 M29,29.4
			c0.1-0.3,0.3-0.7,0.4-1.1c-0.1,0.2-0.2,0.5-0.3,0.7L29,29.4L29,29.4 M30,26.8c0,0.1,0,0.1-0.1,0.1c-0.1,0.5-0.3,1-0.5,1.5
			c-0.2,0.4-0.3,0.8-0.4,1.1C29.3,28.6,29.7,27.7,30,26.8 M30.1,26.9L30.1,26.9V27v0.1C30.1,27,30.2,27,30.1,26.9 M31.6,24.1
			l0.1-0.2L31.6,24.1L31.6,24.1L31.6,24.1 M31.6,24.1l0.1-0.2L31.6,24.1c0.5-1,0.8-1.4,1.2-2.1c-0.4,0.6-0.8,1.2-1.1,1.9L31.6,24.1
			L31.6,24.1 M40.6,13.4l0.2-0.1l0.3-0.3l0,0l-0.2,0.1l-0.5,0.4l0,0L40.6,13.4 M41.1,12.9L41.1,12.9l0.2-0.2
			c-0.2,0.1-0.4,0.3-0.6,0.4C40.7,13.2,41,13,41.1,12.9 M50.3,7.5l0.2-0.1L51,7.2l0,0l0,0l-0.5,0.2l-0.4,0.2l0,0L50.3,7.5 M98,50.5
			c0-0.1,0-0.2,0-0.3v-0.1V50c0-0.2-0.1-0.4-0.1-0.6c0-0.1,0-0.1,0-0.4h-0.1l-0.1,0.1l-0.1,0.2c0,0.1,0,0.2,0,0.3c0,0,0,0.1,0,0.1
			v0.1c0,0.1,0,0.1,0,0.2c0,0.1-0.1,0.2-0.1,0.3c0,0.2-0.1,0.4-0.1,0.6c0,0.1,0.1,0.2,0.1,0.3c0,0,0,0,0.3,0
			C97.9,50.9,98,50.7,98,50.5 M99.7,58.9l0.3-0.7c0-0.1,0.1-0.1,0.1-0.2c-0.1,0.1-0.2,0.1-0.3,0.2l-0.1,0.2l0,0l-0.1,0.2l0,0
			c0,0.1,0,0.1-0.1,0.2c0,0,0,0.1,0,0.1l0,0c0,0,0.1-0.1,0.1-0.1c0,0,0,0,0.1,0C99.6,58.8,99.6,58.9,99.7,58.9L99.7,58.9L99.7,58.9
			c-0.1,0.1-0.1,0.2-0.2,0.3l0,0l0,0L99.7,58.9 M99.7,57.7v-0.1v-0.1v-0.1l0.1,0v0.1v0.1 M101.4,54.5l0.7-2.2c0,0.1-0.1,0.3-0.1,0.4
			c-0.1,0.2-0.1,0.4-0.2,0.6c0,0,0,0,0,0.1c0-0.1,0-0.1,0-0.2v-0.1l0,0c-0.3,0.6-0.4,1.3-0.6,2v0.1v0.1c-0.1,0.2-0.2,0.5-0.2,0.7
			l-0.1,0.3l0,0L101.4,54.5 M100.1,56.6l0.2-0.5c0,0,0-0.1,0-0.1c0-0.1,0-0.1,0-0.1l0,0c0-0.1,0-0.2,0.1-0.3
			c0.2-0.5,0.2-0.5,0.1-0.6c-0.2,0.4-0.3,0.8-0.3,1.2c0,0,0,0,0,0.1C100.1,56.4,100.1,56.5,100.1,56.6L100.1,56.6 M100.5,54
			C100.5,53.9,100.5,53.9,100.5,54C100.5,53.9,100.5,53.9,100.5,54L100.5,54 M76.2,6.2l-0.3-0.1l0,0h-0.1l0,0h0.1c0.1,0,0.1,0,0.2,0
			l0,0L76.2,6.2L76.2,6.2L76.2,6.2L76.2,6.2 M77.2,6.6c-0.1,0-0.4-0.1-0.4-0.1l0,0c0.1,0,0.1,0,0.2,0.1L77.2,6.6L77.2,6.6L77.2,6.6
			L77.2,6.6 M75.5,5.9h-0.1h-0.2l0,0c-0.2-0.1-0.4-0.1-0.6-0.1l0.2,0.1l0,0l-0.6-0.1l0,0l0.7,0.2l0,0l1.3,0.4
			c-0.1,0-0.3-0.1-0.4-0.2h0.1l0,0h-0.1l0,0h-0.1l0,0l-0.3-0.1 M73.8,5.7l-0.5-0.1l0.3,0.1l-0.2,0h-0.2l0,0c0.1,0,0.2,0,0.3,0.1l0,0
			c0.1,0,0.1,0,0.2,0.1l0,0L73.8,5.7l0.1,0.1l0.6,0.2h0.1L74.9,6H75l-0.2-0.1l-0.2-0.1C74.3,5.8,74.1,5.7,73.8,5.7 M72.3,5.3h-0.1
			l-0.5-0.1c0.1,0,0.2,0,0.4,0.1l0,0c0.2,0,0.3,0.1,0.5,0.1l0,0l0.4,0.1l0,0l0.2,0.1h0.2h-0.2l0,0c0,0-0.1,0-0.1,0l0,0l-0.2-0.2
			l-0.2,0l0,0L72.3,5.3 M73.8,5.7L73.8,5.7h-0.2h-0.1l0,0h-0.2l0,0l0.4,0.1l0,0L73.8,5.7l0.1,0.1L73.8,5.7 M71.8,5.3l-0.4-0.1h0.1
			h-0.1h0.1L71.8,5.3L72,5.2l0,0L71.8,5.3 M76.7,10.7c0-0.1-0.1-0.1-0.2-0.1c0,0,0,0-0.1,0l-0.1-0.1H76l0.1,0.1l0.1,0.1l0.2,0.3h0.2
			c0.1,0,0,0,0-0.1s0,0,0,0l0,0h0.1l0,0L76.7,10.7 M75.2,6.9c-0.1-0.1-0.3-0.1-0.4-0.2h-0.1c0.1,0.1,0.2,0.1,0.2,0.2l0,0
			c0,0,0,0-0.1,0s0.1,0,0.1,0.1h-0.1l0,0l0,0h-0.3c0,0,0,0,0.2,0.2h-0.2c0,0,0,0,0.1,0.1l0,0l0,0c0,0,0,0,0.2,0.2
			c-0.1,0-0.2,0-0.2,0c0.1,0.1,0.2,0.2,0.3,0.3H75l0.1,0.1c-0.1,0-0.1,0-0.2,0s0,0.1,0,0.1s0.2,0.2,0.2,0.1c0-0.1,0,0,0.2,0.1l0,0
			l0.1,0.1c-0.1,0-0.1,0-0.2,0l0.2,0.2c-0.1,0-0.2,0-0.1,0s0.1,0.1,0.2,0.2c0.1,0.1,0,0,0.1,0.1h-0.1c0,0,0,0,0.1,0.1l0,0
			c0.1,0.1,0.2,0.2,0.3,0.3H76V9c0,0,0,0,0.1,0l0.2,0.1c0,0,0,0-0.1-0.1c0.2,0.1,0.3,0.1,0.5,0.2l0.1,0.1l0,0l0.1,0.1h0.3
			c0.2,0,0.3,0.1,0.5,0.1h0.2l-0.1-0.1l-0.9-0.5c-0.1-0.1-0.3-0.2-0.4-0.3l0,0c0,0,0,0-0.2-0.2c0,0-0.1-0.1-0.1-0.1l0,0
			c0,0,0-0.1-0.1-0.1l-0.1-0.1l0,0l-0.2,0.3l0,0c0-0.1,0-0.1-0.1-0.2s0-0.1-0.1-0.1l0,0C75.5,8,75.4,8,75.3,7.9h0.1l0,0l0,0l0,0
			l0-0.2h0.1c-0.1-0.1-0.2-0.2-0.3-0.2c-0.1-0.1,0.1,0,0.1,0c0,0-0.1,0-0.1-0.1l0,0l0,0h0.2c0,0,0,0-0.1-0.1h0.1l-0.1-0.1h0.1
			c-0.1-0.1-0.1-0.1-0.2-0.2l0,0h0L75.2,7 M78.4,8.6c-0.1-0.1-0.2-0.1-0.3-0.1l0,0v0.1l0.1,0.1L78.4,8.6L78.4,8.6L78.4,8.6L78.4,8.6
			C78.4,8.6,78.4,8.6,78.4,8.6 M70.6,5.3L70.6,5.3h-0.2h-0.1h0.1h-0.1C70.4,5.3,70.5,5.3,70.6,5.3h-0.1c0,0,0.4,0.1,0.5,0.1l0,0
			l-0.2,0L70.6,5.3L70.6,5.3 M70.9,5.5c0,0-0.1,0-0.1,0h-0.1l-0.4-0.1h-0.1l0,0l0,0l0.1,0.1h-0.1l0.2,0.1l0,0l0.2,0.1
			c0.1,0,0.1,0,0.2,0l0,0l0,0L70.9,5.5 M71.2,5.7H71l0,0l0,0l0,0H71.2L71.2,5.7L71.2,5.7L71.2,5.7L71.2,5.7 M70.8,5.5L70.8,5.5h-0.2
			h-0.1h0.1l0,0H70.8L70.8,5.5l-0.1,0l0.3,0.1l0,0L70.8,5.5L70.8,5.5 M70.2,5.3L70.2,5.3H70l0,0c0,0,0,0-0.3-0.1h-0.1l0,0
			c0.1,0,0.2,0.1,0.3,0.1h-0.1l0.2,0l0,0H70L70.2,5.3l-0.1,0l0,0l0,0L70.2,5.3L70.2,5.3L70.2,5.3L70.2,5.3
			C70.3,5.4,70.2,5.4,70.2,5.3L70.2,5.3L70.2,5.3L70.2,5.3L70.2,5.3L70.2,5.3L70.2,5.3L70.2,5.3L70.2,5.3L70.2,5.3L70,5.2h0.1
			c0.2,0.1,0.2,0,0.2,0h-0.1 M66.7,5.7L66.7,5.7L66.7,5.7L66.7,5.7 M89.2,38c-0.1-1.3-0.2-2.6-0.4-3.8H84L77.1,34
			c0,0.3-0.1,0.5-0.3,0.7l-0.1,0.1h-0.1h-0.1c-0.1,0-0.2,0-0.3,0h-0.1h-0.1l-0.1,0c-0.1,0-0.1,0-0.2-0.1l-0.1-0.1h-0.1
			c-0.2,0-0.3,0-0.5-0.1h-0.1h-0.1c0.2,0.1,0.4,0.2,0.6,0.2c0,0,0,0.1,0,0.1v0.1c0,0.1,0.1,0.1,0.1,0.2c0,0.1,0,0.1,0,0.2v0.1
			c0,0.4,0.3,0.6,0.4,0.8s0.2,0.3,0.4,0.4h0.2c0.2,0,0.2-0.2,0.3-0.3l0.1,0.1c0.2,0.3,0.5,0.5,0.7,0.8l0.6,1.3c0,0.1,0,0.1,0,0.1
			c-0.1,0.2,0,0.4,0,0.6c0.1,0.2,0.4,0.1,0.5,0.2s0.6,1,0.6,1c0.2,0.4-0.2,1,0.3,1.2c0.3,0.2,0.6,0.6,0.8,0.9
			c0.1,0.3,0.1,0.3,0.2,0.4c0.3,0.2,0.3,0.2,1,2c0,0.4,0,0.8-0.1,1.2c0.1,0.4,0.5,0.7,0.9,0.6c0.1,0,0.2-0.1,0.3-0.1
			c0.4-0.5,0.4-0.5,0.6-0.5h0.7l0.1,0.1h0.1l0.2-0.3c0.4-0.7,1.3-0.4,1.7-0.9c0.1-0.2,0.1-0.2,0.5-0.1l0.1-0.1c0-0.3,0-0.3,0.1-0.4
			s0.1,0,0.3-0.1c0.2-0.1,0.1-0.1,1,0c0-0.2,0.1-0.5,0.2-0.7c0.2,0,0.3,0,0.5,0c0.1-0.2,0.1-0.4,0.2-0.6c0.1-1.2,0-2.3,0-3.5
			l-0.1,0.1c-0.1-0.1-0.1-0.3-0.1-0.4s-0.1,0-0.2-0.2c-0.1-0.2,0-0.4,0-0.7c0-0.1-0.1-0.1-0.1-0.2c-0.3,0.1-0.3,0.1-0.4,1.1
			c-0.1,0-0.3,0-0.4,0h-0.2l-0.3-0.1h-0.1c-0.1,0.1-0.3,0.3-0.4,0.4c-0.3-0.1-0.5-0.3-0.5-0.6h0.1c0.1-0.1,0.1-0.1,0.2-0.1H87
			c0.6,0.3,0.6-0.1,0.6-0.1l-0.1-0.1c-0.1,0-0.1,0-0.2,0h-0.2h-0.2c-0.3-0.1-0.6-0.1-0.9-0.2H86c0-0.2,0-0.4,0-0.6s-0.1-0.2-0.8-0.4
			c-0.2-0.5-0.4-1.1-0.4-1.7c0-0.4,0.6-0.2,0.6-0.2c0,0,0,0,0.4,0.4c0.2,0.2,0.4,0.4,0.5,0.7c0.1,0.3,0.4,0.3,0.6,0.5
			c0.3,0.4,0.4,0.5,1.2,0.5h0.2c0.1-0.1,0.2,0,0.3-0.1c0-0.1,0-0.1,0.1-0.2C89,37.7,89,37.7,89.2,38L89.2,38 M96.5,21
			c-1-1.4-2.4-3.1-3.5-4.4c0.2,0.2-3.3,0.4-9.9,0.4c3,5.3,4.9,11.1,5.7,17.2c8.8,0,13.5-0.1,13.4-0.5l-0.6-2
			C100.5,27.9,98.8,24.3,96.5,21 M69.3,16.8h0.5c0,0-0.1,0-0.1,0h-0.1c0,0-0.1,0-0.1-0.1v-0.1h-0.2h-0.1l0,0L69.3,16.8L69.3,16.8
			 M69.4,9.9l-0.1-0.2h-0.2l0,0v0.1c0,0.1,0,0.1,0.1,0.2L69.4,9.9 M83.1,17c-1.2-2.2-2.7-4.2-4.4-6v0.1h-0.1h-0.1h-0.1
			c0,0.1,0.1,0.1,0.1,0.2h-0.1c-0.2-0.1-0.2-0.1-0.5-0.5v0.1h-0.1V11c0,0-0.1,0-0.1,0h-0.1v0.1h-0.1c-0.2,0-0.2,0-0.2,0.2
			c-0.1,0-0.1,0-0.2,0l-0.1,0.1l0.2,0.2c-0.1,0.1-0.1,0.1-0.3,0.2h-0.1c-0.6-0.4-0.6-0.4-0.6-0.5c0.1,0,0.2,0,0.3,0l-0.2-0.2
			c-0.1,0-0.1-0.1-0.2-0.1C76,11,75.9,11,75.8,10.9h-0.1l0,0c-0.1-0.1-0.2-0.1-0.3-0.1h-0.1c-0.1,0,0,0.1,0,0.1h0.1
			c0.1,0.1,0.3,0.3,0.4,0.5c0,0.1,0,0.2,0.2,0.3c0.1,0.1,0.2,0.1,0.3,0.2v0.1c0,0.1,0.1,0.3,0.2,0.4c-0.2,0-0.2,0-0.3-0.1v-0.1
			c0,0,0,0-0.5,0c0,0.1,0,0.1-0.1,0.2c-0.3,0.1-0.3,0.1-0.3,0.2H75l0,0c0.1,0.2,0.4,0.3,0.5,0.6l0,0c-0.1,0-0.3,0-0.4,0H75
			c-0.3,0-0.6-0.2-0.8-0.4c0,0.1-0.1,0.1-0.2,0.1c0,0.1,0,0.2,0.2,0.3v0.1c0.1,0.1,0.1,0.1,0.1,0.1c0.2,0,0.2,0,0.4,0.1
			c0,0.1,0,0.1-0.1,0.2h-0.4l-0.1,0.1L73.4,13h-0.2l-0.1-0.2c-0.1-0.6-0.9-0.5-1.1-1.1c0.2,0.1,1.1,0.4,1.1,0.4c0.2,0,0.4,0,0.6,0
			c0.2,0.1,0.3,0.1,0.5,0.2h0.2c1.3-0.4,0-1.1,0-1.1l-1.1-0.4c-0.1-0.1-0.2-0.1-0.2-0.1c-0.1-0.1-0.3-0.1-0.5,0h-0.1
			c-0.1-0.1-0.2-0.1-0.3-0.2c-0.1,0-0.2,0-0.2,0v0.1c-0.1,0.1-0.1,0.1-0.1,0.1l0,0v-0.1c0,0,0-0.1,0-0.1c-0.1,0-0.2-0.1-0.2-0.2
			h-0.2l-0.1,0.1c-0.2,0-0.4-0.1-0.5-0.2s-0.1-0.1-0.1-0.1h0.1V10c-0.2-0.2-0.5-0.2-0.7-0.2l0.1,0.2H70c-0.1,0-0.1-0.1-0.1-0.2V9.6
			c0,0,0,0,0-0.1h-0.4c0,0.1,0.1,0.1,0.1,0.2c0,0,0,0.1,0,0.1l0,0c0-0.2,0-0.2-0.1-0.3h-0.1l-0.1-0.2h-0.1l0,0
			c-0.1,0.1-0.2,0.1-0.3,0.1c0,0.1,0,0.1-0.1,0.2l0,0h-0.1V9.6c0,0-0.1,0-0.1,0c-0.1,0-0.2,0-0.3,0.1c0,0.2,0,0.2,0.3,0.2
			c0,0,0,0.1,0,0.1h-0.1c-0.1,0-0.1,0-0.3-0.1H68c0,0.2,0,0.2,0,0.3l-0.2-0.3c-0.2,0-0.3-0.2-0.5-0.2c0,0,0,0.1,0,0.1
			c0.2,0.4,0,0.4-0.1,0.4c0-0.1-0.1-0.1-0.1-0.2L67,10.4h-0.1l-0.1,0.1l0.2,0.1c0,0,0,0.1,0,0.1h-0.1l-0.3-0.1c0-0.1,0-0.2,0-0.2
			h-0.1c0,0.1,0,0.1,0,0.2c-0.3,0-0.3,0-0.3,0.1l0.1,0.1l-0.1,0.1c-0.2,0-0.2,0-0.3,0.1h0l-0.1,0.1h-0.1l-0.1,0.1h0.1
			c0.2-0.1,0.2-0.1,0.4-0.1c0.2-0.2,0.4-0.2,0.6-0.2c0,0,0,0.1,0,0.1c-0.1,0-0.1,0-0.4,0.1c0,0.1-0.1,0.2-0.1,0.4
			c-0.1,0-0.1,0.1-0.2,0.1c-0.1,0.2-0.2,0.3-0.4,0.4c-0.1,0.2-0.2,0.4-0.2,0.6v0c-0.2,0.1-0.4,0.2-0.6,0.3V13H65
			c-0.1,0.4-0.6,0.4-0.9,0.7c-0.1,0-0.2,0-0.2-0.1h-0.2v0.1v0.1c-0.1,0-0.1,0.1-0.2,0.1h-0.1L63,14.2c-0.1,0.3-0.4,0.3-0.6,0.4
			c0,0.1,0,0.1,0,0.2c0,0,0,0-0.2,0.5c0,0-0.1,0-0.1,0c0,0.1-0.1,0.2-0.1,0.3h0.3l0.1,0.1c0,0.1-0.1,0.1-0.2,0.1
			c0,0.2,0,0.2-0.2,0.3v0.1c0.1,0.1,0.1,0.1,0.3,0.1c0,0.2,0,0.2-0.2,0.3l1.5,0c0.1-0.2,0.1-0.2,0.5-0.3c0-0.1,0-0.1,0-0.2
			c0.2,0,0.2,0.2,0.3,0.3v0.1c0.9,0.1,1.8,0.1,2.7,0.1c0.1-0.1,0.2-0.1,0.3-0.1c0-0.2,0-0.2,0.2-0.3v-0.2c0,0,0-0.1,0-0.1
			s-0.3,0-0.4,0c0-0.2,0-0.2,0-0.3c-0.1,0-0.1,0-0.2-0.1c0-0.3,0-0.6,0-0.8c0.1-0.2,0.2-0.4,0.3-0.6c0.3-0.1,0.6-0.3,0.8-0.6
			c0.1-0.1,0.1-0.1,0.3-0.1l0.1-0.1c-0.1-0.3,0.1-0.6,0.1-1c0.1,0,0.2,0,0.3,0l0,0c0.2,0.2,0.2,0.2,0.3,0.2l0.1-0.1
			c0.1,0,0.1,0.1,0.2,0.2c0,0.1,0.1,0.2,0.1,0.3h-0.2c0.1,0.3,0.1,0.3-1,1.2c0,0.3,0,0.6,0,0.9v0.1c0,0.1,0,0.2,0,0.2
			c0.2,0.1,1,0.6,1,0.6h0.1c0.3-0.1,0.6,0,0.9-0.2v-0.1c0.2,0,0.5,0,0.8,0c0.1,0,0.1-0.1,0.2-0.1l0,0c0,0.1,0.1,0.1,0.1,0.2
			c0.2,0,0.3,0.1,0.5,0.1l0.1,0.1l-0.1,0.1c-0.5,0-0.6,0-0.8,0.4c-0.5,0.2-0.9-0.3-1.4,0c-0.2-0.1-0.2-0.1-0.3,0c0,0,0,0.1,0,0.1
			c3.4,0.2,6.7,0.2,9.8,0.3L83.1,17 M63.8,16.6l-1.5-0.1l0,0c0,0.1,0,0.1,0,0.1c0,0,0,0,0,0.1v0.1h0.3l0,0c0,0,0,0,0.1,0.1h0.2
			L63,17h0.1c0,0,0.2,0,0.2-0.1s0,0,0.1,0s0.1,0,0.2,0c0,0,0.1,0,0.1-0.1v-0.1C63.6,16.8,63.8,16.7,63.8,16.6 M67.2,16.7l-2.7-0.1
			c0,0.1,0.2,0.2,0.2,0.3l0,0c0,0-0.1,0-0.1,0.1c0,0.1,0,0.2,0.1,0.3h0.1c0,0.1,0.1,0.1,0.1,0.2c0,0,0,0.1,0,0.1v0.1
			c0,0.2,0.1,0.2,0.2,0.4s0.1,0.1,0.1,0.2s-0.1,0.1-0.1,0.2l0,0c0,0.1,0,0.1,0,0.2h0.7c0-0.3,0.1-0.4,0.3-0.4h0.1h0.1
			c0.1,0.1,0.1,0,0.2-0.1c0.1-0.1,0.1,0,0.2,0v-0.3h0.4c0-0.1,0-0.2,0-0.2H67c-0.2,0-0.2,0-0.2,0v0.1h0c0.1-0.2,0.2-0.3,0.2-0.5
			c0-0.2,0-0.2,0.1-0.3C67.1,16.8,67.2,16.7,67.2,16.7 M88.8,34.1c-0.8-6-2.7-11.8-5.7-17.1h-3.5c-3.1,0-6.4-0.1-9.8-0.2h-0.5h0.1
			l0,0L69,17c0,0.1,0,0.1,0,0.2c0.2,0.1,0.3,0.1,0.5,0.1c0.1-0.1,0.2-0.2,0.3-0.3c0.2,0.1,0.3,0.4,0.6,0.5c0,0.1,0,0.1,0,0.2
			c-0.1,0.1-0.2,0.1-0.3,0.2C70.1,18,70,18,69.9,18h-0.2l-0.1-0.2c-0.1-0.1-0.1-0.1-0.2-0.1s0-0.1,0-0.2h-0.2
			c-0.1,0.1-0.2,0.2-0.2,0.3c-0.1,0.4-0.2,1.2-0.2,1.3l0.1,0.1v0.1c-0.7-0.1-0.7-0.1-0.9,0c0,0.1,0.1,0.2,0.2,0.3v0.1h-0.1
			c-0.2-0.1-0.4-0.3-0.6-0.5c-1.5,0.7-1.9,0.8-1.8,0.2h-0.2c-0.1,0.1-0.2,0.1-0.3,0.1h-0.4c0,0.1,0,0.1,0,0.2c0,0.1-0.1,0.1-0.2,0.1
			h-0.2c0-0.1-0.1-0.2-0.2-0.2H64c0-0.1,0-0.1,0-0.2s0-0.1,0-0.2h0.4c0.2,0.1,0.4,0.1,0.5,0.2c0.2-0.3,0.3-0.6,0.2-0.9
			c-0.1,0-0.1-0.1-0.2-0.1c-0.4,0.1-0.4,0.1-0.5,0.2c-0.1,0.1-0.1,0-0.1,0l0,0l-0.1-0.2l0.1-0.1c0-0.1,0-0.1,0-0.2h-0.2
			c-0.1-0.7-0.1-0.7-0.2-0.8c-0.4,0.4-0.4,0.4-0.5,0.4L63.4,18c0,0.1,0,0.1,0,0.1c-0.1,0.1-0.2,0.1-0.3,0.2
			c-0.1,0.3,0.2,0.6,0.1,0.9c0,0,0,0.1,0,0.1l-0.1,0.2l0.1,0.3c0,0.1,0,0.2,0,0.2h-0.2h-0.2h-0.3c-0.4-0.1-0.4-0.1-1.3,0.5
			c-0.2-0.1-0.2-0.1-0.2-0.1h-0.3c0,0.1,0,0.1,0,0.2l0.2,0.1c0,0.1,0,0.2,0,0.3c-0.3,0-0.4,0-0.8,0.4c-0.1,0-0.1,0.1-0.2,0h-0.2
			c-0.1,0.2-0.2,0.4-0.2,0.6c-0.2,0-0.4,0-0.6,0c0,0.1-0.1,0.2-0.1,0.3h-0.4l-0.1-0.1h-0.2c-0.1-0.1-0.1-0.1-0.1-0.1l-0.2-0.1
			c-0.1,0.1-0.1,0.2-0.2,0.3l0.2,0.1l-0.1,0.2V23c0,0,0,0.1,0,0.1c-0.3,0-0.5-0.1-0.8-0.1l-0.1-0.2c-0.5,0.1-0.5,0.1-0.7,0.2
			c0,0.1,0.1,0.1,0.1,0.2c0.1,0.1,0.2,0.2,0.3,0.2h0.3c0.3,0.3,0.3,0.3,0.4,0.4c0.1,0.2,0.1,0.5,0,0.7c0.1,0.1,0.3,0.2,0.4,0.4
			c-0.1,0.5-0.3,1-0.5,1.5c-0.1,0.1-0.3,0.1-0.4,0.2h-0.2c-0.3-0.1-0.6-0.1-0.8-0.4c-0.4-0.1-0.8-0.1-1.1-0.1s-0.4-0.1-0.5-0.2h0
			L54,26.2c-0.2,0.1-0.4,0.1-0.6,0.1l-0.1,0.1c0.3,0.4-0.2,0.8,0,1.3l-0.1,0.7c-0.5,0.8-0.5,0.8-0.4,1c0,0.1,0,0.2,0,0.3v0.1
			c-0.2,0.2-0.2,0.2-0.2,0.5c0.1,0,0.2,0.1,0.3,0c0.2,0,0.3-0.1,0.5,0.2c0.1,0,0.2,0,0.4-0.1l0.4,0.2c0.1,0.1,0.1,0.2,0.1,0.4h0.2
			h-0.1c1-0.3,1.9-1.2,3-1.2c0.1-0.1,0.2-0.2,0.2-0.4c-0.1-0.1-0.1-0.2-0.2-0.3c0-0.1,0-0.1,0.4-0.7c0.2-0.4,1.7-0.6,1.7-0.6
			c0.1-0.1,0.1-0.2,0.2-0.4c0,0,0-0.1,0-0.1c0-0.5,0-0.9,0.7-0.7h0.2c0.2,0.1,0.4,0.2,0.6,0.2h0.3c0-0.2,0.1-0.4,0.3-0.5H62
			c0.2,0,0.3,0,0.6-0.3c0.7,0.1,0.6,0.9,1.1,1.1c0.1,0.1,0.2,0.2,0.2,0.3c1.6,1.1,2.4,1.9,2.4,2.4c-0.6,0.2-1.3,0.3-1.9,0.3
			l-0.1,0.1c0.3,0.2,0.5,0.5,0.9,0.6H66c0-0.1,0-0.3,0-0.5c0.5-0.2,0.8-0.7,1.2-1c0-0.2,0-0.3,0-0.3h-0.4c-0.1-0.1-0.1-0.1-0.1-0.1
			c0.1-0.1,0.3-0.2,0.5-0.2c0.2,0,0.3,0.1,0.5,0.3c0,0,0,0,0-0.5c-0.3-0.3-0.8-0.4-1.1-0.8c-0.1,0-0.4,0-1-0.5
			c0.1-0.2,0.1-0.2-0.5-0.6c0,0-0.1-0.1-0.1-0.1c0-0.1-0.1-0.3-0.1-0.4h-0.4c0-0.1,0-0.2,0-0.3l0.1-0.1c0.1-0.1,0.1-0.1,0.1-0.1
			c0-0.1-0.1-0.2-0.1-0.4c0.4-0.1,0.4,0,0.5,0.3c0.9,0.1,1.1,1.1,1.9,1.3v0.1c0.3,0.4,0.9,0.5,1.2,0.9c-0.2,0.6-0.2,0.6,0,0.8
			c0,0.3,0,0.6,0.5,0.7c0.1,0.1,0.2,0.3,0.2,0.5h-0.1l-0.1-0.1L68.6,30c0.3,0.4,0.3,0.4,0.6,0.5l0.1-0.1c0.2,0.1,0.3,0.2,0.4,0.4
			c0,0.1,0,0.3,0,0.4c0.1,0,0.2,0.1,0.4,0.1h0.2c0.1-0.1,0.2-0.2,0.2-0.3s0-0.1,0-0.1v-0.2l0.2-0.1c0.1,0,0.2,0.1,0.3,0.1h0.2
			l0.1-0.1c0-0.1,0-0.2,0-0.3c0.1,0,0.2,0,0.4,0c-0.1-0.2-0.2-0.3-0.4-0.4c0,0.1,0,0.2-0.1,0.4c-0.3-0.1-0.3-0.2-0.5-0.7
			c-0.2,0-0.4-0.1-0.5-0.3c0-0.1,0-0.2,0-0.2l0.2,0c0.1,0.1,0.2,0.1,0.3,0.2h0.4c0-0.1,0-0.2,0-0.4c0.2-0.2,0.2-0.2,1.2,0.2
			c0,0,0,0.1,0,0.2l0.1,0.1l0.1,0.2l-0.2,0.1c0,0.4,0.5,0.5,0.4,0.9c0,0.1,0,0.1,0,0.2c0,0,0,0.1,0,0.1c0.1,0.1,0.1,0.2,0.2,0.3V31
			h0.1v0.1l0.1,0.1H73c0,0,0,0.1,0,0.2l-0.1,0.1v0.1v0.1c0,0.1,0,0.2,0.1,0.4l0.1,0.1h0.1l0.1-0.2v-0.1c0-0.1,0-0.2,0-0.2
			c0-0.2,0.1-0.2,0.1-0.2h0.1h0.1v0.1h0.1l0.2,0.2l0.1,0.1l0,0.1h0.1H74c0.1,0,0.2,0,0.3,0.1h0.2h0.1h0.1v-0.1v-0.1
			c0-0.1,0-0.2,0-0.3v-0.1l0.1-0.1c0.1,0,0.3,0,0.4,0.1l0.2,0.2l0.2,0.2v0.1h0.1h0.1l0.2,0.2h0.8c0,0,0-0.1,0-0.2s0-0.1,0-0.1
			s0-0.1,0-0.2h0.2h0.1c0.1,0,0.3,0.1,0.4,0.2h0.2h0.1v-0.1h0.1h0.1l0.1,0.1v0.1c0,0.1,0,0.3,0,0.4c-0.1,0.2-0.1,0.5,0,0.7v0.1
			l0.1,0.2l-0.1,0.2h0v0.1v0.2v0.1c-0.2,0.3-0.2,0.3-0.3,0.4h-0.1l-0.1,0.1v0.1c2.3,0.1,4.6,0.1,6.8,0.2L88.8,34.1 M83.6,9.3
			l-2.3-1.2l0,0h0.1h0l0,0h0.1h0.1l0,0C81.3,8,81.2,7.9,81,7.9L81.3,8L81,7.9l-0.4-0.2h-0.1h-0.1c0.2,0.1,0.4,0.2,0.6,0.3l0,0h0.1
			l0.3,0.1h0.1l0.2,0.1l0,0h0.1l0,0l0,0l0,0l-0.9-0.5h-0.1l-0.2-0.1l-0.2,0.1l0,0c-0.2-0.1-0.3-0.2-0.5-0.2h-0.1l-0.3-0.2h-0.1
			l-0.6-0.2l0,0l-0.8-0.4h-0.1h-0.1l0.2,0.1l-0.2-0.1L78,6.8l0,0h-0.1l-0.2-0.1l-0.4-0.1l0,0c-0.2,0-0.3-0.1-0.5-0.2l-0.2-0.1h-0.1
			l1.2,0.5h-0.1L78,6.9H78l0,0l0.1,0.1L78.3,7L78,6.9l0,0h-0.1C78,7,78.1,7,78.3,7.1l0,0l0.2,0.1h-0.1c0.2,0.2,0.2,0.2,1.2,0.7
			L79.8,8h0.1h-0.1v0.1h-0.2c0,0-0.1,0-0.1,0v0.1h0.1h-0.1c0.4,0.2,0.8,0.4,1.2,0.6l0,0c0.1,0,0.3,0.1,0.4,0.2L81.1,9L81.2,9
			c-0.3-0.1-0.5-0.2-0.8-0.3h-0.2L80,8.6h-0.1v0.1L80,8.8c0.2,0,0.3,0.1,0.4,0.2l-0.2-0.1l0,0c0.1,0.1,0.3,0.3,0.5,0.3h0.1
			c0.2,0.1,0.5,0.2,0.7,0.3c-0.3-0.2-0.8-0.2-1.1-0.4L80.2,9c-0.3-0.1-0.6-0.2-0.9-0.3h-0.1l0.6,0.4l0.1,0.1h-0.1
			c0.1,0.1,0.2,0.2,0.3,0.3l0,0c0.9,0.6,0.9,0.6,1,0.7l0,0c0.2,0.2,0.5,0.4,0.7,0.5H82c0,0-0.1-0.1-0.1-0.1l0,0c0.6,0.2,1,0.8,1.6,1
			c0.1,0.1,0.2,0.1,0.4,0.2c-0.1,0.1-0.1,0.1-0.1,0.1c-0.2-0.1-0.3-0.2-0.5-0.3l-0.1-0.1c0,0-0.6-0.4-0.9-0.4V11
			c0.1,0.2,1.1,1.1,1.1,1.1h-0.1c0,0.1,0,0.1,0,0.2c0,0,0.1,0.1,0.1,0.1v0.1c-0.1,0-0.2,0-0.3-0.1c-0.1,0-0.2,0-0.3,0h-0.1l0.1-0.3
			c0.1,0,0.2,0,0.3,0s0.1-0.2-0.3-0.6c0-0.1,0-0.1-1.5-1.2l-0.1-0.1c-0.4-0.3-0.7-0.6-1.2-0.8l-0.5-0.4c0,0,0.1,0,0.1,0l-0.5-0.4
			c-0.1,0-0.2-0.1-0.3-0.1h-0.2v0.1h-0.1c0.2,0.2,0.8,0.7,0.8,0.7s-0.1,0.1-0.1,0.1l0,0.1l0.1,0.1h0.1h0.1c0.1,0,0.5,0.2,0.5,0.4
			s0.3,0.3,1,0.6c0.2,0.1,0.4,0.2,0.6,0.4h-0.1c-0.6-0.2-1.3-0.4-1.8-0.8h-0.3c-0.1,0-0.2-0.1-0.2-0.1h-0.3
			c-0.2-0.1-0.4-0.2-0.6-0.3c-0.1,0-0.2-0.1-0.2-0.1H78v0.1c0.4,0.4,1.2,0.4,1.5,0.9c-0.1,0.1-0.1,0.1-0.1,0.1c0,0.1,0,0.2,0.1,0.2
			h-0.1c-0.1-0.1-0.2-0.3-0.4-0.4h-0.1v0.1v0.1h-0.1h0h-0.1c1.7,1.8,3.1,3.8,4.4,6c6.6,0,10.1-0.1,9.9-0.4l-0.2-0.2
			c-1.3-1.4-2.8-2.7-4.3-3.9c-1.6-1.2-3.2-2.3-4.9-3.2 M90.7,41.2L90.7,41.2c0-0.1,0-0.2-0.1-0.4c0-0.1-0.1,0-0.2-0.1l-0.1,0
			c-0.1-0.1,0-0.2-0.1-0.4S89.9,40,89.8,40c-0.3,0,0-0.4-0.1-0.6l-0.2-0.1h-0.2c0,0.3,0,0.3,0,0.4c0,1.2,0.1,2.3,0,3.5
			c0,0,0,0,0.1,0h0.2l0.1-0.2c0,0,0-0.1,0.1-0.1l0,0c0-0.2,0.1-0.5,0.3-0.5l0,0c0.1,0,0.1,0.1,0.2,0.2c0-0.4,0-0.7,0.1-1.1
			c0,0,0-0.1,0.2-0.1c0.1,0,0.1,0,0.2-0.1 M102.9,37.6c-0.2-1.2-0.5-2.7-0.7-3.9c0.1,0.3-4.7,0.5-13.4,0.5c0.2,1.3,0.3,2.5,0.4,3.8
			c0.1,0.2,0.1,0.5,0.4,0.6H90c0.3-0.1,0.4,0.2,0.6,0.3h0.5l0.2,0.1h0.8l0.5-0.1h0.5c0,0,0.8,0.7,0.8,1.2H94
			c0.1,0.1,0.1,0.2,0.2,0.3h0.2c0.1,0,0.2,0,0.5,0.2c-0.7,0-0.4,0.4-0.4,0.4c0.3,0.2,0.2,0.8,0.7,0.8c0.2-0.3,0.2-0.3,0.3-0.3
			l0.1-0.2l0.1,0c0.3,0.2,0.3,1.5,0.3,1.5v0.4c-0.2,1.4,0.7,2.7,0.5,4.1c0,0,0,0.1,0,0.1c0,0.7,0.1,1.5,0.2,2.2l0.1,0.2H97
			c0.5-0.4,0.5-0.4,1.2-3.2c0-0.2,0-0.5,0.1-0.7c0-0.7,0-0.7,0.1-0.9c0.7,0,1.2-2.3,1.2-2.3c0.1-0.1,0.2-0.3,0.2-0.5h0.1l0,0
			c0.1-0.1,0.1-0.1,0.1-0.8c0-0.1,0.1-0.1,0.2-0.1l0.1,0.1h0.1c0.1-0.2,0.2-0.3,0.2-0.5c0.1,0,0.1,0,0.2,0c0-0.1,0-0.3,0-0.4h0.1
			c0.2,0.5,0.3,1,0.3,1.6c0.1,0.2,0.1,0.3,0.2,0.5c0,0.1,0,0.1,0,0.2s0,0.2,0,0.3l0,0h0.1c0.3,0.5-0.2,1.2,0.1,1.7h0.1
			c0-0.1,0.1-0.2,0.2-0.3c0-0.1,0-0.1,0-0.2c0,0,0-0.1,0-0.1c0,0,0-0.1,0-0.1c0.3,0.3,0.2,1.8-0.2,4.4c0,0.1,0,0.1,0,0.2
			c-0.1,0.6,0,1.2-0.1,1.9v0.1c-0.1,0.3-0.1,0.7-0.1,1l-0.2,0.7c-0.1,0.5-0.1,0.9-0.1,1.4l0,0c0.1-0.2,0.1-0.3,0.1-0.5
			c0-0.3,0.4-1.7,0.4-1.7v-0.2c0,0,0-0.1,0-0.1v-0.1v-0.1c0-0.1,0-0.2,0.1-0.3c-0.1-0.6-0.1-1.2,0-1.8c0-0.1,0-0.1,0-0.2
			c0-0.1,0-0.2,0-0.2c0-0.2,0.1-0.4,0.1-0.6s0.3-1.7,0.3-1.7c0.1,0.2,0,0.4,0.1,0.7l0,0v-0.1c0.1,0.4,0.1,0.4-0.1,2.7
			c0.4-1,0.6-2.1,0.7-3.2V46c0.1-0.6,0.1-1.3,0-1.9c-0.1-1-0.1-2.1,0-3.1c0.1,0,0.1,0,0.1,0.1s0,0.1,0,0.1c0,0.3,0,0.5,0,0.7
			s0,0.7,0,1c0,0.1,0.1,0.1,0.1,0.1c0-0.4,0-0.7,0-1.1c0-0.3,0-0.5,0-0.8l0,0c0-0.1,0-0.2,0-0.3c0,0,0-0.1,0-0.1
			c-0.1-0.9-0.1-2.2-0.3-3.1 M57,16.5L57,16.5h-0.2c-0.1,0-0.1,0.1-0.2,0.1h-0.1l0,0l-0.1,0.1c-0.1,0-0.1,0.1-0.2,0.1
			c0,0,0,0.1,0,0.1l0.1,0.1c0.1-0.1,0.1-0.1,0.2-0.1l0.1-0.1l0,0c0,0,0.1,0,0.1,0v-0.1c0,0,0.1-0.1,0.1-0.1l0,0L57,16.5 M59.5,20.6
			c0-0.1,0-0.1,0-0.2c-0.1-0.1-0.1-0.2-0.1-0.3c0-0.1-0.1-0.1-0.2-0.1h-0.1c0,0.1-0.1,0.2-0.2,0.3c-0.1,0.1-0.1,0.1-0.1-0.6h-0.3
			c0.1-0.4,0.2-0.5-0.1-0.5c0,0,0-0.1,0-0.1h-0.1c0-0.1,0-0.2-0.1-0.2v-0.1c0-0.1-0.1-0.4-0.2-0.4c-0.3,0-0.3,0-0.4-0.2
			c0.2-0.2,0.2-0.2,0.4-0.3v-0.1c0-0.2,0.2-0.1,0.3-0.3l0.1-0.4h-0.8c0.2-0.2,0.2-0.2,0.2-0.3c0,0,0.2-0.1,0.3-0.2
			c0.1-0.1,0-0.1-0.1-0.1h-0.2c-0.1,0-0.3,0-0.4,0c-0.1,0.1-0.1,0.2-0.2,0.4c0,0.1-0.1,0.2-0.1,0.3h-0.2c-0.1,0,0-0.1-0.1-0.1h0.4
			c-0.2,0-0.2,0.3-0.2,0.3s0.2,0.1,0.2,0.1l-0.1,0.2v0.1c0,0.1,0,0.3-0.1,0.3s-0.3,0.1-0.3,0.2v0.1h0.1c0,0,0.1,0,0.2,0
			c0,0.1,0,0.1,0,0.2c0.1,0,0.1,0,0.2,0c0-0.1,0-0.1,0.1-0.2l0,0.1c-0.1,0.1,0,0.2,0,0.3c0,0.1-0.2,0-0.2,0.1s0,0,0,0.2h0.5l0.1-0.1
			c0.2,0.1-0.1,0.5,0.2,0.6l0,0c0,0.1-0.1,0.2-0.1,0.3c0,0.1,0,0.2-0.1,0.2c0,0,0,0,0,0c-0.2,0.1-0.3-0.1-0.5-0.1l0,0
			c-0.1,0-0.1,0-0.2,0.1l-0.1,0.1h-0.1l0,0.1c0.1,0.1,0.3,0,0.5,0.1c0,0.1,0,0.1-0.1,0.2H57l-0.3,0.2h-0.1c-0.1,0.1-0.1,0.2,0,0.3
			s0.3-0.2,0.5,0s0.3,0,0.5,0.1s0,0.1-0.1,0.2c-0.1,0-0.3,0-0.4,0c-0.1,0-0.1,0.1-0.2,0.1s-0.2,0-0.3,0c-0.1,0.4-0.1,0.4-0.4,0.5
			c0.1,0.1,0.1,0.1,0.4,0c0.1-0.1,0.1-0.1,0.2-0.1s0,0,0.2,0.1h0.3c0-0.2,0.1-0.2,0.1-0.3c0.2,0,0.4,0,0.6,0s0.2-0.2,0.3-0.2
			s0.2,0.2,0.3,0.2h0.1c0.2,0,0.3,0,0.5-0.1s0.2-0.1,0.2-0.1c0.1,0,0.2,0,0.2,0v-0.1c-0.1-0.1-0.1-0.2-0.1-0.3c0,0,0,0,0-0.1
			c0,0,0-0.1,0.2-0.1s0.1,0,0.1-0.2h0.2 M55.5,19.1L55.5,19.1 M56.7,19.2c0.1-0.1,0.1-0.2,0-0.2c-0.1-0.1,0-0.1,0-0.2
			c0,0,0-0.1-0.1-0.1c0,0-0.1,0-0.1,0l-0.1-0.1l0,0c-0.1,0-0.2,0-0.2,0.1c0,0,0,0.1-0.1,0.1h-0.1l-0.1,0c0,0,0-0.1,0-0.1
			c0,0,0,0-0.2,0c-0.1,0.2-0.1,0.3-0.2,0.5c-0.1,0-0.1,0.1-0.2,0c-0.1-0.1-0.1,0-0.2,0.1s0,0-0.1-0.1h-0.1l-0.2,0.7
			c0.1,0,0.2,0,0.3,0l-0.1,0.3c-0.2,0-0.2,0-0.4,0.2l0,0c0,0.1,0,0.1-0.1,0.2s-0.1,0-0.1,0.1l0,0c0,0,0,0.1,0,0.2s0.2,0.1,0.2,0.1
			c0.1-0.1,0.2-0.1,0.3,0c0.1,0,0.2-0.1,0.2-0.1c0,0,0,0,0-0.1s0.1,0,0.1-0.1h0.8v-0.1c0-0.1,0-0.1,0-0.2s0.1,0,0.1-0.1
			s0.1-0.1,0.1-0.3s0.1-0.3,0.1-0.4v-0.2c0.1,0,0.2,0,0.3-0.1 M82.5,63.1L82.5,63.1l0.3-1.3c0-0.1-0.1-0.2-0.5-0.4
			c0,0.1-0.1,0.3-0.1,0.4c-0.1,0.1-0.1,0.1-0.7,0.5c-0.1,0.1-0.2,0.2-0.2,0.3c0,0,0,0.1,0,0.1c-0.1,0.1-0.1,0-0.2,0
			s-0.1,0.3-0.2,0.4c-0.3,0.2-0.7,0-1,0.1c-0.1,0-0.2,0-0.3,0.1s-0.1,0.3-0.1,0.4c-0.1,0.1-0.2,0.2-0.3,0.3C79.1,64.4,79,64.9,79,65
			s0.1,0.1,0.1,0.1c0,0.1-0.1,0.2-0.1,0.4c0,0.1-0.1,0-0.1,0s0,0-0.3,0.3c-0.3,0.3-0.1,0.5-0.3,0.6c0,0-0.1,0.1-0.1,0.1v0.1
			c0,0.2,0,0.3,0,0.5L78,67.2c0,0.2-0.1,0.4-0.2,0.5c0.2,0,0.4,0,0.6,0c0,0,0,0.1,0,0.1c0.4,0.2,0.9,0.1,1.2-0.3
			c0.2-0.3,0.3-0.6,0.5-0.9c0.2-0.3,0.4-0.3,0.5-0.5s0.2-0.6,0.4-0.8s0.3-0.1,0.5-0.2c0.2-0.1,0.2,0,0.3-0.1s0-0.5,0.1-0.7
			c0.1-0.1,0.2-0.2,0.3-0.4c0-0.1,0-0.1,0.1-0.2c0-0.1,0-0.1,0-0.2v-0.1C82.3,63.3,82.5,63.2,82.5,63.1 M85.9,48.2
			c0-0.2,0-0.4-0.2-0.5c-0.7,0-1.2,0.8-2,0.5h-0.4c-0.4,0.1-0.8,0.1-1.1-0.1C82,47.5,82,47.5,82,47.3l-0.2-0.1
			c-0.1-0.2-0.1-0.4-0.1-0.6c-1.8-1.5-3.3-2.7-2.9-4c0-0.1,0-0.2,0-0.5c0-0.2-0.1-0.3-0.1-0.5c0,0-2.9-5.5-3-6.4
			c-0.3-0.2-0.7-0.3-1-0.5h-0.3l-0.4,0.2h-0.1c-1.6-0.2-3.2-1.2-5-1.2c0,1.4,0,1.4-0.1,1.5h-0.2h-0.3c-0.4-0.1-0.5-0.5-0.9-0.6
			c-0.5,0-0.9,0-1.3-0.2c-0.2-0.8-1.4-0.8-1.5-0.8c-0.6,0-0.6,0-1.3-2.3c0.1-0.1,0.1-0.1,0.6-0.3l-0.1-0.2c-0.2-0.1-0.4-0.2-0.7-0.2
			c-1.6,0.1-1.6,0.1-2.4,0.5c-0.4-0.4-1.2-1-2-0.1h-1.1c0,0.1,0,0.1-1.4,0.7h-0.2c-0.5-0.1-1,0.1-1.4-0.4h-0.3
			c-0.1,0.3-0.2,0.6-0.3,0.9c-0.2,0.1-0.3,0.2-0.8,0.1c0,0.3-0.1,0.7-0.1,1c-0.3,0-0.6,0-0.9,0.1c-0.1,0.5-0.3,1-0.4,1.6
			c0,0.1,0,0.3,0,0.4h-0.7c-0.1,0.6-0.6,1-1.2,1.1c-0.5,0.7-1,1.5-1.3,2.4h-0.2H48h-0.2c-0.1,1.4-0.1,1.4-0.7,1.6L47,40.8
			c0,0.2,0,0.3,0.1,0.5c0.8,0.2,0.8,0.2,0.9,0.3c-0.3,0.5-0.3,0.5-0.3,2.1c0,0.1,0,0.2,0,0.5c0,0.1,0,0.1-0.5,0.5
			c0.1,0.3,0.1,0.6,0.2,0.9v0.3c0,1.1,1.8,2.2,1.9,2.2c0,0.7,0,1.2,1.5,1.5c0.1,0.2,0.1,0.4,0.1,0.7c1.3,1.2,2.1,1.1,2.1,1.1
			s0.1-0.3,0.2-0.5c0.3,0,0.6,0,0.9,0h0.3h0.7c0.2,0.5,0.6,0.4,1.6,0.2c0.2-0.6,0.5-0.6,1.5-0.5h0.1c0.4-0.4,0.9-0.5,1.3-0.2
			c0.2,1,0.4,1.1,0.8,1.2l2.1,0.1c0,0.3,0,0.6-0.1,0.9c-0.1,0.8-0.2,1.5-0.4,2.3h-0.2L61.6,55c1.6,0.9,1.7,2.8,2.6,4.1l-0.1,0.2
			c0,0.1,0,0.2,0,0.2c0,0.4,0.1,0.5,0.3,0.6c0,1.2-1.1,2.1-1.1,3.3c0,0.7,0,0.7,0.4,0.9c0.1,0.6,0.1,0.8,0.6,1.1
			c0.2,0.9,0.2,0.9,0.3,1c0,0.3,0,0.7,0,1c0.3,1,0.7,1.9,1.3,2.7c0,0.2,0,0.3,0.2,0.6c0,0.1,0,0.1-0.1,0.1c-0.1,0.1-0.2,0.2-0.3,0.3
			l0.2,0.1h0.2c0,0.3,0,0.3,0.3,0.5h0.9c0.2-0.1,0.4-0.1,0.7-0.2c0.4,0,0.8,0,1.2-0.1l0.1-0.2c1-0.1,1-0.1,1.1-0.4
			c0,0,2.8-1.4,2.5-2.8c0,0,1.3-0.7,1.7-0.9c0.1-0.4,0.1-0.4,0-1.9c1.2-1,2.9-1.4,3.7-2.9l0.1-0.4c0-0.2,0-0.3,0-0.5
			c0.1-0.4,0.2-0.9,0.2-1.4c-0.5-0.7,0.1-1.5-0.1-2.2v-0.1c1.3-4.2,6.8-5,7.6-9.5 M40.3,57.5c0-0.1-0.4-1.2-0.9-1.5H39
			c-0.6-0.3-0.8-1.5-1.6-1.1c-0.2,0-0.4-0.1-0.7-0.1c-0.2-0.3-0.3-0.3-0.6-0.3c0,0.1,0,0.2,0.1,0.4c-0.4-0.1-0.5-0.2-0.5-0.4
			l0.1-0.1c-0.7-0.7-0.9-0.7-1-0.7c0,0-0.1,0-0.1,0c-0.2-0.2-0.2-0.2-0.5-0.2l0.1,0.6h-0.3l0-0.2c0-0.1,0-0.2,0.1-0.3l0.1-0.1
			c-0.1-0.2-0.1-0.2-0.5-0.4h-0.1h-0.1c0.1,0.4,0.1,0.4,0,0.5h-0.2c0-0.1,0-0.2-0.1-0.3c0.1-0.1,0.1-0.2,0.2-0.3
			c-0.1-0.8-0.1-0.8-0.2-1h-0.2c0-0.2-0.1-0.5-0.1-0.7c-0.3-0.5-0.6-1-1-1.5c-0.1,0-0.2-0.1-0.3-0.2l-0.1-0.1l-0.3,0.1h-0.1
			c0,0-0.9-1.3-1.2-1.7c0,0,0-0.1-0.1-0.2c-0.1-0.2-0.1-0.3-0.1-0.5h-0.1l-0.1,0.1c-0.1-0.1-0.1-0.1-0.2-0.5l0.1-0.2
			c-0.1-0.1-0.1-0.2-0.2-0.3l-0.1,0.2c0,0,0,0-0.1,0l-0.2-0.1c0,0.1,0,0.2,0,0.4l-0.1,0c-0.1-0.3-0.1-0.3-0.2-0.5
			c-0.1,0-0.1,0-0.2,0L28.2,46c0-0.2-0.1-0.3-0.1-0.5c0-0.1-0.1-0.2-0.2-0.3c0,0,0,1.3-0.1,1.7c-0.2-0.7-0.2-1.3-0.1-2v-0.1h-0.1
			c-0.1,0.2-0.1,0.4,0,0.5c0,0-0.1,0-0.2,0.1c0,0.1-0.1,0.2-0.2,0.3c0,0.2,0,0.5,0.1,0.8c-0.5,1.4,0.5,2.6,0.4,4
			c0.1,0.2,0.1,0.4,0.1,0.6c0,0.3,0.1,0.7,0.2,1c0,0,0,0,0,0.1c0.1,0.3,0.2,0.7,0.3,1l0.1,0.3c0.1,0.5,0.2,0.9,0.4,1.4l0.1,0.2
			c0.3,0.8,0.7,1.5,1,2.3c0,0.1,0.1,0.2,0.2,0.3c0.5,1.1,1.8,3.6,2.9,4.5c0.2,0.4,0.4,0.7,0.7,1.1l0.2,0.3v0l0.1,0.2l0.1,0.2
			l0.1,0.1c0.2,0.3,0.2,0.3,0.3,0.4l0,0l0.2,0.2l0.1,0.1v0.1l0.1,0.1c0.1,0.2,0.2,0.3,0.3,0.5l0.1,0.1l0.1,0.1
			c0.2,0.3,0.4,0.7,0.7,1c0,0,0.8,1.1,1.1,1.4l0.1,0.1c0.7,0.7,1.4,1.4,2.1,2.2l0.3,0.3l0.1,0.1c2.1,1.9,2.1,1.9,2.5,2.2
			s0.8,0.7,1.3,0.9l0,0l-0.8-0.6l0,0l0.4,0.3l0.1,0.1l0.6,0.4c0.2,0.1,0.2,0.1,1,0.7l-0.4-0.2l-0.1-0.1l-0.2-0.1l0,0l0.3,0.2
			l0.7,0.4l-0.4-0.2l0.4,0.2c0.5,0.3,1,0.6,1.5,0.9l0.1,0.1l0.5,0.2l0.1,0.1c0.3,0.2,0.7,0.4,1,0.5l0.1,0.1l0.1,0.1l0,0l0.5,0.2h0.1
			c0.8,0.3,1.6,0.7,1.7,0.7H51l0.5,0.2h0.2h0.1c-0.2-0.1-0.4-0.2-0.6-0.2l-0.3-0.1l-1-0.4l0,0.1L49,77.2l-0.2-0.1l-0.5-0.2l-0.2-0.1
			c0,0,0,0-0.1-0.1c-0.4-0.2-0.9-0.5-1.3-0.7l-0.2-0.1l-0.2-0.1c-0.3-0.2-0.5-0.3-0.8-0.4l-0.1-0.1L45.2,75h0.1l-0.6-0.4
			c-0.3-0.2-0.5-0.5-0.8-0.7l-0.2-0.1l0,0l0.1,0.1c-0.2-0.1-0.4-0.2-0.6-0.4L43,73.2l0.2,0.1l0.2,0.1c0.1,0,0.1,0,0.1,0l-0.1-0.1
			l-0.2-0.2c-0.2-0.2-0.3-0.3-0.5-0.5l-0.2-0.2c0,0,0.1,0,0.1,0c0,0,0,0,0.1-0.1h0.3c-0.2-0.2-0.4-0.4-0.5-0.7l-0.1-0.2l-0.2-0.2
			h-0.1l-0.3-0.3c-0.3-0.2-0.5-0.4-0.7-0.6H41c0.6,0.3,0.6,0.3,0.7,0.1c-0.9-1.3-0.9-1.5-0.9-1.7c0.1,0.1,0.2,0.3,0.4,0.4
			c-0.4-1.2-1.6-2.1-1.4-3.5h0.3c0-0.1,0.1-0.2,0-0.3l0.8,0.1c0-0.1-0.1-0.2-0.1-0.3h0c0-0.2,0-0.5-0.1-0.7l0.1-0.1
			c-0.1-0.2-0.2-0.5-0.2-0.7l0.1-0.1c-0.1-0.3-0.2-0.6-0.3-0.9c0-0.1,0-0.1,0-0.2c0-0.2-0.1-0.5-0.2-0.7c0-0.1-0.1-0.2-0.1-0.3
			L40,61.3c0-0.1-0.1-0.2-0.2-0.3c-0.1-0.2-0.2-0.4-0.2-0.7c0,0,0,0,0.3-0.9l0.2-0.1l0.1-0.2c0,0,0.2-0.7,0.2-1.1
			C40.4,57.9,40.4,57.7,40.3,57.5 M27.1,41.3c0-0.1,0-0.2,0-0.3v-0.1c0,0,0-0.1,0-0.1l0,0H27c0,0.3,0,0.3,0,0.3l0,0
			C27.1,41.2,27.1,41.3,27.1,41.3C27,41.4,27,41.5,27,41.6l0,0C27.1,41.5,27.1,41.4,27.1,41.3 M27,39.8l0.3,0.1c0-0.3,0-0.6-0.1-0.8
			l0,0h-0.1l0,0c0-0.3,0-0.6,0-0.8c0-0.1,0-0.2,0-0.3c0-0.1,0-0.1,0-0.2l0,0c0,0,0,0.1,0,0.1v-0.1l0,0l0,0c-0.1,0.3-0.1,0.6-0.1,0.9
			c0-0.1,0-0.2,0.1-0.3c0,0.2,0,0.4,0,0.6c0,0.1,0,0.2,0,0.3l0,0c0,0,0,0,0,0.2S27.1,39.7,27,39.8 M56.1,12.8l0.2-0.3
			c0,0,0-0.1,0-0.1s-0.1-0.1-0.2-0.1c0.1-0.2,0.3-0.3,0.4-0.5h-0.3c0,0-0.1,0-0.1,0c-0.2,0.1-0.4,0.2-0.6,0.2s-0.1,0-0.2-0.1
			c-0.1,0-0.1,0-0.2,0c-0.2,0-0.4,0.1-0.6,0.2h-0.2l0.1-0.1l0.1-0.1c0,0,0-0.1,0-0.1h-0.2l-0.1,0.1c-0.3-0.2-0.7-0.1-0.9,0.2
			c0,0,0,0.1-0.1,0.1c0.1,0,0.2,0,0.3-0.1h0.1l0.1,0.2c0,0.1-0.1,0.1-0.1,0.2c-0.2-0.1-0.4-0.1-0.6,0l-0.1,0.2h0.2h0.3v0.1L53,13
			v0.2h0.1c0.1,0,0.3,0,0.4,0h0.1c0.1,0,0.1,0,0.1,0.1s0,0.2,0.2,0.1s0.2,0,0.3,0s0.1,0,0.3-0.2l0.2-0.1c0,0,0.2,0,0.2-0.1
			c0.1-0.1,0.2-0.2,0.4-0.3C55.7,12.7,55.9,12.7,56.1,12.8 M37.3,22.1L37.3,22.1l0.1-0.3l0,0c-0.2,0-0.1-0.4-0.1-0.4s0-0.2-0.2-0.2
			c0,0,0-0.1,0-0.1c0.1-0.1,0.2-0.3,0.3-0.4c0,0,0.1,0,0.2-0.1c0.1-0.1,0.2-0.2,0.2-0.4h-0.1c-0.1,0-0.1,0.1-0.2,0.1
			c-0.2,0.1-0.2,0.4-0.4,0.5c-0.3,0.4-0.8,0.6-1.1,1c-0.2,0.2-0.3,0.4-0.4,0.6l0.7,0.1c0.1,0,0.1,0,0,0.2c0,0.2,0,0.4,0,0.5
			c0,0,0.1-0.1,0.1-0.1c0,0,0.1-0.1,0.3-0.5C37,22.4,37.1,22.2,37.3,22.1 M35.8,21.2L35.8,21.2v-0.1h-0.1c0-0.1,0-0.1,0-0.2
			c0-0.1,0-0.1,0-0.1h-0.1l-0.1,0.1c0,0,0,0.1,0,0.1c0,0.1-0.1,0.1-0.1,0.2l-0.1,0.4C35.4,21.7,35.4,21.6,35.8,21.2 M63.9,5L63.9,5
			L63.9,5l-0.2-0.1L63,5h-0.1l-0.5,0.1C62.6,5.1,62.8,5,63,5l0.2-0.1c0.1,0,0.3-0.1,0.4-0.1l0,0c-0.3,0-0.5,0.1-0.8,0.1l0.3-0.1h0
			h0.1l0,0H63h-0.2h-0.2c0.1,0,0.3-0.1,0.5-0.1h0.2h0.1h0.3h0.3h0.2h-0.1h0h0.1h-0.1l0,0h0.2h0.2h-0.3l-0.6-0.1h0.1h0.1h-0.3h-0.2
			h-0.2h-0.3H63h-0.2l0,0h-0.1h-0.2h-0.1h-0.2h-0.2h0.2h0.1h0.2h0.1l0,0h0.1h-0.1h-0.2l0,0h-0.1h-0.1H62h0h-0.2h0.2h0.1h0h0.1h0.2
			h-0.2h-0.3h-0.2h-0.3h-0.1h0.1h0.2h0.2h0.4h0.2h-1h-0.1l0,0h-0.1h0.2h0.1l0,0h-0.3h-0.2l-0.5,0.1h0.1h-0.2h-0.3H60h-0.6h-0.2h-0.1
			H59l0,0h0.1l-0.3,0.1h-0.2l-0.4,0.1H58h-0.1h-0.1h-0.1l0,0h-0.1h-0.1h-0.1h-0.1h-0.6c-0.3,0.1-0.5,0.2-0.8,0.2l0,0h-0.1l0,0h-0.1
			l0,0h0.1h0.2l-0.2,0.1h-0.1l0,0h-0.2l0,0h-0.1l0,0l0,0l0,0h-0.2l0,0L54.8,6h0l-0.2,0.1h-0.1h-0.1h0l0,0h0h0h-0.1H54H54l0,0h0l0,0
			H54H54l0.2-0.1l0,0l0,0h0.1l0,0l0,0h0.1h0.1h0.1h0.1h-0.1l0,0h-0.1h0l0,0h-0.1l0,0l0,0l-0.1,0.1l0,0l0,0l-0.1,0.1l-0.4,0.1h-0.1
			l0,0l0,0l0,0l0,0l0,0l0,0l-0.1,0.1h0l-0.1,0.1l0,0h-0.1l0,0l-0.5,0.8l-0.2,0.1l0,0l-0.1,0.1h-0.1l-0.3,0.2l-0.3,0.2l-0.2,0.1h0.1
			c-0.1,0-0.2,0.1-0.2,0.1h-0.1l-0.4,0.2h-0.1l-0.2,0.1l-0.1,0.1l0,0h0.1c0.2-0.1,0.2-0.1,0.3-0.1c-0.3,0.2-0.3,0.2-0.3,0.3l0,0
			c-0.1,0.1-0.1,0.2-0.2,0.2l-0.1,0.1h-0.1h-0.1h-0.1l0.1-0.1l-1.1,0.4c0,0.1,0,0.1-0.1,0.3c0.3-0.1,0.3-0.1,0.4-0.1
			c0.1-0.1,0.2-0.1,0.3-0.2V9.1l0.1,0h0.1v0.1c0,0,0,0,0.1,0l-0.1,0.1h-0.1l-0.3,0.1l-0.1,0.1l-0.1,0.2L49,9.9h-0.2L48.6,10l0,0
			h-0.1c-0.1,0.1-0.3,0.2-0.5,0.3c-0.2,0.1-0.3,0.1-0.5,0.2l-0.1,0.1c-0.9,0.8-0.9,0.8-0.9,0.9l0.2-0.1c0,0,0,0,0,0.1l-0.2,0.1h-0.1
			c-0.6,0.4-0.6,0.4-0.6,0.6c0.2,0,0.3-0.2,0.5-0.2l-0.4,0.3c-0.7,0.4-1.3,1.1-1.5,1.9l0.1,0.1c0,0.1,0,0.1,0,0.2c0,0,0.1,0,0.1,0
			h0.1c0,0,0,0,0.1,0.1c0,0.1-0.1,0.1-0.1,0.2l0.1,0.2c0,0.1,0,0.1,0,0.2c0.2,0,0.4-0.1,0.6-0.2l0.1-0.1c1.2-1.3,1.4-1.4,1.5-1.4H47
			c0.3,0,0.5-0.3,0.7-0.4l0.4-0.4c0.4-0.2,0.7-0.5,1.1-0.8c0.1,0,0.2,0,0.3,0c0.1-0.1,0.1-0.2,0.2-0.2c0.1,0,0.1,0,0.1,0
			c-0.1,0.2-0.1,0.2-0.1,0.3c0.3,0.1,0.5-0.2,0.7-0.3h0.1c0.2,0,0.2,0,0.3-0.1c0.1-0.1,0.4-0.2,0.6-0.3c0.2-0.1,0.1,0,0.4-0.2H52
			l0.1-0.1c0.2-0.1,0.3-0.2,0.5-0.3h0.1l0,0l0,0l0,0c0.1,0,0.1,0,0.2,0v0.1c0.8,0,1.5-0.6,2.2-0.8c0.1,0,0.2,0,0.3,0
			c0.3-0.1,0.3-0.1,0.4-0.2l0,0l-0.2,0.2h-0.2c0,0,0,0-0.1-0.1c-0.1-0.1,0-0.1,0-0.1h-0.1h-0.1V9.4l0.1-0.1c0.1-0.1,0.2-0.1,0.2-0.1
			l0,0c0.2,0,0.3-0.1,0.5-0.1c-0.2,0.2-0.2,0.2-0.2,0.3l0,0.1h0.1c0.2-0.2,0.9-0.2,0.7-0.6c0.2-0.4,0.2-0.4,0.2-0.4h0.1v0.1H57
			c0.1-0.1,0.2-0.1,0.3-0.2l0.1-0.1c0.1,0,0.1-0.1,0.1-0.2c-0.1,0-0.1,0-0.3,0.1h-0.2L57.4,8c0,0,0-0.1,0-0.1h0.1h0.2L57.5,8h0.2
			c0.1,0,0.1-0.1,0.2-0.1c0,0,0,0,0.1,0.1c0.4-0.1,0.4-0.2,0.4-0.3h-0.2c0,0,0,0,0.5-0.1h0.2h0.1c0.1,0,0.1,0,0.2-0.1V7.4
			c0.1-0.1,0.1-0.1,0.3-0.3c0.1,0,0.1,0,0.2,0C59.6,7,59.7,7,59.8,6.9l0.1-0.2h-0.1c0,0,0-0.1,0-0.1l0.1-0.1l0,0
			c0.1,0,0.2-0.1,0.3-0.1c0,0,0,0,0.1,0.1l0,0c-0.1,0.1-0.3,0.1-0.4,0.3H60c0.2-0.1,0.3-0.2,0.5-0.4h0.1c0,0,0,0,0-0.1h-0.1
			c0.1,0,0.2-0.1,0.2-0.1h0.1c0.1,0,0.1-0.1,0.2-0.1c-0.1,0-0.1,0-0.4,0c0.1-0.1,0.2-0.1,0.3-0.2l0.5-0.3h0.1
			c0.1-0.1,0.2-0.1,0.3-0.1h0.1c0.4-0.1,0.7-0.2,1.1-0.3H63h-0.2l0,0h0.3l0.4-0.1h0.1C63.7,5.2,63.8,5.1,63.9,5 M62.2,4.7h0.3h-0.1
			h0.3H63h-0.4h0.3h0.4l-0.5-0.1H63h-0.4H63h0.1h-0.7l0,0h0.3l0,0h-0.3h-0.2h-0.4l0,0l-0.7,0.1h0.3l0,0H62H62H62.2L62.2,4.7h-0.6
			h0.2h-0.4l0,0H61l0,0h-0.3h-0.1h-0.4l-0.7,0.1l0.4,0h0.2h0.1h-0.3h-0.4l-0.4,0.1l0,0l0.4-0.1l0,0h0.3h0.3h0.5h-0.1l-0.6,0.1l0,0
			h-0.3h0h-0.1h-0.2h-0.1L58.8,5l0,0h-0.2l-0.3,0.1h-0.1h-0.1C58.4,5,58.7,4.9,59,4.9H59L58.7,5h-0.3L58,5l-0.5,0.1h-0.2
			c-0.1,0-0.3,0.1-0.4,0.1l-0.4,0.1l0.5-0.1h0.1h-0.1H57h-0.2l-0.3,0.1l-0.2,0.1h-0.1h0.1l-0.3,0.1l-0.4,0.3l0,0L56,5.6l-0.4,0.1
			l-0.3,0.1l0,0l0.5-0.2l-0.9,0.2l-0.3,0.1l-0.5,0.1l-0.2,0.1l0.2-0.1l-0.2,0.1l0.2-0.1L54,6.1h0.1l0,0l-0.4,0.1h0l0.7-0.2L54.8,6
			l-0.2,0L55,5.9h0.1l0.4-0.2L56,5.6l0,0c0.3-0.1,0.5-0.1,0.8-0.2l0,0l0.6-0.2h-0.2H57l0.3-0.1l0.5-0.1l0,0l-0.2,0.1h-0.1L57.9,5
			L58.3,5h0l-0.3,0l0,0h0.2l0.4-0.1h0.1l0,0h0.3h0.2l1-0.1h0.1h0.2h0.3h-0.3l0,0h0.3H61h0.4h0.5 M57.2,5.4l0.5-0.1L58,5.2l0.3-0.1
			h0.3h0.2h-0.2L59.7,5l1-0.3h-0.3l0,0h-0.3l0,0l-0.6,0.1l0,0L59,4.9h-0.2l-0.4,0.1l0,0h-0.2H58h-0.2l0,0h0.1l0,0L57.4,5l0,0h-0.2
			L57,5.1l-0.4,0.1h-0.2h0.1h-0.2l0.2-0.1l0,0l0.3-0.1L57.1,5h-0.2l0.3-0.1h-0.1l0.3-0.1 M54.9,5.4l0.7-0.2h-0.1L55,5.4L54.9,5.4
			 M52.4,6.2L52.4,6.2L52.9,6L53.1,6l0.2-0.1L53,6L52.8,6h-0.1L52.9,6l0,0l0.5-0.1l0.5-0.1l0.4-0.1l0,0l-0.3,0.1l-2.1,0.7l0,0
			l0.3,0.4l-0.4,0.2l0,0h0.1L52,6.8l-0.2,0.1c0.2,0,0.5-0.1,0.7-0.2 M45,10.3l0.4-0.2l0.4-0.2c-0.1,0-0.1,0-0.6,0.3l-0.3,0.2l0,0
			L45,10.3 M42.7,11.6l-0.1,0.1l-0.2,0.1l0.8-0.5h-0.1L42.7,11.6L42.7,11.6z M27.3,47.4V47l-0.1-0.4h-0.1v0L27,46.4v-0.3L27,45.5V45
			c0-0.2,0-0.4,0-0.7v-0.8c0-0.2,0-0.4,0-0.6v-0.7c0,1,0.1,2.3,0.1,3.2l0.1,0.7l0,0v0.2c0,0.2,0.1,0.5,0.1,0.7l0,0l0.1,0.5l0.1,0.2
			L27.3,47.4l0.1-0.3l0.1,0.1v0.3l0,0 M38,19.8l0.2-0.2v-0.2l0.2-0.2l0.3-0.4l-0.2-0.1l0.1-0.2h-0.2l-0.4,0.2l-0.3,0.2l-0.1-0.2
			l0.3-0.3l0.3-0.1l0.4-0.1l0.3-0.2h-0.2v-0.2l-0.1-0.2l0.1-0.3L39,17l0.2-0.2h0.1l0.2-0.2l0.2-0.4l0.3-0.5l0.6-0.8l0.3-0.4
			l-0.6,0.4l-0.4,0.4l-0.3,0.1l-0.4,0.3h-0.1l0.2-0.3l0.1-0.2l-0.2,0.1l0.5-0.4l0.6-0.6l0.3-0.3h-0.1l0.2-0.2l0.3-0.3l0.3-0.4
			l-0.2,0.1h-0.1l0.1-0.1h-0.1l-0.3,0.2l-0.3,0.3l-0.5,0.4l-0.3,0.3l-0.4,0.4l0,0l-0.4,0.4l-0.2,0.2l-0.2,0.2l-0.2,0.3l-0.5,0.5
			l-0.5,0.6l-0.4,0.4l-0.3,0.3l-0.1,0.1L36,18.2l-0.5,0.7l-0.3,0.4l-0.3,0.3l-0.3,0.4l-0.1,0l0.4-0.6l0.4-0.5l0.3-0.4l0.5-0.6
			l0.4-0.5l0-0.1l0,0l0.2-0.2l0.1-0.4c-0.6,0.7-1.4,1.7-2,2.4c-1.2,1.5-2.3,3.2-3.3,4.9c-1,1.7-1.8,3.5-2.5,5.4
			c-0.4,1-0.8,2.5-1.1,3.5l-0.1,0.3l0,0l0.1-0.2v0l-0.1,0.4l-0.1,0.5c0,0.2-0.1,0.4-0.1,0.5l-0.1,0.3l-0.1,0.3v0.3l-0.1,0.4v0.2
			l-0.1,0.4v0.1l0.1-0.3l0.1-0.4l0.1-0.5l0.2-0.8l0.1-0.7c0.1-0.3,0.2-0.6,0.3-1c0-0.2,0.1-0.4,0.2-0.6l0.2-0.7l0.1-0.2l0.2-0.5
			l0.2-0.4l0.1-0.2l0.2-0.4l0.1-0.2l0.2-0.7l0.1-0.3l0.1-0.3L30,28l0.1-0.2L30,28.3l0.2-0.5l0.2-0.4l0.2-0.2l0.4-0.8h0.1l0.2-0.3
			h0.2l0.2-0.4l0.3-0.7l0.4-0.5h0.1l0.2-0.3h0.1l0.3-0.3l0.3-0.4c0.1,0,0.3,0.1,0.4,0.1l-0.2,0.2h-0.2c-0.2,0.2-0.4,0.4-0.5,0.7v0.1
			l0.2-0.3l0.2-0.2l0.2-0.1L34,24l0.2-0.1l0.4-0.4l0.3-0.3l0.2-0.4l-0.3,0.1l-0.5,0.5h-0.2v-0.3l0.1-0.4l0.3-0.7l0.4-0.3l0.3-0.5
			l-0.2-0.1l-0.3,0.2l-0.5,0.4l-0.7,0.7l-0.4,0.4l0.3-0.4l0.3-0.4l0.2-0.2v-0.2h0.2l0.3-0.4l0.3-0.3H35l0.3-0.4l0.2-0.1h0.2h0.4
			l0.2,0.1h0.2l0.4-0.3l0.5-0.4h0.4l0.3-0.1"/>
		<path class="st1" d="M88.2,72.8c-20.1,6.1-41.3-5.3-47.4-25.4c-4.6-15.2,0.7-31.6,13.3-41.2c0,0-29.8,7.1-26.9,42.5
			c0,0,5.4,31.1,39.6,31.8c0,0,13.1-1.7,19.9-6.5"/>
		<path class="st4" d="M19.6,106.3c0.5-9.7,7.2-12.1,13.4-13.9c6.5-1.9,13.1-3.3,19.8-4.4l4.9,2.9l3.6-9.8"/>
		<path class="st4" d="M19.8,107c54.7,22.4,90.7-0.7,90.7-0.7c-0.5-9.7-7.2-12.1-13.4-13.9C90.6,90.5,84,89,77.3,87.9l-5,2.8
			l-3.7-10"/>
		<polygon class="st2" points="62.8,93.9 58.1,116.5 65.9,125.5 73.2,116.7 67.6,93.9 		"/>
		<polygon class="st1" points="59.2,86.9 62.8,93.9 67.6,93.9 70.6,86.7 69.5,83.1 60.5,83.1 		"/>
		<polygon class="st1" points="62.8,93.9 58.1,116.5 65.9,125.5 73.2,116.7 67.6,93.9 		"/>
		<path class="st4" d="M94.6,92.2c0,0-4.6,6.4-0.6,20.6"/>
		<path class="st4" d="M36.1,91.7c0,0,4.6,6.4,0.6,20.5"/>
		<path class="st1" d="M53.2,79.5c2.6,3.2,4,7.1,4.1,11.2l2.2-5l1.7-5L53.2,79.5z"/>
		<path class="st1" d="M76.5,79.4c0,0-5.7,4.6-3.6,10.2l-0.6,1.1l-3.1-8.4c0,0-1.3-1.8,0.9-2L76.5,79.4z"/>
		<path class="st1" d="M32,93.4c0,0-3.2,18.1,20.8,21.9l-10.6-1.2l-20.4-5.9l-2.2-2.9C20.6,99.1,25.6,94.2,32,93.4z"/>
		<circle class="st3" cx="65" cy="42.5" r="38"/>
		<path class="st1" d="M62.1,100.3c0,0-1,18.5,10.2,16.3l-1,2.9l-5.1,5.4l-8-8.4L62.1,100.3z"/>
		<path class="st1" d="M63.4,83.4c0,0-0.2,8,4.9,7.7l-0.8,2.8h-4.8l-3.7-7l1.6-4.3L63.4,83.4z"/>
	</g>
</g>
</svg>
