<?xml version="1.0" encoding="utf-8"?>
<!-- Generator: Adobe Illustrator 20.1.0, SVG Export Plug-In . SVG Version: 6.00 Build 0)  -->
<svg version="1.1" id="Layer_1" xmlns="http://www.w3.org/2000/svg" xmlns:xlink="http://www.w3.org/1999/xlink" x="0px" y="0px"
	 viewBox="0 0 250 200" style="enable-background:new 0 0 250 200;" xml:space="preserve">
<style type="text/css">
	.st0{fill:#0091FF;stroke:#424242;stroke-width:1.68;stroke-linecap:round;stroke-miterlimit:10;}
	.st1{opacity:0.1;fill:#231F20;enable-background:new    ;}
	.st2{fill:none;stroke:#424242;stroke-width:1.68;stroke-linecap:round;stroke-miterlimit:10;}
	.st3{opacity:0.1;fill:#424242;enable-background:new    ;}
	.st4{fill:#FDD835;}
	.st5{opacity:0.1;fill:#FFFFFF;enable-background:new    ;}
</style>
<title>ill_investment</title>
<g>
	<g id="Layer_2">
		<g id="Layer_1-2">
			<path class="st0" d="M80.2,171.1c0.9,2-0.8,3.7-3.8,3.8H29.2c-2.8,0-4.4-1.7-3.8-3.8L36.1,145c1.1-2.7,2.8-3.8,4.8-3.8h24.2
				c2.1,0,3.7,1.4,4.5,3.8L80.2,171.1z"/>
			<path class="st0" d="M136,171.1c0.9,2-0.8,3.7-3.8,3.8H85c-2.7,0-4.4-1.7-3.8-3.8L91.9,145c1.1-2.7,2.8-3.8,4.8-3.8h24.2
				c2.1,0,3.7,1.4,4.5,3.8L136,171.1z"/>
			<path class="st0" d="M191.9,171.1c0.9,2-0.8,3.7-3.8,3.8h-47.2c-2.7,0-4.4-1.7-3.8-3.8l10.7-26.1c1.1-2.7,2.8-3.8,4.8-3.8h24.2
				c2.1,0,3.7,1.4,4.5,3.8L191.9,171.1z"/>
			<path class="st0" d="M108.4,137.4c0.9,2-0.8,3.7-3.8,3.8H57.4c-2.7,0-4.4-1.7-3.8-3.8l10.7-26.1c1.1-2.7,2.8-3.8,4.8-3.8h24.2
				c2.1,0,3.7,1.4,4.5,3.8L108.4,137.4z"/>
			<path class="st0" d="M164.1,137.3c0.9,2-0.8,3.7-3.8,3.8h-47.2c-2.7,0-4.4-1.7-3.8-3.8l10.7-26.1c1.1-2.7,2.8-3.8,4.8-3.8H149
				c2.1,0,3.7,1.4,4.5,3.8L164.1,137.3z"/>
			<path class="st0" d="M136.8,103.4c0.9,2-0.8,3.7-3.8,3.8l-47.2-0.1c-2.7,0-4.4-1.7-3.8-3.8l10.8-26.1c1.1-2.7,2.8-3.8,4.8-3.8
				l24.2,0.1c2.1,0,3.7,1.4,4.5,3.8L136.8,103.4z"/>
			<path class="st0" d="M209.1,175c-0.5,0.5-1.4,0.4-1.8-0.2l-66.8-80c-0.5-0.5-0.4-1.4,0.2-1.8l26.8-10.6c0.6-0.5,1.4-0.4,1.8,0.2
				l55.2,66.1c0.5,0.5,0.4,1.4-0.2,1.8L209.1,175z"/>
			<path class="st1" d="M169.4,82.9c0,0,1.2,42.2,29,81.1l-57.8-69l0.2-1.8l27.9-10.9"/>
			<path class="st2" d="M209.1,175c-0.5,0.5-1.4,0.4-1.8-0.2l-66.8-80c-0.5-0.5-0.4-1.4,0.2-1.8l26.8-10.6c0.6-0.5,1.4-0.4,1.8,0.2
				l55.2,66.1c0.5,0.5,0.4,1.4-0.2,1.8L209.1,175z"/>
			<path class="st1" d="M94.6,75.9c0,0,10.2,28.6,41.6,28.6l-0.9,1.9l-3.9,1.1l-45.6-0.4l-4-2.2l0.9-5.4L94.6,75.9z"/>
			<path class="st2" d="M136.8,103.4c0.9,2-0.8,3.7-3.8,3.8l-47.2-0.1c-2.7,0-4.4-1.7-3.8-3.8l10.8-26.1c1.1-2.7,2.8-3.8,4.8-3.8
				l24.2,0.1c2.1,0,3.7,1.4,4.5,3.8L136.8,103.4z"/>
			<path class="st1" d="M66.2,110c0,0,10.2,28.6,41.6,28.6l-0.9,1.9l-3.9,1.1l-45.6-0.4l-4-2.2l0.9-5.4L66.2,110z"/>
			<path class="st2" d="M108.4,137.4c0.9,2-0.8,3.7-3.8,3.8H57.4c-2.7,0-4.4-1.7-3.8-3.8l10.7-26.1c1.1-2.7,2.8-3.8,4.8-3.8h24.2
				c2.1,0,3.7,1.4,4.5,3.8L108.4,137.4z"/>
			<path class="st1" d="M121.2,110.6c0,0,10.2,28.6,41.6,28.6l-0.9,1.9l-3.9,1.1l-45.6-0.4l-4-2.2l0.9-5.4L121.2,110.6z"/>
			<path class="st1" d="M37.6,144.2c0,0,10.2,28.6,41.6,28.6l-0.9,1.9l-3.9,1.1l-45.6-0.4l-4-2.2l0.9-5.4L37.6,144.2z"/>
			<path class="st2" d="M80.2,171.1c0.9,2-0.8,3.7-3.8,3.8H29.2c-2.8,0-4.4-1.7-3.8-3.8L36.1,145c1.1-2.7,2.8-3.8,4.8-3.8h24.2
				c2.1,0,3.7,1.4,4.5,3.8L80.2,171.1z"/>
			<path class="st2" d="M164.1,137.3c0.9,2-0.8,3.7-3.8,3.8h-47.2c-2.7,0-4.4-1.7-3.8-3.8l10.7-26.1c1.1-2.7,2.8-3.8,4.8-3.8H149
				c2.1,0,3.7,1.4,4.5,3.8L164.1,137.3z"/>
			<path class="st1" d="M93.3,144.2c0,0,10.1,28.6,41.6,28.6l-0.9,1.9l-3.9,1.1l-45.7-0.4l-3.6-3l2.1-4.7L93.3,144.2z"/>
			<path class="st1" d="M149.3,144.1c0,0,10.2,28.6,41.6,28.6l-0.9,1.9l-3.9,1.1l-45.6-0.4l-3.6-3l2.1-4.7L149.3,144.1z"/>
			<path class="st2" d="M191.9,171.1c0.9,2-0.8,3.7-3.8,3.8h-47.2c-2.7,0-4.4-1.7-3.8-3.8l10.7-26.1c1.1-2.7,2.8-3.8,4.8-3.8h24.2
				c2.1,0,3.7,1.4,4.5,3.8L191.9,171.1z"/>
			<path class="st2" d="M136,171.1c0.9,2-0.8,3.7-3.8,3.8H85c-2.7,0-4.4-1.7-3.8-3.8L91.9,145c1.1-2.7,2.8-3.8,4.8-3.8h24.2
				c2.1,0,3.7,1.4,4.5,3.8L136,171.1z"/>
			<path class="st0" d="M176.9,85.2c-0.1,0.7-0.8,1.2-1.5,1l0,0l-101.7-23c-0.7-0.1-1.2-0.8-1-1.5l0,0L87.5,37
				c0.1-0.7,0.8-1.2,1.5-1l0,0l84,19c0.7,0.1,1.2,0.8,1,1.5l0,0L176.9,85.2z"/>
			<path class="st1" d="M89.1,36.1c0,0,26.6,32.8,72.3,46.7L73.6,63.2l-1-1.6L88.1,36"/>
			<path class="st2" d="M176.9,85.2c-0.1,0.7-0.8,1.2-1.5,1l0,0l-101.7-23c-0.7-0.1-1.2-0.8-1-1.5l0,0L87.5,37
				c0.1-0.7,0.8-1.2,1.5-1l0,0l84,19c0.7,0.1,1.2,0.8,1,1.5l0,0L176.9,85.2z"/>
			<path class="st3" d="M176.9,47.3c-1.3-5.7-5.8-10.1-11.5-11.4c5.7-1.3,10.1-5.8,11.4-11.4c1.3,5.7,5.8,10.1,11.5,11.4
				C182.6,37.2,178.2,41.6,176.9,47.3z"/>
			<path class="st3" d="M69.2,101.3c-1.1-4.5-4.6-8-9.1-9.1c4.5-1.1,8-4.6,9.1-9.1c1.1,4.5,4.6,8,9.1,9.1
				C73.8,93.3,70.3,96.8,69.2,101.3z"/>
			<path class="st3" d="M152.9,130.6c-0.7-3.2-3.2-5.7-6.4-6.4c3.2-0.7,5.7-3.2,6.4-6.4c0.7,3.2,3.2,5.7,6.4,6.4
				C156.2,125,153.7,127.5,152.9,130.6z"/>
			<path class="st4" d="M207,78.2c-0.4-1.6-1.7-2.9-3.3-3.3c1.6-0.4,2.9-1.7,3.3-3.3c0.4,1.6,1.7,2.9,3.3,3.3
				C208.7,75.2,207.4,76.5,207,78.2z"/>
			<path class="st3" d="M53.1,50.9c-0.4-1.6-1.7-2.9-3.3-3.3c1.6-0.4,2.9-1.7,3.3-3.3c0.4,1.6,1.6,2.9,3.3,3.3
				C54.8,48,53.5,49.2,53.1,50.9z"/>
			<path class="st4" d="M36.2,101.6c-0.2-1-1-1.8-2.1-2.1c1-0.2,1.8-1,2.1-2.1c0.2,1,1,1.8,2.1,2.1C37.2,99.8,36.4,100.6,36.2,101.6
				z"/>
			<path class="st4" d="M176.9,47.3c-1.3-5.7-5.8-10.1-11.5-11.4c5.7-1.3,10.1-5.8,11.4-11.4c1.3,5.7,5.8,10.1,11.5,11.4
				C182.6,37.2,178.2,41.6,176.9,47.3z"/>
			<path class="st4" d="M69.2,101.3c-1.1-4.5-4.6-8-9.1-9.1c4.5-1.1,8-4.6,9.1-9.1c1.1,4.5,4.6,8,9.1,9.1
				C73.8,93.3,70.3,96.8,69.2,101.3z"/>
			<path class="st5" d="M152.9,130.6c-0.7-3.2-3.2-5.7-6.4-6.4c3.2-0.7,5.7-3.2,6.4-6.4c0.7,3.2,3.2,5.7,6.4,6.4
				C156.2,125,153.7,127.5,152.9,130.6z"/>
			<path class="st5" d="M203.7,74.9c1.6-0.4,2.9-1.7,3.3-3.3"/>
			<path class="st4" d="M53.1,50.9c-0.4-1.6-1.7-2.9-3.3-3.3c1.6-0.4,2.9-1.7,3.3-3.3c0.4,1.6,1.6,2.9,3.3,3.3
				C54.8,48,53.5,49.2,53.1,50.9z"/>
			<path class="st5" d="M36.2,101.6c-0.2-1-1-1.8-2.1-2.1"/>
			<path class="st5" d="M130.6,10.5c-0.4-1.6-1.7-2.9-3.3-3.3c1.6-0.4,2.9-1.7,3.3-3.3c0.4,1.6,1.7,2.9,3.3,3.3
				C132.2,7.6,131,8.9,130.6,10.5z"/>
			<path class="st4" d="M130.6,10.5c-0.4-1.6-1.7-2.9-3.3-3.3c1.6-0.4,2.9-1.7,3.3-3.3c0.4,1.6,1.7,2.9,3.3,3.3
				C132.2,7.6,131,8.9,130.6,10.5z"/>
		</g>
	</g>
</g>
</svg>
