<?xml version="1.0" encoding="UTF-8"?>
<svg width="22px" height="22px" viewBox="0 0 22 22" version="1.1" xmlns="http://www.w3.org/2000/svg" xmlns:xlink="http://www.w3.org/1999/xlink">
    <defs>
        <polygon id="path-1" points="0.000176 21.6817496 21.746736 21.6817496 21.746736 0.113178733 0.000176 0.113178733"></polygon>
    </defs>
    <g id="Designs" stroke="none" stroke-width="1" fill="none" fill-rule="evenodd">
        <g id="Luno-home-web-02a" transform="translate(-232.000000, -5141.000000)">
            <g id="//-Footer" transform="translate(0.000000, 4999.000000)">
          
                    <g transform="translate(113.000000, 142.000000)">
                        <g id="Page-1" transform="translate(119.000000, 0.000000)">
                            <g id="linkedin" transform="translate(0.000000, 0.320586)">
                                <mask id="mask-2" fill="white">
                                    <use xlink:href="#path-1"></use>
                                </mask>
                                <g id="Clip-4"></g>
                                <path d="M18.435736,18.1681787 L15.151576,18.1681787 L15.151576,12.957187 C15.151576,11.6484766 14.676376,10.7551885 13.487496,10.7551885 C12.580216,10.7551885 12.039896,11.3575075 11.801856,11.9394457 C11.715176,12.1475905 11.694056,12.4381259 11.694056,12.729095 L11.694056,18.1681787 L8.409456,18.1681787 C8.409456,18.1681787 8.452576,9.34240573 8.409456,8.42917044 L11.694056,8.42917044 L11.694056,9.80769608 C12.130536,9.14466817 12.911096,8.19934389 14.654816,8.19934389 C16.815656,8.19934389 18.435736,9.59174585 18.435736,12.5838273 L18.435736,18.1681787 Z M4.949736,7.09921192 L4.927736,7.09921192 C3.825536,7.09921192 3.113176,6.35119155 3.113176,5.41627451 C3.113176,4.46141026 3.847976,3.73377074 4.970856,3.73377074 C6.094616,3.73377074 6.786296,4.46141026 6.808296,5.41627451 C6.808296,6.35119155 6.094616,7.09921192 4.949736,7.09921192 L4.949736,7.09921192 Z M3.307216,18.1681787 L6.591816,18.1681787 L6.591816,8.42917044 L3.307216,8.42917044 L3.307216,18.1681787 Z M20.139416,0.112918552 L1.606616,0.112918552 C0.719576,0.112918552 0.000176,0.805 0.000176,1.65839367 L0.000176,20.136448 C0.000176,20.9889744 0.719576,21.6819231 1.606616,21.6819231 L20.139416,21.6819231 C21.027336,21.6819231 21.746736,20.9889744 21.746736,20.136448 L21.746736,1.65839367 C21.746736,0.805 21.027336,0.112918552 20.139416,0.112918552 L20.139416,0.112918552 Z" id="Fill-3" fill="#BDBDBD" mask="url(#mask-2)"></path>
                            </g>
                        </g>
                    </g>

            </g>
        </g>
    </g>
</svg>
