<?xml version="1.0" encoding="utf-8"?>
<!-- Generator: Adobe Illustrator 20.1.0, SVG Export Plug-In . SVG Version: 6.00 Build 0)  -->
<svg version="1.1" id="Layer_1" xmlns="http://www.w3.org/2000/svg" xmlns:xlink="http://www.w3.org/1999/xlink" x="0px" y="0px"
	 viewBox="0 0 250 200" style="enable-background:new 0 0 250 200;" xml:space="preserve">
<style type="text/css">
	.st0{fill:#FFFFFF;stroke:#424242;stroke-width:1.77;stroke-linecap:square;stroke-miterlimit:10;}
	.st1{fill:none;stroke:#424242;stroke-width:1.77;stroke-linecap:round;stroke-miterlimit:10;}
	.st2{fill:none;stroke:#424242;stroke-width:1.77;stroke-linecap:square;stroke-miterlimit:10;}
	.st3{fill:#FDCE07;}
	.st4{fill:#00BCD4;}
	.st5{fill:#0091FF;stroke:#424242;stroke-width:0.93;stroke-linecap:square;stroke-miterlimit:10;}
	.st6{fill:#4787C6;}
	.st7{opacity:0.1;fill:#231F20;enable-background:new    ;}
	.st8{opacity:0.5;fill:#00BCD4;enable-background:new    ;}
	.st9{fill:#FFFFFF;}
	.st10{fill:none;stroke:#424242;stroke-width:2.35;stroke-linecap:square;stroke-miterlimit:10;}
	.st11{fill:#FFFFFF;stroke:#424242;stroke-width:1.7;stroke-linecap:square;stroke-miterlimit:10;}
	.st12{opacity:0.1;}
	.st13{fill:#231F20;}
	.st14{fill:none;stroke:#424242;stroke-width:1.7;stroke-linecap:square;stroke-miterlimit:10;}
	.st15{fill:none;stroke:#FDCE07;stroke-width:1.66;stroke-miterlimit:10;}
	.st16{fill:none;stroke:#FDCE07;stroke-width:1.66;stroke-miterlimit:10;stroke-dasharray:3.2,3.2;}
	.st17{fill:none;stroke:#FDCE07;stroke-width:1.66;stroke-miterlimit:10;stroke-dasharray:3.32;}
	.st18{fill:none;stroke:#FDCE07;stroke-width:1.66;stroke-miterlimit:10;stroke-dasharray:3.33,3.33;}
	.st19{fill:none;stroke:#FDCE07;stroke-width:2.08;stroke-miterlimit:10;stroke-dasharray:4.15;}
	.st20{fill:none;stroke:#FDCE07;stroke-width:1.66;stroke-miterlimit:10;stroke-dasharray:3.39,3.39;}
</style>
<title>ill_move_money</title>
<g>
	<g id="Layer_2">
		<g id="Layer_1-2">
			<path class="st0" d="M191.6,54.2c1.1,2.2-8.2,9.2-20.9,15.5s-23.8,9.7-24.9,7.4c-1.1-2.2,8.2-9.2,20.9-15.5
				S190.6,51.9,191.6,54.2z"/>
			<path class="st1" d="M146.1,77.4l4.9,9.7c1.1,2.2,12.3-1.1,24.9-7.4c12.6-6.3,22-13.3,20.9-15.5l-5-10"/>
			<path class="st2" d="M191.6,54.2c1.1,2.2-8.2,9.2-20.9,15.5s-23.8,9.7-24.9,7.4c-1.1-2.2,8.2-9.2,20.9-15.5
				S190.6,51.9,191.6,54.2z"/>
			<path class="st3" d="M159.3,74.6c0,0-12.9,0.5,18.3-16.6l3.5-2.5c0,0-34.3,13.8-35.1,20.6c-0.8,6.8-0.1,1-0.1,1
				S149.8,79.7,159.3,74.6z"/>
			<path class="st4" d="M191.1,55.8c0,0-13.6,13.7-44.1,22.8l4.5,9.5c0,0,29.2-6.4,45.6-23.6l-5.3-9.9L191.1,55.8z"/>
			<path class="st5" d="M162.2,84.7c0,0,24.8-12.3,18.9-19.8l1.9-1.7l3.4-2.3c0,0,2.8-2.4,2.9-2.6c0.2-0.2,2.7-2.6,2.7-2.6l3.7,6.5
				l0.9,2.5l-1.3,2.3l-9.1,7l-16.6,9L162.2,84.7z"/>
			<path class="st6" d="M165.9,69.8c2.4-1.2,3.5-2.6,3.8-3.2c1.6-0.1,3.2-0.5,4.6-1.3c2.6-1.3,4.3-3,4.1-4l2.9-1.5l-0.5-0.9
				l-2.9,1.5l-0.5-1c0-0.1-0.3,0-0.6,0.1l-17.4,9c-0.3,0.1-0.5,0.3-0.4,0.4l0.5,1l-2.6,1.4l0.5,0.9l2.7-1.4
				C160.6,71.7,163.1,71.3,165.9,69.8z M174.8,61.8l0.4,0.8c0.2,0.4-0.6,1.1-1.9,1.8c-1.3,0.7-2.5,0.9-2.7,0.5l-0.4-0.8L174.8,61.8z
				 M163.1,69.1l-0.5-0.9l4.7-2.4l0.4,0.8c0.2,0.4-0.6,1.3-1.9,2S163.2,69.4,163.1,69.1z"/>
			<path class="st2" d="M191.6,54.2c1.1,2.2-8.2,9.2-20.9,15.5s-23.8,9.7-24.9,7.4c-1.1-2.2,8.2-9.2,20.9-15.5
				S190.6,51.9,191.6,54.2z"/>
			<path class="st2" d="M146.1,77.4l4.9,9.7c1.1,2.2,12.3-1.1,24.9-7.4c12.6-6.3,22-13.3,20.9-15.5l-4-8"/>
			<path class="st0" d="M90.2,77.9c-1.2,2.2-12.3-1.3-24.8-7.8S43.6,56.5,44.8,54.3s12.2,1.3,24.8,7.8
				C82.1,68.6,91.3,75.7,90.2,77.9z"/>
			<path class="st1" d="M44.6,54.5l-5,9.6c-1.2,2.2,8.1,9.3,20.6,15.8s23.6,10,24.8,7.8l5.2-9.9"/>
			<path class="st2" d="M90.2,77.9c-1.2,2.2-12.3-1.3-24.8-7.8S43.6,56.5,44.8,54.3s12.2,1.3,24.8,7.8
				C82.1,68.6,91.3,75.7,90.2,77.9z"/>
			<path class="st7" d="M54.7,63.6c0,0-8-10.1,24.2,5.2l4.1,1.3c0,0-31.2-19.8-37.3-16.4c-6.1,3.3-0.9,0.5-0.9,0.5
				S45,58.9,54.7,63.6z"/>
			<path class="st5" d="M88.5,78.3c0,0-19.1-3-44.3-22.4l-5.1,9.2c0,0,22.3,19.9,45.8,23.1l4.9-10.1L88.5,78.3z"/>
			<path class="st8" d="M45,55.8c0,0-0.9,14.3,25.9,29.3l-12.3-5.8l-10.4-6l-8.6-7.4l-0.2-2.1l2.2-2.9L45,55.8z"/>
			<path class="st6" d="M62.4,66.2c2.4,1.2,4.2,1.4,4.8,1.2c1,1.3,2.3,2.3,3.8,3c2.6,1.3,4.9,1.7,5.6,1l2.9,1.5L80,72l-2.9-1.5
				l0.5-1c0-0.1-0.2-0.3-0.4-0.4l-17.4-8.9c-0.3-0.1-0.5-0.2-0.6-0.1l-0.5,1l-2.6-1.3l-0.5,0.9l2.7,1.4
				C57.8,62.9,59.5,64.7,62.4,66.2z M74,68.7l-0.4,0.8c-0.2,0.4-1.3,0.2-2.6-0.5s-2.2-1.5-2-1.9l0.4-0.8L74,68.7z M61.3,63.4
				l0.5-0.9l4.7,2.4l-0.4,0.8c-0.2,0.4-1.4,0.3-2.7-0.4C62.1,64.7,61.1,63.8,61.3,63.4z"/>
			<path class="st2" d="M90.2,77.9c-1.2,2.2-12.3-1.3-24.8-7.8S43.6,56.5,44.8,54.3s12.2,1.3,24.8,7.8
				C82.1,68.6,91.3,75.7,90.2,77.9z"/>
			<path class="st1" d="M44.6,54.5l-5,9.6c-1.2,2.2,8.1,9.3,20.6,15.8s23.6,10,24.8,7.8l4.8-9.2"/>
			<circle class="st5" cx="124.1" cy="100" r="69.4"/>
			<path class="st9" d="M187.8,71.5l-0.7-1.6L187.8,71.5L187.8,71.5 M187.1,69.9c-0.6-1.3-1.6-2.9-2.3-4.3l-0.1-0.2
				C185.6,66.9,186.3,68.4,187.1,69.9L187.1,69.9 M184.6,65.4L184.6,65.4l0.1,0.2L184.6,65.4 M193.8,96.6c0-0.2,0-0.4,0-0.7
				C193.8,96.1,193.8,96.4,193.8,96.6L193.8,96.6 M193.8,95.8c0-0.3,0-0.6-0.1-0.8c0,0.3,0.1,0.7,0.1,1
				C193.8,95.9,193.8,95.8,193.8,95.8 M193.3,91.8l-0.1-1c0,0.4,0.1,0.9,0.1,1.4C193.4,92.1,193.4,92,193.3,91.8 M112.1,31.5
				L112.1,31.5l0.7-0.1l0,0L112.1,31.5 M111.6,31.5l-0.5,0.1h0.2L111.6,31.5 M102.6,33.8L102.6,33.8L102.6,33.8 M104.1,33.4l0.4-0.1
				l0,0h-0.1h-0.1L104.1,33.4L104.1,33.4 M104.6,33.2L104.6,33.2l-0.2,0.1l-0.4,0.1L104.6,33.2 M104.2,33.3h0.2l0.3-0.1L104.2,33.3
				L104.2,33.3L104.2,33.3 M104.8,33.2l0.6-0.2l0,0l0.3-0.1h-0.1L104.8,33.2l-0.4,0.1L104.8,33.2 M106.4,32.7L106.4,32.7l0.4-0.1
				l0.5-0.1h-0.1l-0.6,0.1L106.4,32.7L106.4,32.7 M107.8,32.2L107.8,32.2l0.5-0.1h0.2l-0.4,0.1H108H107.8L107.8,32.2 M109.1,32.1
				h0.2L110,32l0,0l-0.3,0.1H109.1L109.1,32.1l-0.4,0.1L109.1,32.1 M109.9,31.9L109.9,31.9 M112.1,31.5l0.8-0.1h0.3l-0.7,0.1l0,0
				l-0.6,0.1L112.1,31.5 M113.2,31.4L113.2,31.4 M109.4,32.1L109.4,32.1L109.4,32.1 M109.4,32.1l0.3-0.1l0.4-0.1l0.4-0.1h-0.1
				l0.5-0.1l0.5-0.1h-0.1l0,0l-1.4,0.4L109.4,32.1L109.4,32.1 M54.4,106.6v-0.2v0.3V106.6 M54.4,106.3c0-0.2,0-0.3,0-0.5v0.1v0.5
				V106.3 M54.2,102.4c0,0.3,0,0.6,0,0.9c0,0.8,0,1.3,0.1,1.9v0.1C54.2,104.4,54.2,103.4,54.2,102.4 M58.3,76.1
				c0.2-0.6,0.5-1.3,0.8-2c-0.2,0.4-0.3,0.9-0.5,1.3L58.3,76.1L58.3,76.1 M60.3,71.3c0,0.1-0.1,0.2-0.1,0.3
				c-0.4,0.9-0.7,1.7-1.1,2.5c-0.3,0.8-0.6,1.4-0.8,2C58.9,74.5,59.6,72.9,60.3,71.3 M60.4,71.3L60.4,71.3l-0.1,0.2v0.1
				C60.3,71.6,60.4,71.5,60.4,71.3 M62.9,66.2l0.2-0.4L62.9,66.2L62.9,66.2L62.9,66.2 M62.9,66.3l0.2-0.4L62.9,66.3
				c1-1.7,1.4-2.5,2.3-3.8c-0.7,1.2-1.4,2.3-2,3.4L62.9,66.3L62.9,66.3 M79.4,46.8l0.3-0.3l0.6-0.5l0,0l-0.4,0.3L79.1,47h0.1
				L79.4,46.8 M80.4,45.8L80.4,45.8l0.3-0.3c-0.4,0.2-0.7,0.5-1.1,0.8C79.8,46.4,80.1,46,80.4,45.8 M97.2,36l0.4-0.1l0.8-0.4v-0.1
				h-0.1l-0.9,0.4l-0.7,0.3v0.1L97.2,36 M184.3,114.6c0-0.2,0-0.3,0-0.5s0-0.1,0-0.2s0-0.2,0-0.2c0-0.4-0.1-0.8-0.2-1.1
				c0-0.1,0-0.1,0-0.7l-0.1-0.1l-0.1,0.1l-0.1,0.3c0,0.2-0.1,0.4-0.1,0.6c0,0.1,0,0.1,0,0.2v0.1c0,0.1,0,0.3,0,0.4
				c-0.1,0.2-0.2,0.4-0.2,0.6c-0.1,0.4-0.1,0.7-0.1,1.1c0,0.2,0.1,0.4,0.3,0.5c0.1,0,0.1,0,0.5,0C184.1,115.3,184.2,115,184.3,114.6
				 M187.3,129.9l0.6-1.3c0,0,0.1-0.3,0.1-0.4c-0.2,0.1-0.3,0.2-0.5,0.3l-0.1,0.3h0.1c-0.1,0.1-0.1,0.3-0.2,0.5h0.1
				c0,0.1,0,0.1-0.1,0.4C187.4,129.7,187.4,129.8,187.3,129.9L187.3,129.9c0.1-0.1,0.1-0.2,0.1-0.2c0-0.1,0.1-0.1,0.1-0.1
				S187.3,129.7,187.3,129.9L187.3,129.9L187.3,129.9c0,0.1-0.1,0.2-0.2,0.4l0,0l0,0C187.2,130.2,187.2,130,187.3,129.9
				 M187.6,127.7l0.1-0.2l0.1-0.2c0-0.1,0.1-0.1,0.1-0.2c0-0.1-0.1,0.1-0.1,0.2c0,0.1-0.1,0.2-0.1,0.2L187.6,127.7 M190.6,122l1.2-4
				c-0.1,0.3-0.1,0.5-0.2,0.8c-0.1,0.4-0.2,0.8-0.3,1.2c0,0.1,0,0.1-0.1,0.1c0-0.1,0-0.3,0.1-0.4v-0.1l0,0c-0.5,1.2-0.7,2.4-1.1,3.6
				v0.1c0,0.1-0.1,0.1-0.1,0.2c-0.2,0.4-0.3,0.8-0.4,1.2c-0.2,0.4-0.2,0.5-0.2,0.5l0,0L190.6,122 M188.1,125.5l0.3-0.9
				c0-0.1,0-0.1,0-0.2c0-0.1,0-0.1,0-0.2h-0.1c0-0.2,0.1-0.4,0.1-0.6c0.3-1,0.3-1,0.3-1.1c-0.3,0.7-0.5,1.5-0.6,2.2
				c0,0.1,0,0.1,0,0.3S188.1,125.4,188.1,125.5L188.1,125.5 M188.8,120.7c0-0.1,0-0.1,0-0.2C188.8,120.6,188.8,120.7,188.8,120.7
				L188.8,120.7 M144.4,33.6c-0.5-0.1-0.6-0.2-0.6-0.2l0,0h-0.1l0,0h0.2c0.1,0,0.2,0.1,0.3,0.1l0,0L144.4,33.6h0.2l0,0H144.4
				 M146.3,34.4c-0.1,0-0.7-0.3-0.8-0.3l0,0c0.1,0,0.2,0.1,0.4,0.2l0.3,0.1h-0.1C146.2,34.4,146.3,34.5,146.3,34.4L146.3,34.4
				 M143.2,33.2l-0.3-0.1l-0.3-0.1l0,0c-0.3-0.1-0.7-0.2-1-0.3l0.4,0.1l0,0c-0.4-0.1-0.8-0.2-1.1-0.3l0,0c0.4,0.1,0.9,0.2,1.3,0.4
				l0,0l2.5,0.8c-0.3-0.1-0.5-0.2-0.8-0.3h0.1l0,0l-0.2-0.1l0,0l-0.2-0.1h0.1L143.2,33.2 M140.3,32.5l-1-0.2c0.2,0,0.3,0.1,0.5,0.1
				l-0.4-0.1c-0.1,0-0.2-0.1-0.3-0.1l0,0c0.2,0,0.3,0.1,0.5,0.1l0,0c0.1,0,0.2,0.1,0.4,0.1l0,0L140.3,32.5h0.3
				c0.3,0.1,0.3,0.1,1.1,0.3h0.1c0.2,0,0.4,0.1,0.6,0.2l0,0h0.1l-0.4-0.1l-0.5-0.1C141.2,32.7,140.8,32.6,140.3,32.5 M137.6,31.8
				h-0.1h-0.1l-0.9-0.2c0.2,0,0.5,0.1,0.7,0.2l0,0c0.3,0.1,0.6,0.1,0.9,0.2l0,0c0.2,0.1,0.5,0.1,0.7,0.2h-0.1l0,0l0.4,0.1
				c0.3,0.1,0.3,0.1,0.3,0.1c-0.1,0-0.2-0.1-0.3-0.1l0,0c-0.1,0-0.2,0-0.3-0.1l0,0c-0.2-0.1-0.3-0.1-0.5-0.1l-0.4-0.1l0,0
				L137.6,31.8 M140.1,32.6h-0.2l-0.2-0.1h-0.2l0,0l-0.4-0.1H139h0.1l0,0c0.2,0.1,0.5,0.1,0.8,0.2l0,0l0.3,0.1h0.2L140.1,32.6
				 M136.6,31.8l-0.6-0.1h0.1h-0.2h0.2L136.6,31.8c0.1,0,0.2,0,0.4,0l0,0H136.6 M145.4,41.7c-0.1-0.1-0.1-0.1-0.3-0.2
				c0,0-0.1,0-0.1-0.1c-0.1-0.1-0.1-0.1-0.2-0.2h-0.6l0.1,0.1l0.1,0.1l0.5,0.6h0.3c0.1,0,0.1,0,0-0.1s0-0.1,0-0.1h0.1L145.4,41.7
				L145.4,41.7L145.4,41.7 M142.8,34.8c-0.3-0.1-0.6-0.2-0.9-0.3l0,0h-0.1h-0.1c0.1,0.1,0.3,0.2,0.4,0.3l0,0c-0.1,0-0.1,0-0.1,0
				l0.1,0.1h-0.2V35l0,0h-0.4h-0.1l0,0h-0.1l0,0c0,0,0,0,0.3,0.3h-0.4c0,0,0,0,0.2,0.2l0,0h-0.1c0,0.1,0,0.1,0.5,0.4
				c-0.1,0-0.3,0-0.4,0c0.2,0.1,0.4,0.3,0.6,0.5l0.1,0.1l0.3,0.2c-0.1,0-0.2,0-0.3,0s-0.1,0.1,0,0.2s0.3,0.4,0.4,0.1
				c0.1,0,0.1,0,0.3,0.2h0.1l0.2,0.1c-0.1,0-0.3,0-0.4,0l0.4,0.3c-0.2,0-0.3,0-0.3,0.1s0.3,0.2,0.4,0.3c0.1,0.1,0,0,0.2,0.3
				c-0.2,0-0.2,0-0.2,0s0,0,0.2,0.2l0,0c0.2,0.2,0.3,0.4,0.5,0.6h0.3L144,39c0,0,0-0.1,0.1,0s0.2,0.2,0.3,0.2c0-0.1,0-0.1-0.1-0.2
				c0.3,0.1,0.6,0.2,0.9,0.4l0.1,0.3l0.1,0.1l0.2,0.1h0.5c0.3,0.1,0.6,0.1,0.9,0.2h0.2c0,0,0,0,0.1,0l-0.3-0.2l-1.6-0.5
				c-0.2-0.2-0.5-0.3-0.7-0.5l-0.1-0.1c0,0,0-0.1-0.3-0.3c-0.1,0-0.1-0.1-0.2-0.2l0,0c0-0.1-0.1-0.1-0.1-0.2l-0.1-0.1l0,0l0,0
				l-0.1-0.1l0,0c0-0.1,0-0.1-0.2-0.3c0-0.1-0.1-0.1-0.1-0.2h0.1c-0.1-0.2-0.4-0.4-0.6-0.6h0.2c-0.1-0.1-0.1-0.1-0.1-0.1h0.1v-0.1
				l-0.1-0.1h0.1c-0.1-0.2-0.3-0.3-0.5-0.4c0.1,0,0.2,0,0.3,0s-0.1-0.1-0.2-0.2l0,0v-0.3h0.3c0-0.1-0.1-0.1-0.1-0.1h0.2v-0.2h0.2
				c-0.1-0.1-0.3-0.2-0.4-0.3l0,0h0.1l-0.2-0.1 M148.6,37.7c-0.2-0.1-0.4-0.2-0.6-0.2l0,0l0.1,0.1l0.3,0.3l0.2,0.1h0.1h0.1l0,0h0.2
				C148.8,37.9,148.6,37.8,148.6,37.7 M134.3,32L134.3,32l-0.3-0.1h-0.1l0.2,0.1H134c0.1,0,0.1,0,0.2,0.1h-0.1c0,0,0.8,0.2,0.9,0.2
				l0,0c-0.1-0.1-0.2-0.1-0.3-0.1h-0.1L134.3,32 M134.8,32.4c-0.1,0-0.1-0.1-0.2-0.1l-0.2-0.1l-0.7-0.2h-0.1h-0.1h0.1
				c0.1,0,0.2,0.1,0.3,0.1h-0.1c0.1,0,0.2,0.1,0.3,0.1l0,0l0.3,0.1C134.6,32.3,134.6,32.4,134.8,32.4L134.8,32.4h-0.2H134.8
				C134.8,32.5,134.8,32.5,134.8,32.4L134.8,32.4 M135.3,32.7l-0.2-0.1l0,0l0,0l0,0L135.3,32.7h0.1l0,0l0,0H135.3 M134.8,32.6h-0.2
				l-0.2-0.1h-0.2l0.1,0.1c0.1,0,0.1,0,0.1,0.1l0.3,0.1h0.2c-0.1,0-0.2-0.1-0.3-0.1c0.2,0.1,0.3,0.1,0.5,0.2l0,0l0,0L134.8,32.6
				L134.8,32.6 M133.8,32.3l-0.2-0.1l-0.2-0.1l0,0c0,0,0,0-0.6-0.2h-0.2l0,0l0,0l0,0l0,0c0.2,0.1,0.4,0.1,0.6,0.2h-0.3
				c0.1,0,0.2,0.1,0.3,0.1l0,0c0.1,0,0.1,0,0.2,0.1l0.2,0.1h-0.1l0,0l0,0l0.1,0.1l0.1,0.1h0.1l0,0c-0.1-0.1-0.2,0-0.3-0.1h0.1h-0.1
				h0.1h-0.1h0.1c0,0,0,0-0.1,0h-0.1c0.1,0,0.2,0.1,0.3,0.1h0.1l-0.6-0.2h0.2c0.3,0.1,0.3,0.1,0.4,0.1V32.3 M127.4,33.1L127.4,33.1
				L127.4,33.1L127.4,33.1 M168.4,92c-0.2-2.4-0.4-4.7-0.8-7l-8.7-0.1c-4,0-8.2-0.1-12.5-0.2c-0.1,0.5-0.2,0.9-0.5,1.3l-0.1,0.1
				l-0.1,0.1h-0.1c-0.2,0-0.4,0-0.6,0.1h-0.1h-0.1l-0.1,0.1l-0.1,0.1c-0.1,0-0.2-0.1-0.3-0.1c-0.1-0.1-0.1-0.1-0.2-0.2h-0.2
				c-0.3,0-0.6-0.1-0.9-0.2h-0.2l-0.1,0.1c0.3,0.2,0.7,0.3,1.1,0.4c0.1,0.1,0.1,0.2,0.1,0.2v0.1c0.1,0.1,0.2,0.2,0.2,0.3
				s0,0.2,0,0.3v0.1v0.1c0,0.6,0.5,1,0.8,1.6s0.4,0.6,0.7,0.8c0.1,0,0.2,0,0.3,0c0.4,0,0.4-0.4,0.6-0.6l0.1,0.2
				c0.3,0.5,0.9,0.9,1.2,1.4l1,2.1c0,0.1,0,0.2,0,0.2c-0.1,0.3-0.1,0.7,0.1,1c0.2,0.3,0.7,0.2,0.9,0.4c0.1,0.1,1.1,2,1.1,2
				c0.3,0.7-0.5,1.8,0.5,2.2c0.6,0.4,1.1,1,1.4,1.7c0.1,0.5,0.2,0.5,0.4,0.7c0.5,0.4,0.5,0.4,1.8,3.7c0,0.8-0.1,1.4-0.1,2.1
				c0.2,0.7,0.9,1.2,1.7,1c0.2,0,0.3-0.1,0.5-0.2c0.7-0.9,0.7-0.9,1-0.9h1.2h0.1c0.1,0.1,0.1,0.1,0.2,0.2h0.1l0.3-0.5
				c0.7-1.2,2.3-0.7,3.1-1.6c0.2-0.3,0.2-0.3,0.9-0.2l0.1-0.1c0-0.6,0-0.6,0.2-0.8c0.2,0,0.2,0,0.6-0.3c0.2-0.2,0.2-0.2,1.9-0.1
				c0-0.4,0.1-0.9,0.3-1.3c0.3-0.1,0.7-0.1,1-0.1c0.1-0.4,0.2-0.7,0.4-1.1c0.1-2.2,0.1-4.3,0-6.4l-0.1,0.1c-0.2-0.2-0.1-0.5-0.2-0.7
				c-0.1-0.1-0.1-0.1-0.3-0.3c0-0.4-0.1-0.8-0.1-1.2c-0.1-0.1-0.1-0.2-0.2-0.3c-0.6,0.2-0.6,0.2-0.7,2c-0.2,0-0.5,0-0.7,0h-0.3
				c-0.2-0.1-0.3-0.2-0.5-0.2H165c-0.3,0.2-0.5,0.5-0.7,0.8c-0.5-0.1-0.9-0.6-0.9-1.1l0.2-0.1c0.1-0.1,0.2-0.2,0.4-0.2h0.2
				c1.1,0.6,1.1-0.2,1.1-0.2l-0.1-0.1c-0.1,0-0.2-0.1-0.3-0.1h-0.3h-0.3c-0.5-0.2-1.1-0.2-1.6-0.3c-0.1,0-0.2,0-0.3,0
				c0-0.4,0-0.8-0.1-1.2c-0.2-0.3-0.2-0.3-1.5-0.8c-0.3-1-0.9-1.9-0.8-3c0.1-0.8,1.2-0.3,1.2-0.3s0.1,0,0.8,0.8
				c0.4,0.4,0.6,0.8,0.8,1.2c0.2,0.5,0.8,0.6,1.1,0.9c0.6,0.7,0.7,0.8,2.2,1h0.4c0.2-0.1,0.4-0.1,0.6-0.2c0.1,0,0.2-0.1,0.3-0.1
				c0.3,0,0.3,0,0.7,0.4l0,0 M181.6,60.9c-1.8-2.5-4.4-5.7-6.4-8c0.4,0.5-6,0.7-18.1,0.7c5.4,9.7,8.9,20.3,10.3,31.3
				c16,0.1,24.7-0.2,24.5-0.9l-1-3.7c-2.3-7-2.3-7.1-3.9-10.3c-3.1-5.9-3.6-6.8-5.4-9.3 M131.8,52.9h0.9c-0.1,0-0.1,0-0.2,0h-0.1
				c-0.1,0-0.1-0.1-0.2-0.1v-0.2h-0.1c-0.1,0-0.2,0-0.2,0h-0.1h-0.1v0.2L131.8,52.9 M132.1,40.4c0-0.2-0.1-0.4-0.2-0.5l0,0h-0.1
				h-0.2V40l0,0c0,0.1,0.1,0.2,0.1,0.3L132.1,40.4 M157.1,53.3c-2.3-4-5-7.7-8.1-11c0,0.1,0,0.2,0,0.2c-0.1,0-0.1,0-0.2,0
				c-0.1,0-0.2,0-0.2,0h-0.2c0,0.1,0.1,0.3,0.2,0.3h-0.3c-0.3-0.2-0.3-0.2-0.9-0.9l-0.1,0.2h-0.2l-0.1,0.2c-0.1,0.1-0.1,0.1-0.2,0.1
				h-0.2l-0.1,0.2c-0.1,0-0.2,0.1-0.3,0.1c-0.3,0.1-0.3,0.1-0.4,0.4c-0.1,0-0.2,0.1-0.4,0.1l-0.1,0.2c0.2,0.1,0.3,0.3,0.4,0.4
				c-0.1,0.2-0.1,0.2-0.6,0.4H145c-1-0.8-1-0.8-1.1-0.9c0.2,0,0.4,0,0.6,0l-0.3-0.4c-0.1-0.1-0.2-0.1-0.3-0.2
				c-0.2-0.1-0.3-0.3-0.5-0.4h-0.2h-0.1c-0.2-0.1-0.4-0.2-0.6-0.2h-0.2c-0.1,0.1-0.1,0.2,0,0.3h0.2c0.3,0.2,0.5,0.5,0.7,0.8
				c0,0.2-0.1,0.3,0.3,0.5c0.2,0.1,0.4,0.2,0.5,0.3l0.1,0.1c0.1,0.2,0.2,0.5,0.3,0.7c-0.4,0-0.4,0-0.6-0.1l-0.1-0.1c0,0,0,0-0.9,0
				c0,0.1,0,0.3-0.1,0.4c-0.5,0.2-0.5,0.2-0.6,0.4h-0.2l0,0c0.2,0.4,0.8,0.6,0.9,1l0,0c-0.3,0-0.5,0-0.8-0.1h-0.2
				c-0.5-0.1-1-0.3-1.4-0.7c-0.1,0.1-0.2,0.2-0.3,0.2c0,0.2,0,0.4,0.5,0.5l0.1,0.2c0.1,0.1,0.2,0.1,0.2,0.1c0.3-0.1,0.4,0,0.8,0.3
				c0,0.1,0,0.1,0,0.2c-0.2,0-0.5,0-0.7,0l-0.1,0.2l-1.7-1.4h-0.3l-0.2-0.5c-0.3-1.1-1.7-1-2.1-1.9c0.5,0.1,2,0.8,2,0.8
				c0.3,0,0.7,0.1,1,0.1c0.3,0.1,0.6,0.2,0.9,0.3h0.4c2.4-0.8,0-2,0-2L139,42c-0.1-0.1-0.3-0.2-0.4-0.2c-0.2-0.2-0.5-0.2-0.8-0.1
				h-0.2c-0.2-0.1-0.4-0.2-0.6-0.3c-0.1,0-0.3-0.1-0.4-0.1l0.1,0.2c-0.2,0.1-0.2,0.1-0.2,0.1l-0.2-0.1v-0.2v-0.1
				c-0.2-0.1-0.4-0.2-0.4-0.4h-0.3l-0.1,0.2c-0.3-0.1-0.7-0.2-1-0.3c-0.1-0.1-0.1-0.1-0.1-0.2h0.2c0-0.1,0.1-0.2,0.1-0.2
				c-0.4-0.3-0.8-0.5-1.3-0.5c0,0.1,0.1,0.2,0.1,0.3h-0.2c-0.1-0.1-0.1-0.1-0.2-0.2l0.1-0.2v-0.1h-0.7c0,0.1,0.1,0.3,0.1,0.4
				s0,0.1,0,0.2l-0.1,0.1c0-0.3,0-0.4-0.2-0.5H132l-0.1-0.3h-0.1l0,0c-0.2,0.1-0.3,0.2-0.5,0.2c0,0.1-0.1,0.2-0.2,0.3H131l-0.2-0.1
				v-0.2c0-0.1-0.2-0.1-0.3-0.1c-0.2,0-0.4,0.1-0.6,0.2c0.1,0.3,0.1,0.3,0.6,0.4c0,0.1,0.1,0.2,0.1,0.3h-0.2
				c-0.1-0.1-0.1-0.1-0.6-0.1c-0.1,0-0.2,0-0.4,0c0.1,0.4,0.1,0.4,0,0.6l-0.2-0.4c-0.3-0.1-0.6-0.4-0.9-0.4c0,0.1,0,0.2,0,0.2
				c0.3,0.7-0.1,0.8-0.2,0.8c-0.1-0.1-0.1-0.2-0.2-0.3l-0.1,0.2h-0.2l-0.2,0.2l0.3,0.2c0,0.1,0,0.2,0,0.2l-0.2,0.1
				c-0.2-0.1-0.4-0.2-0.5-0.2c0-0.1,0-0.3,0-0.4h-0.1c0,0.1,0,0.2,0,0.4c-0.5,0.1-0.5,0.1-0.6,0.1l0.1,0.2l-0.1,0.2
				c-0.4,0-0.4,0-0.6,0.2h-0.1l-0.2,0.2h-0.1l-0.1,0.2h0.2c0.4-0.3,0.4-0.3,0.7-0.2c0.3-0.3,0.8-0.4,1.2-0.3c0,0.1,0,0.1,0.1,0.2
				c-0.2,0-0.2,0-0.8,0.2c-0.1,0.2-0.3,0.4-0.3,0.7c-0.1,0.1-0.2,0.1-0.3,0.2c-0.2,0.3-0.4,0.5-0.7,0.7c-0.1,0.4-0.3,0.7-0.4,1.1
				v-0.1c-0.3,0.2-0.7,0.4-1.1,0.5l-0.1,0.2h0.2h0.4c-0.2,0.8-1.1,0.8-1.6,1.4c-0.1,0-0.3,0-0.4-0.1h-0.4l-0.1,0.3l0.1,0.2
				c-0.1,0.1-0.2,0.1-0.4,0.2h-0.2c-0.3,0.1-0.6,0.3-0.9,0.4c-0.1,0.6-0.7,0.5-1,0.8c0,0.1,0,0.3,0,0.4c0,0,0,0-0.3,0.9
				c-0.1,0-0.1,0-0.2,0c-0.1,0.1-0.1,0.3-0.2,0.5h0.6l0.1,0.2c-0.1,0.1-0.2,0.2-0.3,0.3c-0.1,0.3-0.1,0.3-0.3,0.5c0,0.1,0,0.1,0,0.2
				c0.1,0.1,0.1,0.1,0.6,0.1c-0.1,0.3-0.1,0.3-0.3,0.5l2.8,0.1c0.3-0.3,0.3-0.3,0.8-0.5c0-0.1,0-0.2,0-0.3c0.3,0,0.3,0.3,0.5,0.5
				c0,0.1,0,0.2,0,0.2c1.6,0.2,3.3,0.2,5,0.3c0.2-0.1,0.4-0.2,0.5-0.2c0-0.3,0-0.3,0.4-0.6c0-0.2,0-0.3,0-0.3c0-0.1,0-0.1,0-0.2
				c-0.3,0-0.5-0.1-0.8,0c0-0.4,0-0.4-0.1-0.6c-0.1,0-0.3-0.1-0.4-0.2c0-0.6,0-1,0-1.4c0.2-0.3,0.4-0.7,0.6-1
				c0.5-0.2,0.9-0.5,1.2-0.8c0.2-0.1,0.2-0.1,0.6-0.2l0.1-0.2c-0.2-0.6,0.2-1.2,0.2-1.8c0.2-0.1,0.4-0.1,0.6,0h0.1
				c0.3,0.3,0.3,0.3,0.5,0.4l0.1-0.2c0.2,0,0.4,0.2,0.5,0.4c0.1,0.2,0.1,0.4,0.2,0.6h-0.4c0.1,0.6,0.1,0.6-1.8,2.2
				c0,0.5,0,1.1,0.1,1.6v0.2c0,0.1,0.1,0.3,0.1,0.4c0.3,0.3,1.8,1,1.8,1.1h0.1c0.5-0.2,1.1-0.1,1.6-0.3v-0.2c0.5,0,0.9,0,1.4,0
				c0.1-0.1,0.2-0.1,0.4-0.2h0.1c0.1,0.1,0.2,0.2,0.2,0.3c0.3,0.1,0.6,0.1,0.9,0.1l0.1,0.2l-0.1,0.2c-1,0-1.1,0-1.4,0.8
				c-0.8,0.3-1.6-0.6-2.5,0c-0.3-0.1-0.3-0.1-0.6,0c0,0.1-0.1,0.3-0.1,0.3c6.1,0.3,12.2,0.4,17.9,0.5l6.4,0.1 M121.8,52.7l-2.8-0.1
				l0,0c-0.1,0.1-0.1,0.1-0.1,0.1s0.1,0.1,0.1,0.2V53h0.5l0.1,0.1c0,0,0,0,0.2,0.3l0.3-0.1c0.1,0,0.2,0.1,0.4,0.1h0.2
				c0,0,0.3,0,0.4-0.2s0.1-0.1,0.1-0.1c0.1,0,0.2,0,0.3,0s0.1-0.1,0.2-0.1l0.1-0.2C121.8,52.8,121.8,52.8,121.8,52.7 M128.2,52.9
				l-5-0.2c0,0.2,0.3,0.3,0.3,0.6v0.1c0,0.1-0.2,0-0.2,0.2s0.1,0.4,0.2,0.5l0.2,0.1c0.1,0.1,0.2,0.2,0.2,0.3c0,0.1,0,0.1,0,0.2v0.2
				c0,0.3,0.2,0.4,0.4,0.7c0.3,0.2,0.2,0.2,0.2,0.3s-0.2,0.3-0.2,0.4l0,0c0,0.1,0.1,0.2,0.1,0.3h1.2c0.1-0.5,0.1-0.8,0.5-0.8h0.2
				l0.2,0.1c0.2,0.1,0.3,0,0.4-0.2s0.2-0.1,0.4-0.1c0-0.2,0-0.3,0-0.5h0.7c0-0.1,0-0.3,0-0.4h-0.3c-0.3,0-0.3,0-0.4,0v-0.1h-0.2
				c0.2-0.3,0.4-0.6,0.4-1c0.1-0.4,0.1-0.4,0.1-0.5C127.9,53,128.1,52.9,128.2,52.9 M167.4,84.7c-1.4-11-4.9-21.6-10.3-31.3
				l-6.4-0.1c-5.7-0.1-11.8-0.2-17.9-0.3H132h0.2h0.1c-0.2,0.1-0.4,0.2-0.7,0.3c0,0.1,0,0.2,0,0.3c0.3,0.2,0.7,0.3,1,0.2
				c0.2-0.2,0.3-0.3,0.5-0.5c0.4,0.2,0.6,0.6,1,0.8c0,0.1,0,0.2,0,0.3c-0.2,0.1-0.4,0.3-0.5,0.4c-0.1,0.2-0.2,0.2-0.3,0.2l-0.3-0.1
				l-0.2-0.3c-0.2-0.2-0.3-0.2-0.3-0.2s0-0.2,0-0.3H132c-0.1,0.2-0.3,0.4-0.5,0.5c-0.1,0.8-0.4,2.3-0.4,2.3l0.2,0.2l-0.1,0.2
				c-1.3-0.3-1.3-0.3-1.6,0c0.1,0.2,0.2,0.4,0.4,0.6v0.2h-0.2c-0.4-0.3-0.8-0.6-1.2-0.8c-2.7,1.2-3.4,1.5-3.4,0.3H125
				c-0.2,0.1-0.4,0.2-0.6,0.2H124h-0.4c0,0.1,0,0.2,0,0.3c-0.1,0.1-0.2,0.2-0.4,0.2l-0.3-0.1c-0.1-0.2-0.2-0.3-0.4-0.4H122
				c0-0.1,0-0.2,0-0.3s0-0.2,0.1-0.3c0.2,0,0.5,0,0.7,0c0.3,0.1,0.7,0.2,1,0.3c0.3-0.5,0.5-1,0.4-1.6c-0.1-0.1-0.2-0.1-0.3-0.1
				c-0.7,0.2-0.7,0.2-0.9,0.4c-0.1,0.1-0.2,0.1-0.2,0.1l0,0c0-0.1-0.1-0.2-0.1-0.3l0.2-0.3c0-0.1,0.1-0.3,0.1-0.4h-0.3
				c-0.2-1.3-0.2-1.3-0.4-1.4c-0.7,0.8-0.7,0.8-1,0.8l-0.2,0.3c0,0.1,0,0.2,0,0.2c-0.2,0.1-0.4,0.3-0.6,0.3c-0.2,0.6,0.4,1,0.2,1.6
				c0,0.1,0,0.1,0,0.2l-0.1,0.4l0.2,0.6c0,0.2,0,0.3,0,0.5h-0.3h-0.3h-0.6c-0.8-0.1-0.8-0.1-2.4,1c-0.3-0.1-0.4-0.1-0.4-0.2h-0.5
				c0,0.1-0.1,0.2-0.1,0.3l0.3,0.2c0,0.2-0.1,0.4-0.1,0.6c-0.6,0-0.7,0.1-1.5,0.7c-0.1,0.1-0.2,0.1-0.3,0.1h-0.3
				c-0.3,0.4-0.4,0.8-0.4,1.2c-0.3,0-0.7,0-1,0.1c-0.1,0.2-0.1,0.4-0.1,0.6H112l-0.2-0.2h-0.3c-0.2-0.1-0.2-0.2-0.2-0.2l-0.3-0.2
				c-0.2,0.2-0.3,0.4-0.3,0.6l0.3,0.2l-0.2,0.4l0.1,0.2c0,0.1,0,0.2,0,0.2c-0.5,0-0.9-0.1-1.4-0.1l-0.2-0.3c-1,0.2-1,0.2-1.3,0.5
				c0.1,0.3,0.1,0.3,0.2,0.3c0.1,0.2,0.3,0.3,0.5,0.4h0.5c0.6,0.6,0.6,0.6,0.7,0.8c0.1,0.4,0.1,0.8,0,1.2c0.2,0.3,0.5,0.4,0.7,0.7
				c-0.2,0.9-0.6,1.9-1,2.7c-0.2,0.1-0.5,0.2-0.8,0.3h-0.3c-0.5-0.2-1.1-0.1-1.5-0.7c-0.8-0.1-1.4-0.1-1.9-0.2
				c-0.8-0.1-0.8-0.1-1-0.3H104l-0.2,0.2c-0.3,0.2-0.7,0.3-1.1,0.2l-0.1,0.2c0.5,0.8-0.3,1.5,0,2.3c-0.1,0.4-0.2,0.8-0.2,1.2
				c-0.8,1.4-0.8,1.4-0.7,1.9s0.1,0.4,0.1,0.5v0.2c-0.3,0.4-0.3,0.4-0.3,1c0.2,0.1,0.4,0.1,0.6,0.1c0.4-0.1,0.5-0.1,0.9,0.3
				c0.2,0,0.5-0.1,0.7-0.1c0.2,0.2,0.5,0.3,0.8,0.5c0.1,0.2,0.2,0.4,0.3,0.6l0.3-0.1H105c1.9-0.6,3.4-2.2,5.5-2.1
				c0.2-0.2,0.4-0.5,0.4-0.8c-0.1-0.2-0.3-0.4-0.4-0.6c0-0.2,0-0.2,0.7-1.3c0.4-0.7,3-1.2,3-1.2c0.2-0.2,0.3-0.4,0.3-0.6
				c0-0.1,0-0.1,0-0.2c0-0.9-0.1-1.7,1.3-1.3h0.2h0.1c0.3,0.3,0.7,0.4,1.1,0.4h0.6c0-0.3,0.2-0.7,0.5-0.9h0.4c0.3,0,0.6,0,1.2-0.6
				c1.2,0.2,1.1,1.6,2,2.1c0.2,0.1,0.3,0.3,0.4,0.5c3,2.1,4.4,3.5,4.4,4.4c-1.1,0.3-2.3,0.5-3.4,0.5l-0.2,0.2
				c0.6,0.3,0.9,0.9,1.6,1.1c0.5,0,1,0,1.4,0.1c0-0.3,0-0.6,0-0.8c0.9-0.3,1.4-1.2,2.2-1.8c0-0.4,0-0.5,0-0.6c-0.4,0-0.6,0-0.7,0
				s-0.2-0.2-0.2-0.3c0.2-0.2,0.6-0.3,0.9-0.3c0.3,0.1,0.6,0.2,0.8,0.5c0,0,0,0-0.1-1c-0.6-0.5-1.5-0.7-1.9-1.5
				c-0.2,0-0.8,0-1.7-0.9c0.1-0.3,0.1-0.3-0.9-1.2c-0.1-0.1-0.2-0.1-0.2-0.1c0-0.2-0.1-0.5-0.2-0.7c-0.2,0-0.5,0-0.7,0
				c0-0.2,0-0.4,0-0.5l0.2-0.2c0.2-0.2,0.2-0.2,0.2-0.2c-0.1-0.2-0.1-0.4-0.1-0.7c0.7-0.2,0.8,0,1,0.6c1.5,0.2,1.9,2.1,3.4,2.3
				c0,0.1,0,0.2,0,0.2c0.6,0.7,1.7,0.8,2.2,1.7c-0.4,1.2-0.4,1.2,0,1.5c0,0.5,0,1.2,0.9,1.2c0.2,0.3,0.4,0.6,0.3,1h-0.3l-0.2-0.3
				l-0.2,0.3c0.5,0.8,0.5,0.8,1.1,1l0.1-0.3c0.3,0.2,0.6,0.4,0.8,0.7c-0.1,0.2-0.1,0.5,0,0.7c0.2,0.1,0.4,0.1,0.6,0.1h0.4
				c0.1-0.2,0.3-0.4,0.4-0.6s0-0.2,0-0.3l-0.3,0.1l0.3-0.2c0.2,0.1,0.4,0.2,0.6,0.3h0.3l0.2-0.2c0-0.2,0-0.4,0-0.6
				c0.2,0,0.4,0,0.7,0c-0.2-0.3-0.4-0.6-0.8-0.7c0,0.2-0.1,0.5-0.2,0.7c-0.5-0.1-0.6-0.3-0.9-1.3c-0.3-0.1-0.6-0.2-0.9-0.5
				c0-0.3,0-0.3,0-0.4l0.4-0.1c0.2,0.1,0.4,0.2,0.6,0.3h0.7c0.1-0.2,0.1-0.4,0-0.6c0.4-0.3,0.4-0.3,2.2,0.3c0,0.1,0,0.2,0,0.3
				l0.2,0.1l0.2,0.4l-0.3,0.1c-0.1,0.7,0.9,0.9,0.7,1.6c0,0.1,0,0.2,0,0.3c0,0.1,0,0.2,0,0.3c0.1,0.2,0.2,0.4,0.3,0.6l0.1,0.1
				l0.1,0.1l0.1,0.1l0.1,0.1l0.1,0.1c0,0.1,0.1,0.2,0.1,0.3l-0.1,0.1l-0.1,0.1l-0.1,0.1c0,0.2,0.1,0.4,0.1,0.6l0.1,0.1l0.1,0.1
				l0.2-0.3l0.1-0.3c0-0.1,0-0.3,0-0.4c0.1-0.3,0.1-0.3,0.2-0.3h0.1l0.1,0.1l0.1,0.1l0.1,0.1l0.4,0.3l0.1,0.1l0.1,0.1l0.1,0.1h0.1
				c0.2,0,0.4,0,0.5,0.1h0.3h0.1l0.1-0.1v-0.1V80c-0.1-0.2-0.1-0.4,0-0.6l0.1-0.1l0.1-0.1c0.2,0,0.5,0,0.7,0.1l0.3,0.3l0.4,0.3
				l0.1,0.1l0.1,0.1h0.1l0.2,0.1h1.4c0-0.1,0-0.2,0-0.3s0-0.1,0-0.2s0-0.2,0-0.3l0.3-0.1h0.1h0.2c0.2,0.1,0.5,0.2,0.7,0.4h0.3
				l0.1-0.1v-0.1l0.1-0.1h0.1l0.2,0.3v0.1c0,0.2,0,0.5,0,0.7c-0.2,0.4-0.2,0.8,0,1.2v0.1l0.2,0.3c0,0.1-0.1,0.2-0.1,0.3l-0.1,0.1
				v0.1V83l-0.1,0.1c-0.4,0.6-0.4,0.6-0.6,0.7l-0.1,0.1l-0.1,0.1v0.1c4.3,0.2,8.4,0.3,12.5,0.3l8.7,0.1 M158.1,39.1l-4.3-2.2l0,0
				L154,37h0.1H154l0.1,0.1l0.1,0.1l0,0c-0.3-0.1-0.6-0.3-0.9-0.4l0.5,0.2l-0.4-0.2c-0.2-0.1-0.5-0.3-0.8-0.4l-0.2-0.1l-0.1-0.1
				c0.3,0.2,0.7,0.3,1.1,0.5l0,0l0.1,0.1L154,37l0.1,0.1l0.3,0.2l0,0l0.1,0.1l0,0l0.1,0.1h-0.1c0,0-1.2-0.7-1.6-0.9l-0.1-0.1
				l-0.4-0.2l-0.3-0.1l0,0c-0.3-0.2-0.6-0.3-0.9-0.4h-0.1l-0.6-0.3h-0.1l-1.1-0.4l0,0c-0.5-0.2-1-0.4-1.5-0.5c-0.1,0-0.1,0-0.1,0
				h-0.1l0.3,0.1l-0.4-0.1c0.1,0.1,0.4,0.2,0.6,0.2l0,0l-0.2-0.1l-0.3-0.1l-0.6-0.2l0,0c-0.3-0.1-0.6-0.2-0.9-0.3l-0.4-0.1h-0.1
				l2.3,0.9h-0.1L148,35l0.1,0.1l0,0l0.2,0.1l0.3,0.1c-0.2,0-0.4-0.1-0.6-0.2h-0.1h-0.2c0.2,0.1,0.5,0.2,0.7,0.3v0.1l0.4,0.3h-0.1
				c0.4,0.4,0.4,0.4,2.2,1.3l0.2,0.1l0.1,0.1h-0.1l-0.1,0.2h-0.3c0,0.1-0.1,0.1-0.2,0.1l0.1,0.1l0.1,0.1h-0.2
				c0.7,0.4,1.4,0.8,2.1,1.1h0.1c0.3,0.1,0.5,0.2,0.7,0.3l0.2,0.1l0.1,0.1c-0.5-0.1-0.9-0.3-1.4-0.5H152c-0.2-0.1-0.3-0.1-0.5-0.2
				h-0.1v0.2l0.2,0.1c0.3,0,0.5,0.1,0.7,0.3c-0.2,0-0.3,0-0.5-0.1l0,0c0.2,0.3,0.5,0.5,0.8,0.6h0.1c0.4,0.1,0.8,0.3,1.2,0.6
				c-0.6-0.4-1.4-0.3-2-0.8l-0.4-0.2c-0.5-0.4-1-0.7-1.6-1h-0.2l1.1,0.7l0.2,0.1h-0.1c0.2,0.2,0.4,0.4,0.6,0.6l0.1,0.1
				c1.7,1,1.7,1,1.9,1.3l0.1,0.1c0.5,0.3,0.9,0.7,1.3,0.9h0.4c-0.1-0.1-0.1-0.2-0.2-0.3c-0.1-0.1,0-0.1,0-0.1
				c1.1,0.4,1.8,1.4,2.9,1.8c0.2,0.1,0.4,0.2,0.6,0.3c-0.1,0.1-0.1,0.1-0.1,0.1c-0.3-0.1-0.6-0.3-0.9-0.6l-0.2-0.2
				c0,0-1.1-0.8-1.6-0.8l-0.1,0.1c0.2,0.3,1.9,2,1.9,2h-0.2c0,0.1,0,0.2,0,0.3c0,0.1,0.1,0.1,0.2,0.2l0.1,0.1
				c-0.2,0-0.4-0.1-0.6-0.2c-0.2,0-0.4-0.1-0.6-0.1l-0.1-0.1l-0.2-0.3c0.2,0,0.4,0.1,0.6,0.1c0-0.2,0.1-0.3-0.5-1
				c0-0.1,0-0.1-2.7-2.2l-0.2-0.2c-0.6-0.6-1.4-1.1-2.1-1.5l-1-0.7c0.1,0,0.1,0,0.2,0l-1-0.7c-0.2,0-0.4-0.1-0.6-0.2h-0.1h-0.2v0.2
				h-0.1c0.3,0.3,1.5,1.3,1.5,1.3s-0.1,0.1-0.2,0.1l0.1,0.2l0.2,0.1l0.1,0.1h0.1c0.2,0.1,0.8,0.4,0.9,0.7c0.1,0.3,0.6,0.6,1.9,1.2
				c0.4,0.2,0.7,0.4,1,0.8H154c-0.1,0-0.3,0-3.4-1.4c-0.2,0-0.3,0-0.5,0c-0.2-0.1-0.3-0.1-0.4-0.2h-0.5c-0.4-0.1-0.7-0.4-1.1-0.5
				c-0.1-0.1-0.3-0.2-0.5-0.2h-0.2v0.2c0.8,0.7,2.1,0.7,2.7,1.7c-0.1,0.1-0.1,0.1-0.2,0.1c0,0.1,0.1,0.3,0.1,0.4h-0.1
				c-0.2-0.3-0.5-0.5-0.7-0.7c-0.1,0-0.1,0-0.2,0v0.2l0.1,0.1l-0.1,0.1h-0.1h-0.1c3.1,3.4,5.7,7.1,8,11c12.1,0.1,18.5-0.2,18.1-0.7
				l-0.3-0.3c-5.1-5-5.1-5-7.9-7.2c-5.4-3.9-6.2-4.5-9-5.9 M171.1,97.6L171.1,97.6c0-0.2-0.1-0.4-0.1-0.6c-0.1-0.1-0.2-0.1-0.3-0.1
				l-0.3-0.2c-0.1-0.2,0-0.5-0.1-0.7c-0.2-0.5-0.6-0.5-0.7-0.5c-0.5,0,0-0.7-0.2-1.1l-0.4-0.2h-0.4c0,0.6,0,0.6-0.1,0.7
				c0.1,2.1,0.1,4.2,0.1,6.3c0,0,0,0,0.2,0h0.2h0.2c0-0.1,0.1-0.3,0.1-0.4s0.1-0.2,0.1-0.2v-0.1c0-0.3,0.3-0.8,0.5-0.8h0.1
				c0.1,0.1,0.1,0.3,0.3,0.3c0-0.7,0.1-1.3,0.2-2c0-0.1,0-0.1,0.3-0.1C170.8,97.7,170.8,97.7,171.1,97.6 M193.2,90.9
				c-0.4-2.1-0.8-5-1.3-7.1c0.1,0.6-8.6,0.9-24.5,0.9c0.3,2.3,0.6,4.6,0.8,7c0.2,0.4,0.1,0.9,0.7,1.1h1c0.6-0.2,0.7,0.4,1.1,0.6h0.9
				l0.4,0.2h1.4l1-0.2h0.9c0,0,1.4,1.2,1.5,2.3h0.2c0.1,0.2,0.2,0.3,0.3,0.5h0.3c0.2,0,0.3,0,0.9,0.4c-1.3,0.1-0.6,0.8-0.6,0.8
				c0.5,0.4,0.4,1.4,1.4,1.4c0.4-0.5,0.4-0.5,0.5-0.6l0.1-0.4l0.2-0.1c0.6,0.4,0.6,2.6,0.6,2.7v0.6c-0.4,2.6,1.2,4.9,1,7.5v0.2
				c-0.3,1.4,0.3,2.8,0.4,4.2c0.1,0.1,0.1,0.2,0.2,0.4h0.2c0.9-0.8,0.9-0.8,2.1-5.9c0-0.4,0.1-0.9,0.1-1.3c0.1-1.3,0.1-1.3,0.3-1.6
				c1.2,0.1,2.2-4.1,2.3-4.2c0.2-0.3,0.3-0.6,0.4-0.8h0.1h0.1c0.2-0.2,0.2-0.2,0.2-1.6c0.1-0.1,0.2-0.2,0.4-0.2l0.1,0.1h0.1
				c0.1-0.3,0.4-0.5,0.4-0.9c0.1,0,0.3,0,0.4,0c0-0.2,0-0.5,0-0.7h0.2c0.3,0.9,0.5,1.9,0.6,2.9c0.1,0.3,0.2,0.7,0.3,1
				c0,0.1,0,0.2,0,0.3c0,0.2,0,0.4,0,0.6v0.1h0.2c0.5,1-0.4,2.1,0.2,3.1h0.2c0.1-0.2,0.2-0.4,0.3-0.5c0-0.1,0.1-0.2,0.1-0.3
				s0-0.2,0-0.2c0-0.1,0-0.1,0-0.2c0.6,0.6,0.3,3.2-0.3,8c0,0.2,0,0.2,0,0.3c-0.2,1.1,0,2.3-0.2,3.4c0,0.2,0,0.2,0,0.2
				c-0.1,0.6-0.1,1.2-0.2,1.9c-0.1,0.6-0.2,1-0.3,1.4c-0.2,0.9-0.2,1.7-0.2,2.6l0,0c0.1-0.3,0.2-0.6,0.2-0.9
				c0.1-0.6,0.7-3.1,0.7-3.1l0.1-0.3c0-0.1,0-0.1,0-0.2c0-0.1,0-0.2,0.1-0.2c0.1-0.1,0-0.2,0-0.2c0.1-0.2,0.1-0.4,0.1-0.5
				c-0.1-1.1-0.1-2.2,0-3.2c0-0.1,0-0.2,0-0.3c0.1-0.1,0-0.3-0.1-0.4c0.1-0.4,0.1-0.8,0.2-1.2s0.6-3,0.6-3c0.2,0.4,0.1,0.8,0.1,1.2
				c0,0.1,0.1,0.1,0.1,0.1l0.1-0.2c0.2,0.8,0.2,0.8-0.3,4.9c1.1-3.9,1.1-3.9,1.2-5.8c0-0.3,0.1-0.6,0.1-0.9c0.1-1.2,0.2-2.4,0.1-3.6
				c-0.1-1.9-0.1-3.8,0.1-5.6c0.1,0,0.1,0.1,0.1,0.2s0,0.1,0,0.2c0,0.5,0,0.9,0,1.3c0,0.6-0.1,1.2-0.1,1.8c0.1,0.1,0.1,0.1,0.1,0.1
				c0-0.7,0-1.3,0-2c0-0.5,0-1,0-1.4l0,0c0-0.2,0-0.4,0-0.6c0,0,0-0.1,0-0.2C193.6,95,193.6,92.7,193.2,90.9 M110.1,52.6L110.1,52.6
				l-0.3,0.1c-0.1,0.1-0.2,0.2-0.3,0.2h-0.2l0,0l-0.1,0.2c-0.1,0.1-0.2,0.2-0.3,0.3c0,0.1-0.1,0.1-0.1,0.2l0.1,0.1
				c0.2-0.1,0.2-0.1,0.3-0.2l0.2-0.2h0.1c0.1,0,0.2,0,0.3,0l0.1-0.2c0-0.1,0.1-0.1,0.2-0.2l0,0L110.1,52.6 M114.8,60.3
				c0-0.1,0-0.3,0-0.4c-0.2-0.1-0.3-0.3-0.2-0.5c-0.1-0.1-0.2-0.2-0.3-0.3h-0.2c0,0.2-0.1,0.4-0.3,0.5c-0.2,0.1-0.2,0.1-0.2-1h-0.5
				c0.2-0.7,0.3-0.9-0.2-1c0-0.1,0-0.1-0.1-0.2l-0.1-0.2c0.1-0.2,0-0.3-0.2-0.4v-0.1c0.1-0.2-0.2-0.7-0.4-0.7
				c-0.6-0.1-0.6-0.1-0.7-0.3c0.3-0.4,0.3-0.4,0.8-0.5c0-0.1,0-0.1,0.1-0.2c0-0.3,0.4-0.3,0.5-0.5l0.2-0.7c-0.5,0-1,0-1.5-0.1
				c0.4-0.5,0.4-0.5,0.4-0.5c0.1-0.3,0.4-0.2,0.6-0.4c-0.1-0.1-0.1-0.1-0.2-0.2H112c-0.2,0.1-0.5-0.1-0.8,0
				c-0.1,0.2-0.2,0.4-0.4,0.6c-0.1,0.2-0.1,0.4-0.2,0.6H110c-0.1,0-0.1-0.2-0.2-0.2h-0.1c-0.3,0.1-0.3,0.6-0.3,0.6
				c0,0.2,0.3,0.2,0.4,0.2l-0.1,0.1c0,0.1,0,0.1-0.1,0.2s0,0.5-0.3,0.5c-0.5,0-0.5,0.2-0.5,0.3v0.1h0.4c0.1-0.1,0.2-0.1,0.3,0
				c0,0.3,0,0.3,0.1,0.3s0.2,0,0.3,0c0-0.1,0-0.1,0.2-0.3l0.1,0.2c-0.1,0.2,0.1,0.4,0,0.6s-0.4,0.1-0.4,0.3c0,0.2,0,0.1,0,0.3h0.8
				l0.1-0.2c0.5,0.3-0.1,0.9,0.4,1.1h0.1c-0.1,0.1-0.2,0.3-0.1,0.5s0,0.3-0.2,0.4l0,0c-0.4,0.2-0.6-0.2-0.9-0.2h-0.1
				c-0.2,0-0.2,0-0.4,0.2l-0.1,0.2H109l-0.1,0.2c0.3,0.2,0.6,0.1,0.8,0.1c0,0.1,0,0.3-0.1,0.4c-0.1,0-0.1,0-0.2,0
				c-0.2,0.1-0.4,0.2-0.6,0.3h-0.1c-0.1,0.3-0.1,0.3,0,0.6c0.3,0,0.6-0.3,0.9,0s0.6-0.1,0.9,0.1c0,0.2,0,0.3-0.1,0.3
				c-0.2,0.1-0.5,0.1-0.7,0.1s-0.3,0.2-0.4,0.3c-0.2,0-0.4,0-0.5,0.1c-0.1,0.6-0.1,0.6-0.8,0.8c0.2,0.2,0.2,0.2,0.7,0
				c0.2-0.1,0.2-0.1,0.3-0.2c0.1-0.1,0.1,0,0.4,0.1h0.5c0.1-0.4,0.1-0.4,0.2-0.5c0.4,0.1,0.7,0,1.1,0.1s0.3-0.4,0.6-0.3
				c0.3,0.1,0.3,0.3,0.6,0.3h0.1c0.3-0.1,0.6,0.1,0.8-0.1s0.3-0.2,0.3-0.2c0.1,0,0.3,0,0.4-0.1l0.1-0.2c-0.1-0.1-0.2-0.3-0.2-0.5
				v-0.1c0-0.1,0-0.3,0.3-0.2c0.3,0.1,0.1,0,0.3-0.4h0.4 M106.8,57.2L106.8,57.2 M109.1,57.4c0-0.1,0-0.3-0.1-0.4
				c-0.1-0.2,0.1-0.3,0-0.4c0-0.1-0.1-0.1-0.1-0.1c-0.1,0-0.1,0-0.2,0l-0.1-0.1h-0.1c-0.2,0-0.3,0.1-0.4,0.1s-0.1,0.1-0.1,0.2
				c-0.1,0-0.1,0-0.2,0.1l-0.1-0.1c0-0.1,0-0.2-0.1-0.2s-0.1,0-0.5,0c-0.1,0.3-0.2,0.6-0.3,0.9c-0.1,0-0.2,0.1-0.3,0.1
				s-0.2,0.1-0.4,0.1c-0.1,0-0.1,0-0.2-0.1h-0.2c-0.1,0.4-0.3,0.8-0.4,1.3c0.2,0,0.4,0,0.6,0c0,0.2-0.1,0.4-0.2,0.6
				c-0.4,0-0.4,0-0.7,0.3l0,0c-0.1,0.1,0,0.3-0.1,0.4s-0.2,0-0.2,0.1l-0.1,0.1c0,0.1-0.1,0.2,0,0.3s0.3,0.2,0.5,0.1s0.4-0.1,0.6,0.1
				c0.2,0,0.3-0.1,0.5-0.2c0,0,0,0,0.1-0.2s0.1-0.1,0.2-0.2l1.5,0.1l0.1-0.3c0-0.1-0.1-0.2,0-0.4c0.1-0.1,0.2,0,0.2-0.1
				c0.1-0.1,0.1-0.2,0.2-0.5s0.1-0.5,0.2-0.7l0.1-0.4C108.8,57.7,109.1,57.6,109.1,57.4 M156.1,137.6c0-0.1,0-0.1,0.1-0.2l0.6-2.1
				c0-0.1-0.1-0.4-0.9-0.7c-0.1,0.3-0.1,0.5-0.2,0.8c-0.1,0.2-0.1,0.2-1.2,0.9c-0.2,0.2-0.3,0.4-0.4,0.6c0,0.2,0,0.2-0.1,0.3
				s-0.3,0-0.4,0.1c-0.1,0.1-0.2,0.5-0.4,0.7c-0.6,0.4-1.3-0.1-1.9,0.2c-0.2,0.1-0.4,0.1-0.5,0.2s-0.1,0.5-0.2,0.8s-0.4,0.4-0.6,0.6
				c0,0-0.4,1.2-0.3,1.4s0.1,0.2,0.1,0.3c-0.1,0.2-0.1,0.4-0.2,0.6c-0.1,0.1-0.1,0.1-0.2,0s-0.1,0-0.6,0.5c-0.3,0.3-0.2,0.8-0.6,1.1
				c-0.1,0-0.1,0.1-0.2,0.2l-0.1,0.2c-0.1,0.3,0,0.6-0.1,0.9l-0.1,0.4c-0.1,0.3-0.2,0.7-0.3,1c0.3,0,0.7,0,1,0c0,0.1,0,0.2,0,0.3
				c0.8,0.3,1.7,0.1,2.3-0.5c0.5-0.5,0.5-1.2,0.9-1.7c0.2-0.3,0.6-0.5,0.9-0.8s0.3-1.1,0.7-1.5c0.2-0.3,0.6-0.2,0.9-0.4
				c0.3-0.2,0.4-0.1,0.5-0.3c0.2-0.4,0-0.8,0.3-1.2c0.2-0.2,0.4-0.4,0.6-0.7c0.1-0.1,0.1-0.2,0.1-0.4c0-0.1,0-0.3,0-0.4
				c0-0.1,0.1-0.1,0.1-0.2C155.6,137.9,155.9,137.8,156.1,137.6 M162.1,110.5c0.1-0.4,0-0.7-0.3-1c-1.3-0.1-2.2,1.4-3.6,0.9
				c-0.1,0-0.3,0-0.8,0c-0.7,0.2-1.4,0.1-2-0.2c-0.5-1-0.5-1-0.5-1.5l-0.4-0.2c-0.1-0.3-0.2-0.7-0.2-1c-3.2-2.7-6-5-5.4-7.4
				c0-0.2,0-0.3,0-0.9c0-0.3-0.1-0.6-0.2-0.8c-0.1-0.1-5.4-10-5.4-11.8c-0.5-0.4-1.2-0.5-1.8-0.9c-0.2,0-0.3,0-0.5,0l-0.8,0.4H140
				c-3.2-0.7-6-2.5-9.4-2.4c-0.1,2.5-0.1,2.5-0.3,2.8l-0.4,0.1h-0.6c-0.7-0.1-1-1-1.7-1.1c-0.8,0-1.6-0.1-2.3-0.4
				c-0.4-1.5-2.6-1.5-2.7-1.5c-1.1,0-1.1,0-2.4-4.1c0.2-0.2,0.2-0.2,1.1-0.5c0-0.1-0.1-0.3-0.1-0.4c-0.4-0.1-0.8-0.3-1.2-0.4
				c-3,0.1-3,0.1-4.4,0.9c-0.8-0.7-2.1-1.8-3.6-0.2l-2.1-0.1c-0.1,0.2-0.1,0.2-2.6,1.3H107c-0.8-0.2-1.8,0.1-2.5-0.6l-0.5-0.1
				c-0.2,0.5-0.4,1-0.5,1.6c-0.4,0.3-0.5,0.3-1.6,0.2c-0.1,0.6-0.2,1.2-0.2,1.8c-0.6-0.1-1.1,0-1.6,0.3c-0.2,1-0.6,1.9-0.7,2.9
				c0,0.3-0.1,0.5-0.1,0.8l-1.2-0.1c-0.3,1.1-1.2,1.9-2.2,2c-0.8,1.4-2,2.7-2.4,4.3h-0.4l-0.3,0.1h-0.4c-0.2,2.6-0.3,2.6-1.3,3
				l-0.2,0.4c0,0.3,0,0.6,0.2,0.9c1.5,0.3,1.5,0.3,1.7,0.6c-0.5,1-0.5,1-0.5,3.8c0,0.2,0,0.3,0,0.9c0,0.1,0,0.1-0.8,0.8
				c0.1,0.6,0.2,1.1,0.4,1.6v0.5c0.1,2.1,3.4,4.1,3.4,4.1c0,1.2,0,2.1,2.7,2.8c0.1,0.4,0.2,0.8,0.1,1.2c2.4,2.2,3.8,1.9,3.8,1.9
				c0.1-0.2,0.2-0.6,0.3-0.8c0.5,0,1.1,0,1.6,0h0.6c0.4,0,0.8,0,1.2,0.1c0.3,0.8,1.1,0.7,2.9,0.4c0.4-1.1,0.9-1.1,2.7-0.8h0.2
				c0.7-0.6,1.7-0.7,2.5-0.3c0.4,1.9,0.8,2,1.5,2.2l3.8,0.1c0,0.5,0,1.1-0.1,1.6c-0.2,1.4-0.4,2.8-0.8,4.1h-0.4
				c-0.1,0.1-0.1,0.3-0.2,0.4c2.9,1.6,3,5.1,4.7,7.5l-0.1,0.4c0,0.1,0,0.3,0,0.4c0.1,0.8,0.1,0.8,0.6,1c0,2.2-1.9,3.9-2,6.1
				c0,1.2,0.1,1.3,0.8,1.7c0.1,1.1,0.1,1.5,1.1,2.1c0.4,1.7,0.4,1.7,0.6,1.9c0,0.6,0,1.2-0.1,1.8c0,0,1,3.5,2.3,4.9
				c-0.1,0.4-0.1,0.6,0.3,1.2c0,0.1-0.1,0.2-0.1,0.2c-0.2,0.1-0.4,0.3-0.5,0.6l0.3,0.2h0.3c-0.1,0.5-0.1,0.6,0.5,0.9h1.6
				c0.4-0.2,0.8-0.3,1.2-0.3c0.7,0,1.4,0,2.1-0.2l0.1-0.4c1.8-0.2,1.8-0.2,2-0.8c0.1,0,5.1-2.5,4.5-5.2c0,0,2.3-1.3,3.2-1.7
				c0.2-0.8,0.2-0.8-0.1-3.4c2.2-1.8,5.3-2.6,6.7-5.3c0-0.2,0.1-0.4,0.2-0.7c0.1-0.3,0.1-0.6,0-0.8c0.2-0.8,0.3-1.7,0.4-2.5
				c-0.8-1.3,0.2-2.7-0.2-4v-0.2C150.6,120.2,160.6,118.7,162.1,110.5 M79,127.2c-0.1-0.2-0.7-2.3-1.6-2.8h-0.8
				c-1.1-0.5-1.4-2.7-2.9-2c-0.4,0-0.8-0.1-1.1-0.2c-0.4-0.5-0.5-0.5-1.1-0.5c0,0.2,0.1,0.4,0.1,0.7c-0.8-0.2-0.8-0.3-0.8-0.7
				l0.2-0.2c-1.3-1.2-1.6-1.2-1.8-1.3c-0.1,0-0.2,0-0.2-0.1c-0.4-0.3-0.4-0.3-0.8-0.3c0.1,0.3,0.2,0.7,0.2,1h-0.5
				c0-0.1-0.1-0.3-0.1-0.5s0-0.4,0.1-0.6l0.1-0.2c-0.1-0.3-0.1-0.3-0.9-0.8H67c-0.1,0-0.2,0-0.3,0c0.2,0.7,0.2,0.7,0,1l-0.3-0.1
				c0-0.2-0.1-0.4-0.1-0.6c0.1-0.2,0.2-0.4,0.4-0.5c-0.2-1.5-0.2-1.5-0.4-1.9H66c-0.1-0.4-0.2-0.8-0.3-1.4c-0.5-1-1-1.9-1.7-2.7
				c-0.2-0.1-0.4-0.2-0.5-0.3l-0.2-0.2c-0.2,0-0.4,0.1-0.6,0.2h-0.2c0,0-1.7-2.4-2.1-3.1c0-0.1,0-0.2-0.2-0.4
				c-0.1-0.3-0.2-0.6-0.2-0.9c-0.1,0-0.1,0-0.2,0l-0.2,0.2c-0.2-0.2-0.2-0.2-0.3-0.9l0.2-0.3c-0.1-0.2-0.2-0.3-0.4-0.5l-0.2,0.4
				c0,0,0,0-0.1-0.1l-0.3-0.1c0,0.2,0,0.5,0,0.7l-0.2,0.2c-0.2-0.6-0.2-0.6-0.4-0.8c-0.1,0-0.3,0-0.4-0.1l-0.2-0.4
				c0-0.3-0.1-0.6-0.3-0.9c-0.1-0.2-0.2-0.4-0.4-0.5c0,0,0,2.5-0.1,3.2c-0.3-1.2-0.4-2.5-0.2-3.7V104c0,0-0.1,0-0.2,0
				c-0.1,0.3-0.2,0.7-0.1,1c-0.1,0-0.2,0-0.3,0.2s-0.2,0.4-0.3,0.6c0,0.4,0.1,0.9,0.1,1.6c-0.9,2.6,1,4.9,0.8,7.5
				c0.1,0.4,0.2,0.8,0.2,1.2c0.1,0.6,0.2,1.2,0.3,1.8c0,0,0,0,0,0.2c0.1,0.7,0.3,1.3,0.6,1.9l0.2,0.5c0.1,0.8,0.4,1.7,0.7,2.5
				l0.1,0.4c0.5,1.4,1.2,2.8,1.8,4.2c0.1,0.2,0.1,0.3,0.3,0.6c1,2,3.2,6.6,5.3,8.2c0.4,0.7,0.8,1.3,1.3,2.1c0.1,0.2,0.2,0.4,0.4,0.6
				l0.1,0.1c0,0.1,0.1,0.1,0.2,0.4l0.2,0.3l0.1,0.2c0.2,0.3,0.3,0.5,0.5,0.8v0.1l0.3,0.4l0.2,0.3l0.1,0.1l0.1,0.2
				c0.2,0.3,0.4,0.6,0.6,0.8L70,143l0.2,0.2c0.4,0.6,0.8,1.2,1.3,1.8c0,0,1.5,1.9,2,2.5l0.1,0.1c1.2,1.3,2.6,2.6,3.8,3.9l0.5,0.5
				l0.2,0.2c3.9,3.4,3.9,3.4,4.6,3.9s1.5,1.2,2.4,1.7h0.1l-1.6-1.2h0.1l0.7,0.5l0.2,0.2l1,0.7c0.3,0.2,0.3,0.2,1.9,1.3l-0.6-0.4
				l-0.3-0.2l-0.3-0.2l0.1,0.1L87,159l1.3,0.8l-0.8-0.4l0.7,0.4c0.9,0.6,1.9,1.1,2.8,1.6l0.3,0.1l0.8,0.4l0.2,0.1
				c0.6,0.3,1.3,0.6,1.8,0.9l0.2,0.1l0.2,0.1h0.1l0.9,0.4l0.2,0.1c1.4,0.6,2.9,1.2,3,1.2l0.2,0.1c0.3,0.1,0.3,0.1,0.9,0.3l0.3,0.1
				h0.2c-0.4-0.2-0.8-0.3-1.2-0.4l-0.6-0.2c0,0-1.2-0.5-1.8-0.8l-0.3-0.1l-1.4-0.7l-0.4-0.2l-0.8-0.4l-0.3-0.1c0,0,0.1,0-0.1-0.1
				c-0.8-0.4-1.6-0.9-2.3-1.4l-0.4-0.2l-0.3-0.1c-0.5-0.3-1-0.5-1.5-0.8l-0.2-0.1l-0.5-0.4h0.2l-1-0.7c-0.5-0.4-1-0.9-1.5-1.3
				l-0.4-0.3l0,0l0.1,0.2c-0.4-0.2-0.7-0.5-1.1-0.7l-0.5-0.4c0.1,0,0.2,0.1,0.3,0.1l0.3,0.2c0.1,0,0.2,0,0.2,0l-0.3-0.2l-0.4-0.3
				c-0.3-0.3-0.6-0.6-1-0.8l-0.4-0.3c0.1,0,0.2,0,0.3,0c0,0,0.1,0,0.2-0.1l0.5,0.1c-0.4-0.4-0.7-0.8-1-1.3l-0.2-0.3l-0.5-0.4
				c-0.1,0-0.1,0-0.2,0l-0.5-0.5c-0.5-0.3-0.9-0.6-1.4-1h0.3c1.1,0.5,1.1,0.5,1.3,0.1c-1.7-2.5-1.7-2.9-1.7-3.1
				c0.2,0.2,0.4,0.5,0.7,0.7c-0.6-2.2-2.9-3.8-2.5-6.4h0.6c0.1-0.2,0.1-0.4,0.1-0.6l1.4,0.1c-0.1-0.2-0.1-0.4-0.2-0.6H80
				c0-0.4-0.1-0.8-0.2-1.2L80,140c-0.2-0.4-0.4-0.9-0.4-1.3l0.1-0.1c-0.1-0.5-0.3-1.1-0.6-1.6c-0.1-0.1-0.1-0.2-0.1-0.4
				c0-0.4-0.1-0.9-0.3-1.3c0-0.1-0.1-0.2-0.2-0.5l-0.2-0.3c-0.1-0.2-0.1-0.3-0.3-0.6c-0.2-0.3-0.3-0.8-0.4-1.2
				c0.3-0.5,0.5-1.1,0.6-1.6l0.3-0.1c0-0.1,0.1-0.2,0.1-0.3s0.3-1.3,0.4-2C79.1,128.1,79.1,127.6,79,127.2 M54.9,97.7
				c0-0.2,0-0.4,0-0.6V97c0-0.1,0-0.2,0-0.3l0,0h-0.2c0,0.6,0,0.6,0,0.6l0,0l0,0C54.7,97.5,54.8,97.6,54.9,97.7
				c-0.1,0.2-0.1,0.3-0.1,0.5l0,0C54.8,98.2,54.8,98.2,54.9,97.7 M54.9,94.9l0.5,0.1c0-0.5-0.1-1-0.2-1.6h-0.1H55l0,0
				c-0.1-0.5-0.1-1-0.1-1.5c0-0.2,0-0.3,0-0.5s0-0.2,0-0.3l0,0l0,0l0,0c0,0.1,0,0.1-0.1,0.2v-0.1l0,0l0,0c-0.1,0.6-0.1,1.1-0.2,1.7
				c0-0.2,0-0.5,0-0.8c0,0.3,0,0.7,0,1c0,0.2,0,0.3,0.1,0.5l0,0c0,0,0,0.1,0,0.3S54.7,94.8,54.9,94.9 M107.8,45.5l0.3-0.6
				c0-0.1,0.1-0.2,0-0.3c-0.1-0.1-0.1-0.1-0.4-0.2c0.2-0.3,0.4-0.6,0.6-0.9h-0.6c-0.1,0-0.1,0-0.2,0c-0.4,0.1-0.6,0.4-1,0.5
				c-0.1,0-0.2-0.1-0.3-0.1s-0.3,0-0.4,0c-0.4,0-0.7,0.3-1.1,0.3h-0.4l0.2-0.3l0.2-0.3c0-0.1,0-0.2,0-0.3l-0.3,0.1l-0.2,0.3
				c-0.6-0.3-1.4-0.1-1.7,0.5v0.1c0.2,0,0.4-0.1,0.6-0.2h0.3l0.1,0.4c0,0.2-0.2,0.2-0.2,0.3c-0.4-0.1-0.8-0.1-1.1-0.1l-0.3,0.4
				c0.1,0,0.2,0,0.3-0.1h0.5v0.1l-0.4,0.6l-0.1,0.3h0.2c0.3,0,0.5,0,0.8,0h0.3c0.2,0,0.2,0,0.2,0.2c0,0,0,0.3,0.4,0.2
				c0.2,0,0.4,0.1,0.6,0s0.2-0.1,0.6-0.5c0.1-0.1,0.4-0.3,0.4-0.3s0.3,0,0.5-0.1c0.2-0.2,0.4-0.3,0.6-0.3
				C106.9,45.4,106.9,45.4,107.8,45.5 M73.3,62.5L73.3,62.5l0.2-0.5h-0.1c-0.3,0-0.2-0.7-0.2-0.7c0-0.2,0.1-0.3-0.3-0.4
				c0-0.1,0-0.1-0.1-0.2c0.2-0.3,0.4-0.5,0.6-0.7c0.1-0.1,0.2-0.1,0.3-0.2c0.2-0.2,0.4-0.4,0.4-0.7H74c-0.1,0-0.3,0.1-0.4,0.2
				c-0.3,0.3-0.4,0.7-0.7,0.9c-0.6,0.7-1.4,1.2-2,1.9c-0.3,0.3-0.6,0.7-0.8,1.1l1.3,0.1c0.1,0,0.1,0.1,0.1,0.4
				c-0.1,0.6,0,0.7,0.1,0.8c0.1-0.1,0.1-0.1,0.2-0.1s0.2-0.1,0.6-1C72.8,63.1,73,62.8,73.3,62.5 M70.6,61L70.6,61
				c0-0.1,0.1-0.2-0.1-0.2s-0.1,0-0.1,0c0-0.1,0-0.2,0.1-0.4c0.1-0.2,0.1-0.2,0-0.2h-0.1l-0.2,0.2c0,0.1,0,0.1,0,0.2
				s-0.1,0.2-0.1,0.3L70,61.6C69.8,61.7,69.9,61.7,70.6,61 M122.1,31.4L122.1,31.4L122.1,31.4l-0.2-0.1l0,0h-0.2
				c0,0-0.9,0.2-1.3,0.2l0,0h-0.2c-0.3,0.1-0.7,0.2-1,0.2c0.4-0.1,0.8-0.2,1.2-0.3l0.3-0.1c0.3,0,0.5-0.1,0.8-0.2l0,0
				c-0.5,0-0.9,0.1-1.4,0.2l0.6-0.1h0.1h0.2h0.1H121h-0.3h-0.4H120h-0.2c0.1,0,0.6-0.1,1-0.2c0.1,0,0.3,0,0.4,0h0.2h0.4
				c0.2,0,0.4-0.1,0.6-0.1l0.3-0.1h-0.1l0.1-0.1h0.2h-0.1c0,0-0.1,0,0,0h-0.5h0.2h0.2h0.2h0.4l0.4-0.1l0,0h-0.2H123l0,0
				c-0.3,0-0.7,0.1-1,0.1c0,0,0,0,0.1,0h0.2h-0.4h-0.2h-0.4h-0.1h-0.1h-0.2l-0.5,0.1h0.2h-0.3h-0.1H120h-0.1h-0.2h-0.3h-0.1h-0.1
				H119h-0.3l0,0l0,0h0.1l0,0h0.1h0.2h0.3h0.2h0.1h0.1h-0.2l-0.4,0.1l0,0h-0.3h-0.1h-0.1h-0.3h-0.1H118h-0.1h0.1h0.1h0.1h0.1h0.1
				h0.3h0.1h0.2h0.1h0.1h0.1h0.1l0,0H119l-0.6,0.1h-0.1h-0.1h-0.1l-0.6,0.1h-0.1h-0.1h0.2h0.1h0.2h0.4h0.4h0.1h0.2h0.3h0.2h-0.2
				h-1.6h-0.1h-0.1l0,0h-0.2l0,0H117h-0.1l0,0h0.1h0.1h0.1h0.1h0.1l0,0h0.2h0.2l0,0h-0.2l-0.5,0.1h-0.2h-0.1h-0.1h-0.9l0,0h0.1h0.1
				l0,0h-0.3l-0.6,0.1h-0.4h-0.5h-0.1H114l0,0l-0.4,0.1h-0.1l-0.4,0.1H113h-0.1h-0.1h0.1h0.2l-0.6,0.1h-0.1h-0.1h-0.1l-0.7,0.1
				l-0.4,0.1H111h-0.1l0,0h-0.2h-0.1l0,0l0,0h-0.2h-0.2H110h-0.1l0,0h-0.2h-0.4h-0.1h-0.1H109h-0.1h-0.1c-0.5,0.1-1,0.3-1.5,0.4h0.1
				l-0.2,0.1l0,0l-0.2,0.1l0,0h0.2h0.1h0.2l0,0l-0.5,0.1h-0.2h-0.1l-0.3,0.1l0,0l0,0l0,0h0.1h-0.1h-0.2l0,0h0.1l0,0l-0.3,0.6l0,0
				c-0.2,0-0.3,0.1-0.5,0.2h-0.1c-0.1,0.1-0.3,0.1-0.4,0.2h-0.1h-0.1h-0.1h-0.1h-0.1h-0.1h-0.1h-0.1l0,0l0,0l0,0l-0.1,0.1l0,0h-0.2
				l0,0l0,0h0.1h0.1l0.4-0.1l0,0l0,0l0,0l0,0l0,0l0.2-0.1l0,0h-0.1l0,0h0.1h0.1h0.2h0.1h0.2l-0.2,0.1l0,0h0.1l0,0l-0.1,0.1h-0.2l0,0
				h0.1l-0.1,0.1l0,0l0,0l-0.3,0.1h-0.1l0,0l-0.2,0.1l-0.7,0.3l-0.2,0.1h-0.1h-0.1l0,0h-0.1l0,0H103l-0.3,0.1h-0.1l-0.5,1H102
				l-0.1,0.1h-0.1c-0.1,0.1-0.3,0.1-0.4,0.2L101,36l0,0l-0.2,0.1l-0.2,0.1c-0.2,0.1-0.4,0.2-0.5,0.3l-0.6,0.3L99.1,37h0.1
				c-0.1,0.1-0.3,0.1-0.4,0.2l-0.2,0.1c-0.2,0.1-0.5,0.3-0.7,0.4h-0.1l-0.4,0.2L97.3,38c0,0,0,0,0.1,0.1h0.3
				c0.3-0.2,0.3-0.2,0.6-0.2c-0.5,0.3-0.5,0.3-0.6,0.5l0,0l0,0c-0.1,0.2-0.2,0.3-0.4,0.4l-0.2,0.1c0,0-0.1,0-0.2,0h-0.1l-0.1-0.1
				l0.1-0.1l-1.9,0.9c0,0.1,0,0.1-0.3,0.5c0.5-0.3,0.5-0.3,0.8-0.2c0.2-0.1,0.4-0.2,0.5-0.4V39l0.2-0.1h0.1V39c0,0,0.1,0,0.2,0.1
				l-0.2,0.1L96,39.3c-0.2,0.1-0.3,0.2-0.5,0.3c-0.1,0-0.1,0.1-0.2,0.1c-0.1,0.1-0.2,0.2-0.3,0.3l-0.5,0.3h-0.3
				c-0.1,0.1-0.3,0.1-0.4,0.2l0,0h0.1c-0.3,0.2-0.6,0.4-0.9,0.5s-0.6,0.3-0.8,0.4L92,41.6c-1.6,1.4-1.6,1.4-1.7,1.7l0.4-0.2
				c0,0,0,0,0,0.1l-0.3,0.2c-0.1,0-0.1,0-0.2,0c-1.1,0.8-1.1,0.8-1.2,1.1c0.3-0.1,0.5-0.4,0.9-0.3l-0.7,0.6c-1,0.6-1.8,1.1-2.8,3.4
				l0.1,0.2c0,0.1,0,0.3,0,0.4c0.1,0,0.2,0,0.2-0.1h0.2c0,0,0,0,0.2,0.1C87,48.9,87,49,86.9,49.1l0.2,0.3C87,49.5,87,49.6,87,49.8
				c0.4,0,0.8-0.1,1-0.4l0.2-0.2c2.2-2.5,2.5-2.5,2.7-2.5H91c0.6,0,0.9-0.5,1.4-0.7c0.2-0.2,0.4-0.5,0.7-0.7c0.7-0.4,1.4-0.9,2-1.5
				c0.2,0,0.4,0,0.6,0c0.1-0.2,0.3-0.3,0.5-0.4c0.1,0,0.2,0,0.3,0.1c-0.3,0.3-0.3,0.3-0.4,0.5c0.5,0.1,0.9-0.3,1.3-0.5h0.2
				c0.3,0,0.3,0,0.5-0.2c0.3-0.2,0.7-0.4,1.1-0.6c0.2,0,0.2,0,0.7-0.4l0.3-0.1c0.1-0.1,0.1-0.1,0.2-0.2c0.3-0.1,0.6-0.3,0.9-0.6l0,0
				h0.1l0,0l0,0l0,0l0,0v0.1c0.1,0.1,0.2,0.1,0.3,0.1l0.1,0.2c1.5,0.1,2.7-1,4-1.4c0.2,0,0.4,0,0.6,0c0.5-0.2,0.5-0.2,0.7-0.4v-0.1
				l-0.4,0.2l-0.3,0.1c0,0,0,0-0.2-0.1s0-0.2,0-0.2H106l-0.2-0.1l-0.1-0.2l0.1-0.2c0.1-0.1,0.3-0.2,0.4-0.2h0.1c0.3,0,0.6-0.1,1-0.1
				c-0.2,0.1-0.3,0.3-0.4,0.5l0.1,0.2l0.2-0.1c0.4-0.4,1.6-0.3,1.4-1.1c0.4-0.7,0.4-0.7,0.4-0.8h0.2V38h0.2c0.2-0.1,0.4-0.2,0.5-0.4
				l0.2-0.2c0.1-0.1,0.2-0.2,0.2-0.3c-0.2,0-0.2,0-0.6,0.1h-0.3l0.5-0.2c0-0.1,0-0.1,0-0.2l0.2-0.1h0.3l-0.3,0.3h0.4
				c0.1-0.1,0.2-0.1,0.4-0.1c0,0,0.1,0,0.2,0.1c0.7-0.1,0.7-0.3,0.7-0.6c-0.1,0-0.3,0.1-0.4,0.1c0,0,0,0,0.8-0.2l0.3-0.1h0.1
				c0.1,0,0.2-0.1,0.3-0.2l-0.1-0.2c0.1-0.2,0.1-0.2,0.6-0.5c0.1,0,0.2,0,0.3,0c0.2-0.1,0.3-0.2,0.4-0.4l0.3-0.3h-0.2
				c0-0.1,0-0.1,0-0.2l0.2-0.1h0.1c0.2-0.1,0.4-0.1,0.6-0.1c0,0,0.1,0,0.1,0.2h-0.1c-0.3,0.1-0.5,0.3-0.7,0.5h0.1
				c0.3-0.2,0.6-0.4,1-0.7l0.2-0.1c0,0,0,0,0.1-0.2h-0.2h-0.2c0.1-0.1,0.3-0.2,0.4-0.2h0.1c0.1,0,0.2-0.1,0.3-0.2
				c-0.2-0.1-0.2-0.1-0.8,0c0.2-0.1,0.3-0.2,0.5-0.3l0.9-0.4h0.1c0.2-0.1,0.4-0.2,0.6-0.2h0.2c0.6-0.3,1.3-0.5,2-0.6l0.1-0.1h-0.3
				l0,0c0.1,0,0.3,0,0.4,0h0.1c0.2,0,0.5-0.1,0.8-0.2h0.1C121.8,31.5,121.9,31.5,122.1,31.4 M118.9,30.9l0.6-0.1h-0.3h0.1h0.6h0.5
				h-0.3h-0.4h0.5l0,0h0.4h0.3H120h0.5h-0.7l0.8-0.1h0.1l-1.2,0.1l0,0h0.6l0,0h-0.5h0.1h-0.5l-0.7,0.1l0,0c-0.5,0-0.9,0.1-1.4,0.1
				l0.6-0.1l0,0l0.9-0.1h-0.1L118.9,30.9L118.9,30.9h-1.2l0,0h0.3l0,0l-0.7,0.1l0,0h-0.5h0.1l-0.5,0.1h-0.1h-0.1l-0.7,0.1l-1.3,0.2
				l0.7-0.1l0.4-0.1h0.1l-0.5,0.1l-0.7,0.1l-0.7,0.1l0,0h-0.1l0.8-0.1h-0.1l0,0l0.6-0.1l0.5-0.1l0.9-0.1h-0.2h-0.1l-1.1,0.1h0.1
				h-0.1l0,0h-0.5h-0.1h-0.2h-0.4l0,0h-0.1l-0.6,0.1h-0.1l-0.3,0.1l-0.6,0.1l-0.2,0.1h-0.1c0.5-0.1,1-0.2,1.6-0.3h0.2l-0.6,0.1
				l-0.5,0.1l-0.7,0.1l-0.9,0.2l-0.4,0.1c-0.2,0.1-0.5,0.1-0.7,0.2l-0.7,0.2l0.9-0.2h0.2h-0.1h-0.2l-0.4,0.1l-0.6,0.1l-0.4,0.1H108
				l0,0h0.1l-0.5,0.1l-0.6,0.2h-0.1l0.9-0.2l-0.7,0.2l-0.6,0.1h-0.1c0.3-0.1,0.7-0.2,1-0.3l-1.7,0.4l-0.6,0.2l-0.8,0.2l-0.4,0.1
				l0.4-0.1l-0.3,0.1l0.5-0.1l-0.3,0.1l0.2-0.1l0,0c-0.2,0.1-0.4,0.1-0.7,0.2h0.1l0,0l1.3-0.2l0.6-0.2l-0.4,0.2l0.8-0.2h0.2l0.8-0.2
				l0.7-0.2l0,0l0,0c0.5-0.1,1-0.3,1.5-0.4h0.1c0,0,0.9-0.2,1.2-0.3l-0.4,0.1l-0.4,0.1l0.6-0.1l1-0.2l0,0L111,32h-0.1l0.8-0.1
				l0.8-0.1h0.1l-0.5,0.1h0.1l0.4-0.1l0.8-0.1l0.2-0.1h0.1l0.5-0.1h0.3c0.6-0.1,1.3-0.2,1.9-0.2h0.1h0.4l0.5-0.1h-0.5h0.1h-0.1V31
				h0.3h0.1h0.6L118.9,30.9 M110.2,31.9l0.9-0.2l0.6-0.1l0.6-0.1l0.5-0.1l0.4-0.1l-0.3,0.1c0,0,1.1-0.2,2-0.3l1.3-0.2l-0.5,0.1l0,0
				h-0.6l0,0l-1.1,0.2l0,0l-0.7,0.1l-0.3,0.1l-0.8,0.1l0,0l-0.4,0.1l-0.5,0.1l-0.3,0.1h0.1h0.2l0,0L110.2,31.9L110.2,31.9l-0.3,0.1
				l-0.5,0.1l-0.8,0.2l-0.4,0.1h0.1l-0.3,0.1l0.4-0.1l0,0l0.5-0.1l0.6-0.1l-0.3,0.1l0.7-0.3h-0.1L110.2,31.9 M105.6,33l1.2-0.3h-0.2
				l-0.8,0.2L105.6,33 M101.1,34.4L101.1,34.4l0.9-0.3l0.3-0.1l0.3-0.1l-0.4,0.1l-0.4,0.1h-0.1L102,34l0,0l0.8-0.3l0.8-0.2l0.8-0.2
				l0,0l-0.6,0.2l-3.9,1.3h0.1l0.4-0.1c-0.3,0.1-0.5,0.2-0.8,0.3l0,0l0,0l0.2-0.1l0.4-0.1L99.8,35C100.3,34.7,100.8,34.6,101.1,34.4
				 M87.5,41.2l0.7-0.4l0.7-0.5c-0.2,0-0.2,0-1.1,0.5l-0.6,0.4v0.1L87.5,41.2 M83.2,43.5L83,43.7l-0.3,0.2l1.4-1V43L83.2,43.5
				L83.2,43.5z M55.1,108.8V108l-0.1-0.7l-0.2-0.1l-0.1-0.1l-0.1-0.2l-0.1-0.6l-0.1-1.1l-0.1-0.9c0-0.4,0-0.8-0.1-1.2v-1.5
				c0-0.3,0-0.7,0-1v-0.8v-0.6l0,0c0,1.8,0.1,4.1,0.2,5.9l0.1,1.3v-0.1v0.4c0,0.5,0.1,0.9,0.2,1.4l0,0l0.2,0.9l0.1,0.4l-0.1-0.9
				v-0.6L55,108L55.1,108.8L55.1,108.8 M74.8,58.4l0.4-0.3v-0.4l0.4-0.3l0.6-0.8l-0.3-0.2L76,56h-0.5l-0.7,0.4l-0.5,0.3v-0.2
				l0.5-0.5l0.6-0.3l0.7-0.2l0.5-0.4L76.3,55v-0.4l-0.2-0.3l0.2-0.5l0.2-0.5l0.3-0.5l0.2-0.1l0.3-0.3l0.5-0.8l0.5-0.9l1.1-1.5
				l0.6-0.7l-1.1,0.8L78.2,50l-0.5,0.2l-0.6,0.5l-0.2-0.1l0.4-0.5l0.2-0.4l-0.3,0.1l0.9-0.8c0.4-0.4,0.8-0.7,1.1-1.1l0.6-0.6
				l-0.2-0.1l0.3-0.5l0.6-0.6l0.5-0.6l-0.4,0.3l-0.1-0.1l0.2-0.2h-0.1l-0.5,0.4l-0.6,0.6l-0.9,0.8L78,47.8l-0.8,0.7h-0.1l-0.7,0.7
				L76,49.6l-0.3,0.3l-0.4,0.5l-0.9,0.9c-0.3,0.3-0.7,0.7-1,1.1l-0.8,0.7L72,53.7l-0.2,0.1l-0.8,1L70,56l-0.5,0.7L69,57.3L68.4,58
				l-0.2,0.1l0.7-1l0.7-0.9l0.6-0.7l0.9-1l0.8-0.5l0.1-0.2v-0.1l0.3-0.5l0.3-0.3c-1.2,1.3-2.6,3.1-3.7,4.4c-2.2,2.8-2.2,2.8-6,9
				c-1.8,3.3-1.8,3.3-4.5,9.9c-0.7,1.9-1.4,4.5-2,6.4l-0.2,0.6l0,0l0.1-0.4v-0.1l-0.2,0.7l-0.2,0.9c-0.1,0.3-0.2,0.6-0.2,1l-0.1,0.6
				l-0.1,0.6L55.4,87l-0.1,0.7v0.4l-0.1,0.8v0.2l0.1-0.5l0.2-0.8l0.2-1l0.4-1.5l0.2-1.3c0.1-0.6,0.3-1.1,0.5-1.8
				c0.1-0.3,0.2-0.7,0.3-1l0.4-1.2l0.2-0.4l0.4-0.9l0.4-0.7l0.3-0.3l0.3-0.7l0.3-0.4l0.3-1.2l0.1-0.5l0.3-0.6l0.2-0.6l0.2-0.3
				l-0.2,0.9l0.4-0.8l0.4-0.7l0.3-0.5l0.8-1.5h0.3l0.4-0.5l0.3-0.1l0.2-0.6l0.6-1.3l0.7-0.9H65l0.4-0.5l0.3,0.1l0.6-0.5l0.6-0.7
				c0.3,0,0.5,0.1,0.7,0.3L66.9,66c-0.1,0-0.3,0-0.5,0c-0.4,0.3-0.8,0.8-0.9,1.3v0.3l0.4-0.5l0.3-0.3l0.4-0.2l0.6-0.4l0.4-0.2
				l0.7-0.8l0.6-0.6l0.4-0.7l-0.5,0.2l-0.8,1h-0.4l-0.1-0.5l0.1-0.8l0.6-1.3l0.7-0.6l0.6-1l-0.3-0.1l-0.6,0.3l-0.9,0.8l-1.2,1.3
				l-0.7,0.7l0.5-0.7l0.6-0.7l0.3-0.4l-0.1-0.3l0.3,0.1l0.5-0.7l0.6-0.6h0.3l0.6-0.7l0.4-0.2h0.4H71l0.3,0.2h0.4l0.8-0.6l0.9-0.8
				l0.7-0.1L74.8,58.4"/>
			<circle class="st10" cx="124.1" cy="100" r="69.4"/>
			<path class="st0" d="M144.1,97.2c1.1,2.2-8.2,9.2-20.9,15.5c-12.6,6.3-23.8,9.7-24.9,7.4c-1.1-2.3,8.2-9.2,20.8-15.5
				C131.8,98.4,143.1,95.1,144.1,97.2z"/>
			<path class="st1" d="M98.4,120.5l4.9,9.8c1.1,2.2,12.3-1.1,24.9-7.4c12.6-6.3,22-13.3,20.9-15.5l-5-10"/>
			<path class="st2" d="M144.1,97.2c1.1,2.2-8.2,9.2-20.9,15.5c-12.6,6.3-23.8,9.7-24.9,7.4c-1.1-2.3,8.2-9.2,20.8-15.5
				C131.8,98.4,143.1,95.1,144.1,97.2z"/>
			<path class="st7" d="M111.8,117.7c0,0-12.8,0.5,18.3-16.6l3.5-2.5c0,0-34.3,13.7-35.1,20.6c-0.8,6.9-0.1,1-0.1,1
				S102.1,122.8,111.8,117.7z"/>
			<path class="st5" d="M143.4,98.9c0,0-13.6,13.7-44.1,22.8l4.5,9.5c0,0,29.2-6.4,45.6-23.6l-5.3-9.9L143.4,98.9z"/>
			<path class="st8" d="M141.8,113.9c0,0-26.2,13.5-28.9,4.2l-2.5,0.5l-3.9,1.4c0,0-3.6,0.8-3.8,0.8c-0.3,0-3.7,0.7-3.7,0.7l3.1,6.8
				l1.5,2.2l2.6,0.3l11-3.3l17.1-8.1L141.8,113.9z"/>
			<path class="st6" d="M118.3,112.9c2.4-1.2,3.5-2.6,3.8-3.2c1.6-0.1,3.2-0.5,4.6-1.3c2.6-1.3,4.3-3,4.1-4l2.9-1.5l-0.5-0.9
				l-2.9,1.5l-0.5-1c0-0.1-0.3,0-0.6,0.1l-17.4,8.9c-0.3,0.1-0.5,0.3-0.4,0.4l0.5,1l-2.6,1.4l0.5,0.9l2.7-1.4
				C113.1,114.8,115.4,114.4,118.3,112.9z M127.1,104.9l0.4,0.8c0.2,0.4-0.6,1.1-1.9,1.8s-2.5,0.9-2.7,0.5l-0.4-0.8L127.1,104.9z
				 M115.4,112.2l-0.4-0.9l4.7-2.4l0.4,0.8c0.2,0.4-0.6,1.3-1.9,2C116.9,112.4,115.6,112.6,115.4,112.2z"/>
			<path class="st2" d="M144.1,97.2c1.1,2.2-8.2,9.2-20.9,15.5c-12.6,6.3-23.8,9.7-24.9,7.4c-1.1-2.3,8.2-9.2,20.8-15.5
				C131.8,98.4,143.1,95.1,144.1,97.2z"/>
			<path class="st2" d="M98.4,120.5l4.9,9.8c1.1,2.2,12.3-1.1,24.9-7.4c12.6-6.3,22-13.3,20.9-15.5l-4-8"/>
			<ellipse transform="matrix(0.89 -0.4559 0.4559 0.89 -20.9844 106.3708)" class="st11" cx="210" cy="96.7" rx="16.8" ry="22.2"/>
			<path class="st9" d="M194.8,82.1l0.7-2.5l-5.1,2.4c0,0-13.4,12.3,0.4,31.2c0,0,10,12.5,22.9,6.4l3.7-1.6c0,0-11.8,1.7-20.7-11
				C196.6,107,187.8,95.2,194.8,82.1z"/>
			<g class="st12">
				<path class="st13" d="M220.3,116.5c-8.3,4.2-19.4-1.1-24.9-11.8c-3.6-7.1-3.9-14.8-1.3-20.5c0.2,3.9,1.2,7.7,3,11.1
					c5.5,10.8,16.7,16.1,25,11.9c2.8-1.5,5-3.8,6.3-6.7C228.6,107.5,225.8,113.7,220.3,116.5z"/>
			</g>
			<path class="st5" d="M195.4,79.5c0,0-8.4,11.1,1.6,28.5c0,0,10.6,12.2,21.4,9.1l-7.2,3.7c0,0-16.1,5.3-24.7-13.7
				S192.6,81.1,195.4,79.5z"/>
			<path class="st8" d="M184.8,96.3c-0.2,0.3,3.5,12.5,16.8,17l4.8,3.2c0,0,5.2,1.3,5.6,1.3s2.9,0.6,2.9,0.6l-1.3,1.6l-4.6,1.7
				l-4,0.1l-6.2-1.7l-5.7-4.7l-3.5-4.5l-4.4-7.4c0,0-1-4-1-4.4S185.1,95.8,184.8,96.3z"/>
			<ellipse transform="matrix(0.89 -0.4559 0.4559 0.89 -20.9844 106.3708)" class="st14" cx="210" cy="96.7" rx="16.8" ry="22.2"/>
			<path class="st14" d="M200.4,76.6c-1.7,0.8-6.5,3.3-7.8,4c-8.2,4.2-10.6,16.6-5,27.5s16.1,16.1,24.4,12.1
				c2.8-1.3,6.7-3.2,8.8-4.3"/>
			<path class="st6" d="M218.1,98.2c-0.9-2-2.8-3.3-5-3.4c0.8-1.8,0.8-3.9-0.2-5.7c-1.4-2.8-4.2-4.2-6.5-3.4l-1.6-3.2l-2.4,1.2
				l1.6,3.2l-2.6,1.3c-0.2,0.1-0.2,0.4-0.1,0.7l9.8,19c0.1,0.3,0.4,0.5,0.7,0.3l2.6-1.3l1.5,2.9l2.4-1.2l-1.5-2.9
				C219.1,104.5,219.6,101.3,218.1,98.2z M205.3,90.6l2.1-1.1c1-0.5,2.2,0.1,3,1.6s0.6,2.9-0.4,3.5l-2.1,1.1L205.3,90.6z
				 M214.6,102.6l-2.4,1.2l-2.6-5.1l2.2-1.1c1.3-0.5,2.8,0.2,3.3,1.5C215.8,100.6,215.6,102.1,214.6,102.6L214.6,102.6z"/>
			
				<ellipse transform="matrix(0.91 -0.4147 0.4147 0.91 -38.3565 25.7828)" class="st11" cx="40.2" cy="101.2" rx="22.2" ry="16.8"/>
			<path class="st9" d="M61.2,99.2l1-2.4l2.5,5.1c0,0,2.9,18-19.7,24.2c0,0-15.6,3.6-21.9-9.2l-2-3.5c0,0,8.2,8.7,23,4.2
				C44.2,117.6,58.4,113.8,61.2,99.2z"/>
			<g class="st12">
				<path class="st13" d="M23.5,92.8c-4.6,5.3-6.3,12-3.7,17.5c3.8,8.4,15.9,11.2,26.9,6.2c7.3-3.3,12.3-9.2,13.7-15.2
					c-2.6,2.9-5.7,5.3-9.3,6.9c-11,5-23.1,2.2-26.9-6.2C23,99.2,22.7,95.9,23.5,92.8z"/>
			</g>
			<path class="st5" d="M62.2,96.8c0,0-0.3,13.9-18.9,21.4c0,0-15.9,3-22.5-6.1l3.3,7.4c0,0,9.3,14.2,27.9,4.6
				C70.5,114.5,63.5,99.8,62.2,96.8z"/>
			<path class="st8" d="M32.9,119.3c0,0,18.2,6.1,29.7-6.7l-8.7,10.1c0,0-19.4,11.5-29.2-3l-2.4-4.6L32.9,119.3z"/>
			
				<ellipse transform="matrix(0.91 -0.4147 0.4147 0.91 -38.3565 25.7828)" class="st14" cx="40.2" cy="101.2" rx="22.2" ry="16.8"/>
			<path class="st14" d="M60.1,91.5c0.8,1.7,3,6.7,3.6,8c3.8,8.4-2,19.6-13.1,24.7s-22.7,2.7-26.7-5.7c-1.3-2.8-3.3-6.7-4.2-8.8"/>
			<path class="st6" d="M29.2,104.2l-3,1.4l1.1,2.4l3-1.3l1.2,2.6c0.1,0.2,0.4,0.3,0.7,0.1l19.5-8.9c0.3-0.1,0.5-0.4,0.4-0.6
				l-1.2-2.7l3.2-1.5l-1.2-2.4l-3.2,1.5c-1.3-2.1-4.3-2.7-7.2-1.4c-1.8,0.8-3.1,2.4-3.6,4.4c-1.8-1.3-4.1-1.5-6-0.4
				C29.7,98.9,28.2,101.8,29.2,104.2z M42.4,101.6l-1-2.2c-0.5-1,0.4-2.3,1.9-2.9s2.8-0.4,3.3,0.6l1,2.2L42.4,101.6z M34.7,100
				c1.2-0.7,2.8-0.3,3.5,0.9l1,2.2l-5.2,2.4l-1.1-2.5C32.4,102,33.2,100.7,34.7,100L34.7,100z"/>
			<path class="st15" d="M200.8,57.5c0.5-0.1,1.1-0.1,1.7-0.1"/>
			<path class="st16" d="M205.8,57.3c15.2,0.3,27.4,8.7,27.4,18.9c0,2.2-0.6,4.4-1.7,6.4"/>
			<path class="st15" d="M230.6,84c-0.3,0.5-0.6,0.9-1,1.3"/>
			<path class="st17" d="M152.4,98.6c15.4,0,27.9,5.1,27.9,11.4s-12.5,11.4-27.9,11.4c-3.5,0-6.9-0.3-10.3-0.8"/>
			<path class="st17" d="M94.2,123.6c-3,0.7-6.1,1-9.2,1c-8.1,0-15.3-2.3-19.5-5.9"/>
			<path class="st17" d="M21.8,87.2c-3.1-1.6-5-3.7-5-5.9c0-5.4,10.9-9.8,24.4-9.8"/>
			<path class="st17" d="M173.8,40.3"/>
			<path class="st15" d="M73.1,43.9c-0.4-0.4-0.9-0.7-1.2-1.1"/>
			<path class="st18" d="M69.8,40.2c-0.6-1.1-1-2.3-1-3.6c0-10.2,23.8-18.5,53.1-18.5c7.2,0,14.4,0.5,21.5,1.6"/>
			<path class="st15" d="M145.1,19.9l1.6,0.3"/>
			<path class="st17" d="M121.8,55.1"/>
			<path class="st19" d="M168.6,37.6c5.4,2.9,8.5,6.4,8.5,10.2c0,10-22,18.2-49.2,18.2c-5.4,0-10.8-0.3-16.1-1"/>
			<path class="st15" d="M170.1,165.3c0,0.6-0.1,1.1-0.3,1.6"/>
			<path class="st20" d="M168.1,169.8c-5.6,6.5-22.8,12.1-43.1,12.1c-21.7,0-39.8-6.3-44.1-13.5"/>
			<path class="st15" d="M80.2,166.9c-0.2-0.5-0.3-1.1-0.3-1.6"/>
		</g>
	</g>
</g>
</svg>
