<?xml version="1.0" encoding="UTF-8"?>
<svg width="179px" height="48px" viewBox="0 0 179 48" version="1.1" xmlns="http://www.w3.org/2000/svg" xmlns:xlink="http://www.w3.org/1999/xlink">
    <!-- Generator: Sketch 41.2 (35397) - http://www.bohemiancoding.com/sketch -->
    <title>App Store_Dark</title>
    <desc>Created with Sketch.</desc>
    <defs></defs>
    <g id="Page-1" stroke="none" stroke-width="1" fill="none" fill-rule="evenodd">
        <g id="App-Store-Copy" transform="translate(-20.000000, -9.000000)" fill="#757575">
            <g id="App-Store_Dark" transform="translate(20.000000, 9.000000)">
                <path d="M28.8743111,22.6544 C28.8272667,17.4976 33.1553556,14.9888 33.3532667,14.872 C30.9020889,11.3472 27.1028444,10.8656 25.7677556,10.8272 C22.5768444,10.496 19.4816444,12.7104 17.8561778,12.7104 C16.1982667,12.7104 13.6951778,10.8592 10.9974222,10.9136 C7.52586667,10.9664 4.27817778,12.9488 2.49697778,16.0272 C-1.17897778,22.304 1.56257778,31.528 5.08442222,36.6016 C6.84615556,39.0864 8.90475556,41.8608 11.5992667,41.7632 C14.2353778,41.656 15.2200667,40.1056 18.4012444,40.1056 C21.5532222,40.1056 22.4778889,41.7632 25.2259333,41.7008 C28.0550889,41.656 29.8362889,39.2048 31.5363778,36.6976 C33.5722667,33.8496 34.3898667,31.0448 34.4223111,30.9008 C34.3558,30.8784 28.9278444,28.8352 28.8743111,22.6544" id="Fill-3"></path>
                <path d="M23.6832,7.4896 C25.1010222,5.7408 26.0711111,3.3616 25.8018222,0.9472 C23.7497111,1.0368 21.1833556,2.3472 19.7055111,4.0576 C18.398,5.5648 17.23,8.0352 17.5317333,10.3584 C19.8369111,10.528 22.2037333,9.2112 23.6832,7.4896" id="Fill-5"></path>
                <path d="M60.7136667,32.528 L58.8886667,26.968 C58.6956222,26.4 58.3338667,25.0624 57.8001556,22.9568 L57.7352667,22.9568 C57.5227556,23.8624 57.1804667,25.2 56.7100222,26.968 L54.9174667,32.528 L60.7136667,32.528 Z M67.0241111,41.4064 L63.3400444,41.4064 L61.322,35.152 L54.3075111,35.152 L52.3851778,41.4064 L48.7984444,41.4064 L55.7480444,20.1136 L60.0404444,20.1136 L67.0241111,41.4064 Z" id="Fill-7"></path>
                <path d="M81.3726667,33.6656 C81.3726667,32.1712 81.032,30.9392 80.3474222,29.9696 C79.5995778,28.9584 78.5954222,28.4528 77.3365778,28.4528 C76.4832889,28.4528 75.7078667,28.7344 75.0151778,29.2896 C74.3208667,29.8496 73.8666444,30.5808 73.6541333,31.4864 C73.5470667,31.9088 73.4935333,32.2544 73.4935333,32.5264 L73.4935333,35.0864 C73.4935333,36.2032 73.8406889,37.1456 74.535,37.9152 C75.2293111,38.6848 76.1312667,39.0688 77.2408667,39.0688 C78.5435111,39.0688 79.5574,38.5728 80.2825333,37.584 C81.0092889,36.5936 81.3726667,35.288 81.3726667,33.6656 M84.8961333,33.5408 C84.8961333,36.152 84.1807333,38.216 82.7499333,39.7312 C81.4683778,41.08 79.8769778,41.7536 77.9773556,41.7536 C75.9268667,41.7536 74.4538889,41.0272 73.5568,39.5744 L73.4919111,39.5744 L73.4919111,47.6624 L70.0333333,47.6624 L70.0333333,31.1072 C70.0333333,29.4656 69.9895333,27.7808 69.9051778,26.0528 L72.9468444,26.0528 L73.1398889,28.4864 L73.2047778,28.4864 C74.3581778,26.6528 76.1085556,25.7376 78.4575333,25.7376 C80.2938889,25.7376 81.8268889,26.4528 83.0532889,27.8848 C84.2829333,29.3184 84.8961333,31.2032 84.8961333,33.5408" id="Fill-9"></path>
                <path d="M99.2771333,33.6656 C99.2771333,32.1712 98.9348444,30.9392 98.2502667,29.9696 C97.5024222,28.9584 96.5015111,28.4528 95.2410444,28.4528 C94.3861333,28.4528 93.6123333,28.7344 92.9180222,29.2896 C92.2237111,29.8496 91.7711111,30.5808 91.5586,31.4864 C91.4531556,31.9088 91.398,32.2544 91.398,32.5264 L91.398,35.0864 C91.398,36.2032 91.7451556,37.1456 92.4362222,37.9152 C93.1305333,38.6832 94.0324889,39.0688 95.1453333,39.0688 C96.4479778,39.0688 97.4618667,38.5728 98.187,37.584 C98.9137556,36.5936 99.2771333,35.288 99.2771333,33.6656 M102.8006,33.5408 C102.8006,36.152 102.0852,38.216 100.652778,39.7312 C99.3728444,41.08 97.7814444,41.7536 95.8818222,41.7536 C93.8313333,41.7536 92.3583556,41.0272 91.4628889,39.5744 L91.398,39.5744 L91.398,47.6624 L87.9394222,47.6624 L87.9394222,31.1072 C87.9394222,29.4656 87.8956222,27.7808 87.8112667,26.0528 L90.8529333,26.0528 L91.0459778,28.4864 L91.1108667,28.4864 C92.2626444,26.6528 94.0130222,25.7376 96.3636222,25.7376 C98.1983556,25.7376 99.7313556,26.4528 100.961,27.8848 C102.185778,29.3184 102.8006,31.2032 102.8006,33.5408" id="Fill-11"></path>
                <path d="M122.818822,35.4352 C122.818822,37.2464 122.181289,38.72 120.901356,39.8576 C119.494889,41.1008 117.536867,41.7216 115.0208,41.7216 C112.697778,41.7216 110.835467,41.28 109.425756,40.3952 L110.227133,37.552 C111.745533,38.4576 113.411556,38.912 115.226822,38.912 C116.529467,38.912 117.543356,38.6208 118.271733,38.0416 C118.996867,37.4624 119.358622,36.6848 119.358622,35.7152 C119.358622,34.8512 119.060133,34.1232 118.461533,33.5328 C117.866178,32.9424 116.871756,32.3936 115.483133,31.8864 C111.703356,30.496 109.815089,28.4592 109.815089,25.7808 C109.815089,24.0304 110.476956,22.5952 111.802311,21.4784 C113.1228,20.36 114.884533,19.8016 117.087511,19.8016 C119.052022,19.8016 120.683978,20.1392 121.986622,20.8128 L121.121978,23.5936 C119.905311,22.9408 118.529667,22.6144 116.990178,22.6144 C115.773511,22.6144 114.822889,22.9104 114.141556,23.4992 C113.565667,24.0256 113.276911,24.6672 113.276911,25.4272 C113.276911,26.2688 113.606222,26.9648 114.268089,27.512 C114.843978,28.0176 115.890311,28.5648 117.408711,29.1552 C119.266156,29.8928 120.630444,30.7552 121.508067,31.744 C122.382444,32.7296 122.818822,33.9632 122.818822,35.4352" id="Fill-13"></path>
                <path d="M134.253867,28.6128 L130.441644,28.6128 L130.441644,36.0672 C130.441644,37.9632 131.113244,38.9104 132.459689,38.9104 C133.077756,38.9104 133.590378,38.8576 133.995933,38.752 L134.091644,41.3424 C133.410311,41.5936 132.513222,41.72 131.402,41.72 C130.036089,41.72 128.968667,41.3088 128.198111,40.488 C127.4308,39.6656 127.044711,38.2864 127.044711,36.3488 L127.044711,28.6096 L124.7736,28.6096 L124.7736,26.0496 L127.044711,26.0496 L127.044711,23.2384 L130.441644,22.2272 L130.441644,26.0496 L134.253867,26.0496 L134.253867,28.6128" id="Fill-15"></path>
                <path d="M147.865933,33.7136 C147.865933,32.2976 147.559333,31.0832 146.938022,30.0704 C146.212889,28.8448 145.176289,28.2336 143.833089,28.2336 C142.442844,28.2336 141.386778,28.8464 140.661644,30.0704 C140.040333,31.0848 139.733733,32.3184 139.733733,33.7776 C139.733733,35.1936 140.040333,36.408 140.661644,37.4192 C141.409489,38.6448 142.4542,39.256 143.802267,39.256 C145.122756,39.256 146.159356,38.632 146.9072,37.3872 C147.544733,36.3552 147.865933,35.128 147.865933,33.7136 M151.454289,33.6032 C151.454289,35.9632 150.769711,37.9008 149.4038,39.416 C147.971378,40.976 146.070133,41.7536 143.700067,41.7536 C141.415978,41.7536 139.597467,41.0064 138.241289,39.512 C136.885111,38.0176 136.207022,36.1312 136.207022,33.8576 C136.207022,31.4784 136.904578,29.5296 138.304556,28.0144 C139.701289,26.4976 141.586311,25.7392 143.956378,25.7392 C146.240467,25.7392 148.078444,26.4864 149.465444,27.9824 C150.792422,29.4336 151.454289,31.3072 151.454289,33.6032" id="Fill-17"></path>
                <path d="M162.696289,29.0528 C162.354,28.9904 161.989,28.9584 161.606156,28.9584 C160.389489,28.9584 159.4486,29.4112 158.786733,30.3184 C158.210844,31.1184 157.922089,32.1296 157.922089,33.3504 L157.922089,41.4064 L154.465133,41.4064 L154.497578,30.888 C154.497578,29.1184 154.453778,27.5072 154.3678,26.0544 L157.380267,26.0544 L157.5068,28.992 L157.602511,28.992 C157.967511,27.9824 158.5434,27.1696 159.3318,26.56 C160.102356,26.0112 160.934556,25.7376 161.831644,25.7376 C162.151222,25.7376 162.439978,25.76 162.696289,25.8 L162.696289,29.0528" id="Fill-19"></path>
                <path d="M174.8662,32.1184 C174.888911,31.1072 174.663422,30.2336 174.1946,29.496 C173.596,28.5472 172.6762,28.0736 171.438444,28.0736 C170.307756,28.0736 169.387956,28.536 168.685533,29.464 C168.109644,30.2016 167.767356,31.0864 167.661911,32.1168 L174.8662,32.1168 L174.8662,32.1184 Z M178.164178,33.0032 C178.164178,33.6144 178.123622,34.1296 178.037644,34.5504 L167.661911,34.5504 C167.702467,36.0672 168.203733,37.2272 169.167333,38.0272 C170.041711,38.7424 171.1724,39.1008 172.561022,39.1008 C174.097267,39.1008 175.498867,38.8592 176.759333,38.3744 L177.301156,40.7424 C175.828178,41.376 174.089156,41.6912 172.082467,41.6912 C169.6686,41.6912 167.773844,40.9904 166.394956,39.5904 C165.019311,38.1904 164.329867,36.3104 164.329867,33.952 C164.329867,31.6368 164.970644,29.7088 166.253822,28.1712 C167.597022,26.5296 169.412289,25.7088 171.696378,25.7088 C173.939911,25.7088 175.638378,26.5296 176.791778,28.1712 C177.705089,29.4752 178.164178,31.088 178.164178,33.0032 L178.164178,33.0032 Z" id="Fill-21"></path>
                <path d="M57.7774444,7.0608 C57.7774444,5.84 57.4497556,4.904 56.7943778,4.2512 C56.139,3.6 55.1818889,3.2736 53.9214222,3.2736 C53.3860889,3.2736 52.9302444,3.3088 52.5522667,3.3824 L52.5522667,11.2048 C52.7615333,11.2368 53.1443778,11.2512 53.7008,11.2512 C55.0018222,11.2512 56.0059778,10.8944 56.7132667,10.1808 C57.4205556,9.4672 57.7774444,8.4272 57.7774444,7.0608 M59.57,7.0144 C59.57,8.8976 58.9973556,10.3152 57.8536889,11.2672 C56.7943778,12.1456 55.2889556,12.5856 53.3390444,12.5856 C52.3722,12.5856 51.5448667,12.544 50.8521778,12.4608 L50.8521778,2.1712 C51.7557556,2.0272 52.7290889,1.9536 53.7802889,1.9536 C55.6377333,1.9536 57.0377111,2.352 57.9818444,3.1488 C59.0395333,4.0496 59.57,5.3376 59.57,7.0144" id="Fill-23"></path>
                <path d="M67.3112444,8.7136 C67.3112444,8.0176 67.1587556,7.4208 66.8554,6.9232 C66.4985111,6.3216 65.9907556,6.0208 65.3305111,6.0208 C64.6475556,6.0208 64.1284444,6.3216 63.7715556,6.9232 C63.4665778,7.4208 63.3157111,8.0272 63.3157111,8.744 C63.3157111,9.44 63.4682,10.0368 63.7715556,10.5344 C64.1398,11.136 64.6524222,11.4368 65.3142889,11.4368 C65.9631778,11.4368 66.4725556,11.1312 66.8391778,10.5184 C67.1538889,10.0112 67.3112444,9.4096 67.3112444,8.7136 M69.0746,8.6592 C69.0746,9.8192 68.7388,10.7696 68.0672,11.5152 C67.3631556,12.2816 66.4303778,12.664 65.2656222,12.664 C64.1430444,12.664 63.2492,12.2976 62.5824667,11.5616 C61.9173556,10.8272 61.5848,9.9008 61.5848,8.784 C61.5848,7.616 61.9270889,6.6576 62.6149111,5.9136 C63.3027333,5.1696 64.2274,4.7968 65.3921556,4.7968 C66.5147333,4.7968 67.4166889,5.1632 68.0996444,5.8976 C68.7485333,6.6112 69.0746,7.5328 69.0746,8.6592" id="Fill-25"></path>
                <path d="M81.8187778,4.9504 L79.426,12.4928 L77.8686667,12.4928 L76.8774889,9.2176 C76.6260444,8.4 76.4216444,7.5872 76.2626667,6.7808 L76.2318444,6.7808 C76.0842222,7.6096 75.8798222,8.4208 75.6170222,9.2176 L74.5642,12.4928 L72.9890222,12.4928 L70.739,4.9504 L72.4861333,4.9504 L73.3507778,8.536 C73.5600444,9.384 73.732,10.192 73.8698889,10.9568 L73.9007111,10.9568 C74.0272444,10.3264 74.2365111,9.5232 74.5317556,8.552 L75.6170222,4.952 L77.0024,4.952 L78.0422444,8.4752 C78.2936889,9.3344 78.4980889,10.1616 78.6554444,10.9584 L78.7024889,10.9584 C78.8176667,10.1824 78.9912444,9.3552 79.2216,8.4752 L80.1495111,4.952 L81.8187778,4.952 L81.8187778,4.9504 Z" id="Fill-27"></path>
                <path d="M90.6323111,12.4928 L88.9322222,12.4928 L88.9322222,8.1728 C88.9322222,6.8416 88.4196,6.176 87.3911111,6.176 C86.8866,6.176 86.4794222,6.3584 86.1630889,6.7248 C85.85,7.0912 85.6910222,7.5232 85.6910222,8.0176 L85.6910222,12.4912 L83.9909333,12.4912 L83.9909333,7.1056 C83.9909333,6.4432 83.9698444,5.7248 83.9292889,4.9472 L85.4233556,4.9472 L85.5028444,6.1264 L85.5498889,6.1264 C85.7478,5.76 86.0430444,5.4576 86.4307556,5.216 C86.8914667,4.9344 87.4073333,4.792 87.9718667,4.792 C88.6856444,4.792 89.2793778,5.0192 89.7514444,5.4752 C90.3386889,6.0336 90.6323111,6.8672 90.6323111,7.9744 L90.6323111,12.4928 Z" id="Fill-29"></path>
                <polygon id="Fill-31" points="93.6220667 12.4928 95.3205333 12.4928 95.3205333 1.4896 93.6220667 1.4896"></polygon>
                <path d="M103.564667,8.7136 C103.564667,8.0176 103.412178,7.4208 103.108822,6.9232 C102.753556,6.3216 102.244178,6.0208 101.585556,6.0208 C100.900978,6.0208 100.381867,6.3216 100.0266,6.9232 C99.7216222,7.4208 99.5707556,8.0272 99.5707556,8.744 C99.5707556,9.44 99.7232444,10.0368 100.0266,10.5344 C100.394844,11.136 100.907467,11.4368 101.569333,11.4368 C102.218222,11.4368 102.725978,11.1312 103.0926,10.5184 C103.408933,10.0112 103.564667,9.4096 103.564667,8.7136 M105.329644,8.6592 C105.329644,9.8192 104.993844,10.7696 104.322244,11.5152 C103.6182,12.2816 102.6838,12.664 101.520667,12.664 C100.396467,12.664 99.5026222,12.2976 98.8375111,11.5616 C98.1724,10.8272 97.8398444,9.9008 97.8398444,8.784 C97.8398444,7.616 98.1821333,6.6576 98.8699556,5.9136 C99.5577778,5.1696 100.482444,4.7968 101.645578,4.7968 C102.769778,4.7968 103.670111,5.1632 104.354689,5.8976 C105.003578,6.6112 105.329644,7.5328 105.329644,8.6592" id="Fill-33"></path>
                <path d="M111.792578,9.9008 L111.792578,8.7376 C109.917289,8.7056 108.979644,9.2128 108.979644,10.2576 C108.979644,10.6512 109.086711,10.9456 109.305711,11.1424 C109.524711,11.3392 109.803733,11.4368 110.136289,11.4368 C110.5094,11.4368 110.858178,11.32 111.176133,11.088 C111.495711,10.8544 111.692,10.5584 111.765,10.1952 C111.782844,10.1136 111.792578,10.0144 111.792578,9.9008 M113.557556,12.4928 L112.031044,12.4928 L111.904511,11.624 L111.857467,11.624 C111.335111,12.3168 110.590511,12.664 109.623667,12.664 C108.901778,12.664 108.317778,12.4352 107.878156,11.9808 C107.479089,11.568 107.279556,11.0544 107.279556,10.4448 C107.279556,9.5232 107.668889,8.8208 108.452422,8.3344 C109.234333,7.848 110.3342,7.6096 111.7504,7.6208 L111.7504,7.48 C111.7504,6.4864 111.221556,5.9904 110.162244,5.9904 C109.407911,5.9904 108.7428,6.1776 108.168533,6.5488 L107.823,5.448 C108.533533,5.0144 109.411156,4.7968 110.446133,4.7968 C112.444711,4.7968 113.447244,5.8368 113.447244,7.9168 L113.447244,10.6944 C113.447244,11.448 113.484556,12.048 113.557556,12.4928" id="Fill-34"></path>
                <path d="M121.456156,9.312 L121.456156,8.0544 C121.456156,7.8368 121.439933,7.6608 121.409111,7.5264 C121.3134,7.1232 121.107378,6.784 120.794289,6.5104 C120.477956,6.2368 120.096733,6.0992 119.657111,6.0992 C119.022822,6.0992 118.526422,6.3472 118.161422,6.8448 C117.799667,7.3424 117.616356,7.9776 117.616356,8.7536 C117.616356,9.4992 117.789933,10.104 118.138711,10.5696 C118.506956,11.0656 119.003356,11.3136 119.624667,11.3136 C120.182711,11.3136 120.628822,11.1072 120.967867,10.6928 C121.295556,10.3104 121.456156,9.8496 121.456156,9.312 M123.217889,12.4928 L121.709222,12.4928 L121.629733,11.2816 L121.582689,11.2816 C121.100889,12.2032 120.280044,12.664 119.126644,12.664 C118.205222,12.664 117.437911,12.3072 116.829578,11.5936 C116.221244,10.88 115.917889,9.9536 115.917889,8.816 C115.917889,7.5952 116.2472,6.6064 116.909067,5.8512 C117.549844,5.1472 118.335,4.7952 119.2694,4.7952 C120.296267,4.7952 121.014911,5.136 121.423711,5.8192 L121.456156,5.8192 L121.456156,1.4896 L123.157867,1.4896 L123.157867,10.4608 C123.157867,11.1952 123.177333,11.872 123.217889,12.4928" id="Fill-35"></path>
                <path d="M135.996133,8.7136 C135.996133,8.0176 135.843644,7.4208 135.540289,6.9232 C135.181778,6.3216 134.675644,6.0208 134.013778,6.0208 C133.332444,6.0208 132.813333,6.3216 132.454822,6.9232 C132.149844,7.4208 131.998978,8.0272 131.998978,8.744 C131.998978,9.44 132.151467,10.0368 132.454822,10.5344 C132.823067,11.136 133.335689,11.4368 133.997556,11.4368 C134.646444,11.4368 135.157444,11.1312 135.524067,10.5184 C135.837156,10.0112 135.996133,9.4096 135.996133,8.7136 M137.757867,8.6592 C137.757867,9.8192 137.422067,10.7696 136.750467,11.5152 C136.046422,12.2816 135.115267,12.664 133.948889,12.664 C132.827933,12.664 131.934089,12.2976 131.265733,11.5616 C130.600622,10.8272 130.268067,9.9008 130.268067,8.784 C130.268067,7.616 130.610356,6.6576 131.298178,5.9136 C131.986,5.1696 132.910667,4.7968 134.077044,4.7968 C135.198,4.7968 136.101578,5.1632 136.782911,5.8976 C137.4318,6.6112 137.757867,7.5328 137.757867,8.6592" id="Fill-36"></path>
                <path d="M146.899089,12.4928 L145.200622,12.4928 L145.200622,8.1728 C145.200622,6.8416 144.688,6.176 143.657889,6.176 C143.153378,6.176 142.7462,6.3584 142.431489,6.7248 C142.116778,7.0912 141.959422,7.5232 141.959422,8.0176 L141.959422,12.4912 L140.257711,12.4912 L140.257711,7.1056 C140.257711,6.4432 140.238244,5.7248 140.197689,4.9472 L141.690133,4.9472 L141.769622,6.1264 L141.816667,6.1264 C142.0162,5.76 142.311444,5.4576 142.697533,5.216 C143.159867,4.9344 143.674111,4.792 144.240267,4.792 C144.952422,4.792 145.546156,5.0192 146.018222,5.4752 C146.607089,6.0336 146.899089,6.8672 146.899089,7.9744 L146.899089,12.4928 Z" id="Fill-37"></path>
                <path d="M158.340622,6.2064 L156.468578,6.2064 L156.468578,9.8704 C156.468578,10.8016 156.801133,11.2672 157.459756,11.2672 C157.764733,11.2672 158.0178,11.2416 158.217333,11.1888 L158.261133,12.4608 C157.925333,12.5856 157.484089,12.648 156.940644,12.648 C156.269044,12.648 155.746689,12.4464 155.368711,12.0432 C154.989111,11.64 154.800933,10.9616 154.800933,10.0096 L154.800933,6.2064 L153.683222,6.2064 L153.683222,4.9504 L154.800933,4.9504 L154.800933,3.568 L156.466956,3.072 L156.466956,4.9488 L158.339,4.9488 L158.339,6.2064 L158.340622,6.2064 Z" id="Fill-38"></path>
                <path d="M167.340711,12.4928 L165.639,12.4928 L165.639,8.2048 C165.639,6.8528 165.126378,6.176 164.099511,6.176 C163.311111,6.176 162.772533,6.568 162.477289,7.352 C162.427,7.5168 162.3978,7.7184 162.3978,7.9552 L162.3978,12.4912 L160.699333,12.4912 L160.699333,1.4896 L162.3978,1.4896 L162.3978,6.0352 L162.430244,6.0352 C162.965578,5.208 163.732889,4.7952 164.727311,4.7952 C165.431356,4.7952 166.013733,5.0224 166.476067,5.4784 C167.051956,6.0464 167.340711,6.8912 167.340711,8.008 L167.340711,12.4928" id="Fill-39"></path>
                <path d="M175.002467,7.9312 C175.015444,7.4336 174.903511,7.0048 174.673156,6.6432 C174.377911,6.1776 173.928556,5.944 173.320222,5.944 C172.765422,5.944 172.312822,6.1712 171.967289,6.6272 C171.685022,6.9904 171.517933,7.424 171.462778,7.9312 L175.002467,7.9312 M176.624689,8.3648 C176.624689,8.6656 176.601978,8.9184 176.561422,9.1248 L171.462778,9.1248 C171.485489,9.8704 171.728822,10.4384 172.200889,10.832 C172.6324,11.184 173.188822,11.36 173.870156,11.36 C174.624489,11.36 175.312311,11.2416 175.932,11.0032 L176.198044,12.168 C175.472911,12.4784 174.619622,12.6336 173.631689,12.6336 C172.447467,12.6336 171.514689,12.2896 170.839844,11.6016 C170.161756,10.9136 169.825956,9.9904 169.825956,8.832 C169.825956,7.6944 170.139044,6.7472 170.770089,5.992 C171.428711,5.1856 172.319311,4.7824 173.443511,4.7824 C174.543378,4.7824 175.378822,5.1856 175.943356,5.992 C176.3992,6.632 176.624689,7.424 176.624689,8.3648" id="Fill-40"></path>
            </g>
        </g>
    </g>
</svg>