<?xml version="1.0" encoding="UTF-8"?>
<svg width="190px" height="45px" viewBox="0 0 190 45" version="1.1" xmlns="http://www.w3.org/2000/svg" xmlns:xlink="http://www.w3.org/1999/xlink">
    <!-- Generator: Sketch 41.2 (35397) - http://www.bohemiancoding.com/sketch -->
    <title>btn_google play</title>
    <desc>Created with Sketch.</desc>
    <defs>
        <linearGradient x1="90.1736434%" y1="94.4729879%" x2="-39.8945736%" y2="27.4527823%" id="linearGradient-1">
            <stop stop-color="#4998D3" offset="0%"></stop>
            <stop stop-color="#4A99D3" offset="1%"></stop>
            <stop stop-color="#42BAEB" offset="26%"></stop>
            <stop stop-color="#41C7F2" offset="51%"></stop>
            <stop stop-color="#56C9E9" offset="76%"></stop>
            <stop stop-color="#5BCAE8" offset="100%"></stop>
        </linearGradient>
        <linearGradient x1="106.562562%" y1="50.4137412%" x2="-131.844335%" y2="50.4137412%" id="linearGradient-2">
            <stop stop-color="#FEE000" offset="0%"></stop>
            <stop stop-color="#FEBD11" offset="41%"></stop>
            <stop stop-color="#FAA51A" offset="78%"></stop>
            <stop stop-color="#F99B1C" offset="100%"></stop>
        </linearGradient>
        <linearGradient x1="35.5904192%" y1="46.2242385%" x2="-100.686826%" y2="-129.954671%" id="linearGradient-3">
            <stop stop-color="#EF4149" offset="0%"></stop>
            <stop stop-color="#C31E63" offset="100%"></stop>
        </linearGradient>
        <linearGradient x1="-67.6857143%" y1="189.549638%" x2="-7.21369048%" y2="110.205568%" id="linearGradient-4">
            <stop stop-color="#32A072" offset="0%"></stop>
            <stop stop-color="#2CA772" offset="7%"></stop>
            <stop stop-color="#4BBA71" offset="48%"></stop>
            <stop stop-color="#5EBD6B" offset="80%"></stop>
            <stop stop-color="#66BE69" offset="100%"></stop>
        </linearGradient>
    </defs>
    <g id="Page-1" stroke="none" stroke-width="1" fill="none" fill-rule="evenodd">
        <g id="Google-Play-Copy" transform="translate(-15.000000, -10.000000)">
            <g id="btn_google-play" transform="translate(15.208333, 10.666667)">
                <g id="Google-Play_dark">
                    <g id="Group" transform="translate(0.000000, 0.000000)">
                        <g transform="translate(0.000000, 0.640000)">
                            <g id="g48" transform="translate(0.000000, 0.640000)" fill="url(#linearGradient-1)">
                                <path d="M1.13737536,0.189387755 C0.649928775,0.679183673 0.487446581,1.65877551 0.487446581,2.47510204 L0.487446581,38.2302041 C0.487446581,39.0465306 0.812410969,39.8628571 1.13737536,40.5159184 L1.29985755,40.6791837 L21.4476496,20.597551 L21.4476496,20.1077551 L1.13737536,0.189387755 L1.13737536,0.189387755 L1.13737536,0.189387755 Z" id="path64"></path>
                            </g>
                            <g id="g66" transform="translate(21.122685, 13.701224)" fill="url(#linearGradient-2)">
                                <path d="M6.98673433,14.0669388 L0.324964387,7.37306122 L0.324964387,6.88326531 L6.98673433,0.189387755 L7.14921652,0.352653061 L15.110844,4.92408163 C17.3855947,6.23020408 17.3855947,8.35265306 15.110844,9.65877551 L6.98673433,14.0669388 L6.98673433,14.0669388 L6.98673433,14.0669388 L6.98673433,14.0669388 Z" id="path78"></path>
                            </g>
                            <g id="g80" transform="translate(0.638484, 20.584490)" fill="url(#linearGradient-3)">
                                <path d="M27.6334177,7.18367347 L20.6466834,0.326530612 L0.498891391,20.5714286 C1.47378455,21.3877551 2.9361243,21.3877551 3.91101746,20.7346939 L27.6334177,7.18367347" id="path88"></path>
                            </g>
                            <g id="g90" transform="translate(0.638484, 0.000000)" fill="url(#linearGradient-4)">
                                <path d="M27.6334177,14.0538776 L3.74853527,0.666122449 C2.7736421,0.0130612245 1.31130236,0.0130612245 0.336409197,0.829387755 L20.6466834,20.9110204 L27.6334177,14.0538776 L27.6334177,14.0538776 Z" id="path104"></path>
                            </g>
                        </g>
                        <path d="M61.4182692,5.71428571 C61.4182692,6.85714286 60.9308226,8.16326531 60.2808939,8.97959184 C59.3060007,9.95918367 58.0061432,10.4489796 56.7062856,10.4489796 C55.4064281,10.4489796 53.9440883,9.95918367 53.1316774,8.97959184 C51.994302,8 51.5068554,6.69387755 51.5068554,5.3877551 C51.5068554,3.91836735 51.994302,2.6122449 52.9691952,1.79591837 C53.9440883,0.816326531 55.2439459,0.163265306 56.5438034,0.326530612 C57.1937322,0.326530612 57.843661,0.489795918 58.4935897,0.816326531 C58.9810363,1.14285714 59.6309651,1.30612245 60.1184117,1.95918367 L59.3060007,2.44897959 C58.6560719,1.79591837 57.6811788,1.30612245 56.5438034,1.30612245 C55.4064281,1.30612245 54.4315349,1.79591837 53.6191239,2.6122449 C52.9691952,3.26530612 52.4817486,4.24489796 52.4817486,5.3877551 C52.4817486,6.36734694 52.9691952,7.51020408 53.6191239,8.16326531 C54.2690527,8.81632653 55.2439459,9.30612245 56.3813212,9.30612245 C57.5186966,9.30612245 58.3311075,8.81632653 59.1435185,8.16326531 C59.6309651,7.51020408 59.9559295,6.69387755 60.1184117,6.04081633 L56.5438034,6.04081633 L56.5438034,4.89795918 L61.255787,4.89795918 C61.4182692,5.2244898 61.4182692,5.55102041 61.4182692,5.71428571 L61.4182692,5.71428571 Z" id="path20" stroke="#757575" stroke-width="0.787091696" fill="#757575"></path>
                        <polygon id="path24" stroke="#757575" stroke-width="0.787091696" fill="#757575" points="68.8924501 1.63265306 64.5054309 1.63265306 64.5054309 4.89795918 68.4050036 4.89795918 68.4050036 6.04081633 64.5054309 6.04081633 64.5054309 9.14285714 68.8924501 9.14285714 68.8924501 10.2857143 63.2055734 10.2857143 63.2055734 0.489795918 68.8924501 0.489795918"></polygon>
                        <polygon id="path28" stroke="#757575" stroke-width="0.787091696" fill="#757575" points="74.0918803 10.2857143 72.7920228 10.2857143 72.7920228 1.63265306 70.0298255 1.63265306 70.0298255 0.489795918 76.6915954 0.489795918 76.6915954 1.63265306 73.9293981 1.63265306 73.9293981 10.2857143"></polygon>
                        <path d="M81.7285434,10.2857143 L81.7285434,0.489795918 L83.028401,0.489795918 L83.028401,10.122449 C82.8659188,10.2857143 81.7285434,10.2857143 81.7285434,10.2857143 L81.7285434,10.2857143 Z" id="path32" stroke="#757575" stroke-width="0.787091696" fill="#757575"></path>
                        <path d="M87.252938,10.2857143 L87.252938,1.63265306 L84.4907407,1.63265306 L84.4907407,0.489795918 L91.1525107,0.489795918 L91.1525107,1.63265306 L88.3903134,1.63265306 C88.5527956,1.63265306 88.5527956,10.2857143 88.5527956,10.2857143 L87.252938,10.2857143 Z" id="path36" stroke="#757575" stroke-width="0.787091696" fill="#757575"></path>
                        <path d="M103.988604,8.97959184 C102.038818,10.9387755 98.951656,10.9387755 96.6769053,8.97959184 C95.7020121,8 95.2145655,6.69387755 95.2145655,5.3877551 C95.2145655,4.08163265 95.7020121,2.6122449 96.6769053,1.79591837 C98.7891738,-0.326530612 101.876335,-0.326530612 103.988604,1.63265306 C104.963497,2.6122449 105.450944,3.91836735 105.450944,5.2244898 C105.450944,6.69387755 104.963497,8 103.988604,8.97959184 L103.988604,8.97959184 Z M97.6517984,8.16326531 C99.1141382,9.63265306 101.551371,9.63265306 102.851229,8.16326531 C103.501157,7.51020408 103.988604,6.53061224 103.988604,5.3877551 C103.988604,4.40816327 103.501157,3.42857143 102.851229,2.6122449 C101.388889,1.14285714 98.951656,1.14285714 97.6517984,2.6122449 C97.0018697,3.26530612 96.5144231,4.24489796 96.5144231,5.3877551 C96.5144231,6.36734694 97.0018697,7.34693878 97.6517984,8.16326531 L97.6517984,8.16326531 L97.6517984,8.16326531 Z" id="path40" stroke="#757575" stroke-width="0.787091696" fill="#757575"></path>
                        <polygon id="path44" stroke="#757575" stroke-width="0.787091696" fill="#757575" points="107.238248 10.2857143 107.238248 0.489795918 108.86307 0.489795918 113.575053 8 113.575053 8 113.575053 6.20408163 113.575053 0.489795918 114.874911 0.489795918 114.874911 10.122449 113.575053 10.122449 108.538105 2.12244898 108.538105 2.12244898 108.538105 3.91836735 108.538105 9.95918367 107.238248 10.2857143"></polygon>
                        <path d="M95.0520833,24.3265306 C91.1525107,24.3265306 88.2278312,27.4285714 88.3903134,31.3469388 C88.5527956,35.2653061 91.4774751,38.2040816 95.3770477,38.0408163 C99.1141382,38.0408163 102.038818,34.9387755 102.038818,31.1836735 C102.038818,27.4285714 99.1141382,24.3265306 95.0520833,24.3265306 L95.0520833,24.3265306 L95.0520833,24.3265306 Z M95.0520833,35.4285714 C92.7773326,35.5918367 90.8275463,33.7959184 90.6650641,31.5102041 C90.5025819,29.2244898 92.289886,27.2653061 94.5646368,27.1020408 C96.8393875,26.9387755 98.7891738,28.7346939 98.951656,31.0204082 L98.951656,31.3469388 C99.1141382,33.4693878 97.326834,35.4285714 95.0520833,35.4285714 L95.0520833,35.4285714 L95.0520833,35.4285714 Z M79.9412393,24.3265306 C76.0416667,24.3265306 73.1169872,27.4285714 73.2794694,31.3469388 C73.2794694,35.2653061 76.3666311,38.2040816 80.2662037,38.0408163 C84.0032942,38.0408163 86.9279736,34.9387755 86.9279736,31.1836735 C86.9279736,27.4285714 83.840812,24.3265306 79.9412393,24.3265306 L79.9412393,24.3265306 L79.9412393,24.3265306 L79.9412393,24.3265306 Z M79.9412393,35.4285714 C77.6664886,35.5918367 75.7167023,33.7959184 75.5542201,31.5102041 C75.3917379,29.2244898 77.179042,27.2653061 79.4537927,27.1020408 C81.7285434,26.9387755 83.6783298,28.7346939 83.840812,31.0204082 L83.840812,31.3469388 C83.840812,33.4693878 82.21599,35.4285714 79.9412393,35.4285714 L79.9412393,35.4285714 L79.9412393,35.4285714 L79.9412393,35.4285714 Z M61.9057158,26.4489796 L61.9057158,29.3877551 L69.0549323,29.3877551 C68.8924501,30.8571429 68.4050036,32.1632653 67.4301104,33.1428571 C65.9677707,34.6122449 64.0179843,35.4285714 62.068198,35.2653061 C57.843661,35.1020408 54.5940171,31.3469388 54.7564993,27.1020408 C54.9189815,23.1836735 58.1686254,19.755102 62.068198,19.755102 C64.0179843,19.755102 65.9677707,20.4081633 67.2676282,21.877551 L69.3798967,19.9183673 C67.4301104,17.9591837 64.6679131,16.9795918 62.068198,16.9795918 C56.218839,16.6530612 51.3443732,21.3877551 51.0194088,27.2653061 C50.6944444,33.1428571 55.4064281,38.0408163 61.255787,38.3673469 L62.068198,38.3673469 C64.8303953,38.5306122 67.5925926,37.3877551 69.5423789,35.4285714 C71.4921652,32.9795918 72.4670584,29.877551 71.9796118,26.7755102 L61.9057158,26.7755102 L61.9057158,26.4489796 L61.9057158,26.4489796 Z M135.672632,28.7346939 C134.860221,26.122449 132.422988,24.4897959 129.660791,24.3265306 C126.086182,24.3265306 123.161503,27.1020408 123.161503,30.8571429 L123.161503,31.1836735 C122.999021,34.9387755 125.9237,38.0408163 129.660791,38.2040816 L129.985755,38.2040816 C132.260506,38.2040816 134.535256,37.0612245 135.835114,35.2653061 L133.397881,33.6326531 C132.747952,34.7755102 131.448095,35.4285714 129.985755,35.4285714 C128.523415,35.4285714 127.223558,34.6122449 126.573629,33.3061224 L135.835114,29.3877551 L135.672632,28.7346939 L135.672632,28.7346939 Z M126.248665,31.0204082 C126.086182,28.8979592 127.711004,27.1020408 129.823273,27.1020408 L129.985755,27.1020408 C131.12313,26.9387755 132.098024,27.5918367 132.58547,28.5714286 L126.248665,31.0204082 L126.248665,31.0204082 Z M118.612001,37.7142857 L121.536681,37.7142857 L121.536681,17.4693878 L118.612001,17.4693878 L118.612001,37.7142857 L118.612001,37.7142857 Z M113.737536,25.9591837 L113.737536,25.9591837 C112.60016,24.9795918 111.300303,24.3265306 109.837963,24.3265306 C105.93839,24.4897959 103.176193,27.755102 103.338675,31.6734694 C103.501157,35.2653061 106.263355,38.0408163 109.837963,38.2040816 C111.300303,38.2040816 112.60016,37.7142857 113.575053,36.5714286 L113.737536,36.5714286 L113.737536,37.5510204 C114.0625,39.5102041 112.762642,41.3061224 110.812856,41.4693878 L110.162927,41.4693878 C108.538105,41.4693878 107.238248,40.4897959 106.588319,39.0204082 L103.988604,40.1632653 C104.963497,42.6122449 107.40073,44.244898 110.162927,44.244898 C113.737536,44.244898 116.662215,42.122449 116.662215,37.0612245 L116.662215,24.8163265 L113.737536,24.8163265 C113.737536,24.8163265 113.737536,25.9591837 113.737536,25.9591837 L113.737536,25.9591837 Z M110.162927,35.4285714 C107.888177,35.2653061 106.263355,33.3061224 106.263355,31.0204082 C106.425837,28.8979592 108.050659,27.1020408 110.162927,27.1020408 C112.275196,27.2653061 114.0625,28.8979592 113.900018,31.1836735 L113.900018,31.3469388 C114.0625,33.6326531 112.437678,35.4285714 110.162927,35.4285714 L110.162927,35.4285714 L110.162927,35.4285714 Z M149.808583,17.4693878 L142.496884,17.4693878 L142.496884,37.7142857 L145.421563,37.7142857 L145.421563,30.0408163 L149.6461,30.0408163 C153.058226,30.3673469 155.982906,27.5918367 156.30787,24.1632653 C156.632835,20.7346939 153.870637,17.7959184 150.458511,17.4693878 C150.458511,17.4693878 150.133547,17.4693878 149.808583,17.4693878 L149.808583,17.4693878 L149.808583,17.4693878 Z M149.808583,27.2653061 L145.584046,27.2653061 L145.584046,20.244898 L149.808583,20.244898 C151.758369,20.244898 153.383191,21.877551 153.383191,23.6734694 C153.383191,25.6326531 151.920851,27.2653061 149.808583,27.2653061 L149.808583,27.2653061 L149.808583,27.2653061 L149.808583,27.2653061 Z M168.818999,24.3265306 C166.544249,24.1632653 164.43198,25.4693878 163.457087,27.4285714 L166.219284,28.5714286 C166.706731,27.5918367 167.844106,26.9387755 168.981481,27.1020408 C170.606303,26.9387755 172.068643,28.0816327 172.231125,29.7142857 L172.231125,29.7142857 L172.231125,29.877551 C171.256232,29.3877551 170.118857,29.0612245 168.981481,29.2244898 C166.219284,29.2244898 163.132123,30.8571429 163.132123,33.7959184 C163.294605,36.4081633 165.406873,38.3673469 168.169071,38.2040816 L168.331553,38.2040816 C169.956375,38.3673469 171.256232,37.5510204 172.231125,36.244898 L172.393608,36.244898 L172.393608,37.877551 L175.318287,37.877551 L175.318287,30.0408163 C174.993323,26.4489796 172.231125,24.3265306 168.818999,24.3265306 L168.818999,24.3265306 L168.818999,24.3265306 Z M168.331553,35.4285714 C167.194177,35.5918367 166.219284,34.9387755 165.89432,33.7959184 C165.89432,32.1632653 167.519142,31.6734694 169.143964,31.6734694 C170.118857,31.6734694 171.09375,32 171.906161,32.3265306 C171.743679,34.122449 170.118857,35.4285714 168.331553,35.4285714 L168.331553,35.4285714 L168.331553,35.4285714 Z M185.554665,24.8163265 L181.980057,33.4693878 L181.980057,33.4693878 L178.405449,24.8163265 L175.155805,24.8163265 L180.517717,37.0612245 L177.430556,43.9183673 L180.680199,43.9183673 L189.129274,24.8163265 L185.554665,24.8163265 L185.554665,24.8163265 L185.554665,24.8163265 Z M158.257657,37.7142857 L161.182336,37.7142857 L161.182336,17.4693878 L158.257657,17.4693878 L158.257657,37.7142857 L158.257657,37.7142857 Z" id="path46" fill="#757575"></path>
                    </g>
                </g>
            </g>
        </g>
    </g>
</svg>