<?xml version="1.0" encoding="UTF-8"?>
<svg width="23px" height="19px" viewBox="0 0 23 19" version="1.1" xmlns="http://www.w3.org/2000/svg" xmlns:xlink="http://www.w3.org/1999/xlink">
    <!-- Generator: sketchtool 40.3 (33839) - http://www.bohemiancoding.com/sketch -->
    <title>E884A300-7B29-40AB-8C2E-D0F985E45FCF</title>
    <desc>Created with sketchtool.</desc>
    <defs>
        <polygon id="path-1" points="4.60000001e-05 18.5531293 22.66098 18.5531293 22.66098 -9.26829271e-05 4.60000001e-05 -9.26829271e-05 4.60000001e-05 18.5531293"></polygon>
    </defs>
    <g id="Designs" stroke="none" stroke-width="1" fill="none" fill-rule="evenodd">
        <g id="Luno-home-web-02a" transform="translate(-154.000000, -5143.000000)">
            <g id="//-Footer" transform="translate(0.000000, 4999.000000)">
                <g id="Group-11">
                    <g transform="translate(113.000000, 142.000000)">
                        <g id="twitter" transform="translate(41.000000, 2.000000)">
                            <mask id="mask-2" fill="white">
                                <use xlink:href="#path-1"></use>
                            </mask>
                            <g id="Clip-2"></g>
                            <path d="M22.661026,2.19602927 C21.827966,2.56907805 20.931426,2.8207122 19.990726,2.93332195 C20.950746,2.35405366 21.687666,1.43649268 22.034966,0.341907317 C21.136586,0.879004878 20.142066,1.26873659 19.082686,1.47912683 C18.234906,0.568980488 17.026486,-9.26829271e-05 15.689266,-9.26829271e-05 C13.122006,-9.26829271e-05 11.040046,2.09732195 11.040046,4.68363902 C11.040046,5.05066341 11.081446,5.4079561 11.160566,5.75088293 C7.296566,5.55578537 3.870486,3.69146829 1.577846,0.85722439 C1.177646,1.54910244 0.948106,2.35312683 0.948106,3.21183415 C0.948106,4.83702927 1.769206,6.27037073 3.016266,7.11054146 C2.254506,7.08598049 1.537366,6.87559024 0.910846,6.52432195 C0.910386,6.54378537 0.910386,6.5637122 0.910386,6.58363902 C0.910386,8.85251707 2.513026,10.7455659 4.640066,11.176078 C4.249986,11.2831268 3.839206,11.3405902 3.415086,11.3405902 C3.115166,11.3405902 2.823986,11.3113951 2.540166,11.2562488 C3.132186,13.1168585 4.848906,14.4714195 6.883026,14.5089561 C5.291886,15.7652732 3.287206,16.5141512 1.109106,16.5141512 C0.733746,16.5141512 0.363906,16.4919073 4.60000001e-05,16.4488098 C2.057626,17.7778829 4.501606,18.5531756 7.126826,18.5531756 C15.678686,18.5531756 20.354586,11.4161268 20.354586,5.22676098 C20.354586,5.02378537 20.350446,4.82127317 20.341706,4.62061463 C21.249746,3.9607122 22.038186,3.13537073 22.661026,2.19602927" id="Fill-1" fill="#BDBDBD" mask="url(#mask-2)"></path>
                        </g>
                    </g>
                </g>
            </g>
        </g>
    </g>
</svg>