<?xml version="1.0" encoding="UTF-8"?>
<svg width="172px" height="43px" viewBox="0 0 172 43" version="1.1" xmlns="http://www.w3.org/2000/svg" xmlns:xlink="http://www.w3.org/1999/xlink">
    <!-- Generator: Sketch 41.2 (35397) - http://www.bohemiancoding.com/sketch -->
    <title>Group 5</title>
    <desc>Created with Sketch.</desc>
    <defs></defs>
    <g id="Design" stroke="none" stroke-width="1" fill="none" fill-rule="evenodd">
        <g transform="translate(-361.000000, -400.000000)" id="Top" fill="#FFFFFF">
            <g>
                <g id="Web" transform="translate(342.000000, 388.000000)">
                    <g id="Group-5" transform="translate(19.000000, 12.000000)">
                        <path d="M37.3994169,33.5752427 C39.4478863,33.5752427 41.1239067,31.8811893 41.1239067,29.8106796 L41.1239067,10.9878641 C41.1239067,8.91735437 39.4478863,7.22330097 37.3994169,7.22330097 L7.60349854,7.22330097 C5.55502915,7.22330097 3.87900875,8.91735437 3.87900875,10.9878641 L3.87900875,29.8106796 C3.87900875,31.8811893 5.55502915,33.5752427 7.60349854,33.5752427 L0.15451895,33.5752427 L0.15451895,37.3398058 L44.8483965,37.3398058 L44.8483965,33.5752427 L37.3994169,33.5752427 L37.3994169,33.5752427 Z M7.81632653,11.0679612 L37.8250729,11.0679612 L37.8250729,29.6504854 L7.81632653,29.6504854 L7.81632653,11.0679612 L7.81632653,11.0679612 Z" id="Shape"></path>
                        <path d="M72.0242119,9.565 C72.0242119,9.29937367 71.9838477,9.06500102 71.9031182,8.861875 C71.8223886,8.65874898 71.6791609,8.47255293 71.4734307,8.30328125 C71.2677005,8.13400957 70.9903595,7.97515699 70.6413994,7.82671875 C70.2924393,7.67828051 69.8497354,7.52593828 69.3132744,7.3696875 C68.7507716,7.20822836 68.2416621,7.02463645 67.7859307,6.81890625 C67.3301992,6.61317605 66.9421823,6.37619926 66.6218682,6.10796875 C66.3015541,5.83973824 66.0554628,5.53375172 65.8835869,5.19 C65.7117111,4.84624828 65.6257744,4.45302305 65.6257744,4.0103125 C65.6257744,3.56760195 65.7182214,3.1574498 65.9031182,2.77984375 C66.0880149,2.4022377 66.3497311,2.07411598 66.6882744,1.79546875 C67.0268178,1.51682152 67.4330637,1.29937578 67.9070244,1.143125 C68.3809851,0.986874219 68.9096257,0.90875 69.4929619,0.90875 C70.1335901,0.90875 70.7038969,1.0051032 71.2038994,1.1978125 C71.7039019,1.3905218 72.1244706,1.64572758 72.4656182,1.9634375 C72.8067657,2.28114742 73.0658777,2.64833125 73.2429619,3.065 C73.4200461,3.48166875 73.5085869,3.91135195 73.5085869,4.3540625 L72.0007744,4.3540625 C72.0007744,4.03635258 71.9499937,3.74208469 71.8484307,3.47125 C71.7468677,3.20041531 71.5919213,2.96604266 71.3835869,2.768125 C71.1752525,2.57020734 70.9148385,2.41656305 70.6023369,2.3071875 C70.2898354,2.19781195 69.9200474,2.143125 69.4929619,2.143125 C69.0919182,2.143125 68.7429634,2.18999953 68.4460869,2.28375 C68.1492104,2.37750047 67.9044212,2.50640543 67.7117119,2.67046875 C67.5190026,2.83453207 67.3757749,3.02854055 67.2820244,3.2525 C67.1882739,3.47645945 67.1413994,3.72124867 67.1413994,3.986875 C67.1413994,4.22645953 67.1921802,4.44520734 67.2937432,4.643125 C67.3953062,4.84104266 67.5528567,5.0233325 67.7663994,5.19 C67.9799422,5.3566675 68.254679,5.5103118 68.5906182,5.6509375 C68.9265573,5.7915632 69.3288971,5.92697852 69.7976494,6.0571875 C70.443486,6.23948008 71.0007721,6.44130098 71.4695244,6.66265625 C71.9382768,6.88401152 72.3249916,7.13531109 72.6296807,7.4165625 C72.9343697,7.69781391 73.1609299,8.01291492 73.3093682,8.361875 C73.4578064,8.71083508 73.5320244,9.10666445 73.5320244,9.549375 C73.5320244,10.012919 73.4382754,10.4321856 73.2507744,10.8071875 C73.0632735,11.1821894 72.7963491,11.5024987 72.4499932,11.768125 C72.1036373,12.0337513 71.6869748,12.2381764 71.1999932,12.3814063 C70.7130116,12.5246361 70.1700482,12.59625 69.5710869,12.59625 C69.2221268,12.59625 68.873172,12.5636982 68.5242119,12.4985938 C68.1752518,12.4334893 67.8406198,12.335834 67.5203057,12.205625 C67.1999916,12.075416 66.9031195,11.9139593 66.6296807,11.72125 C66.3562418,11.5285407 66.1179629,11.3045846 65.9148369,11.049375 C65.7117109,10.7941654 65.5528583,10.5077099 65.4382744,10.19 C65.3236905,9.87229008 65.2663994,9.52333523 65.2663994,9.143125 L66.7742119,9.143125 C66.7742119,9.53375195 66.8510341,9.86838402 67.0046807,10.1470313 C67.1583273,10.4256785 67.3640544,10.6561449 67.6218682,10.8384375 C67.879682,11.0207301 68.176554,11.1548433 68.5124932,11.2407813 C68.8484323,11.3267192 69.2012934,11.3696875 69.5710869,11.3696875 C70.3627575,11.3696875 70.9695223,11.2082308 71.3913994,10.8853125 C71.8132765,10.5623942 72.0242119,10.1222945 72.0242119,9.565 Z M76.9736494,12.44 L75.5283369,12.44 L75.5283369,3.986875 L76.9736494,3.986875 L76.9736494,12.44 Z M75.4111494,1.7446875 C75.4111494,1.51031133 75.4827633,1.31239664 75.6259932,1.1509375 C75.769223,0.989478359 75.9814605,0.90875 76.2627119,0.90875 C76.5439633,0.90875 76.7575029,0.989478359 76.9033369,1.1509375 C77.049171,1.31239664 77.1220869,1.51031133 77.1220869,1.7446875 C77.1220869,1.97906367 77.049171,2.17437422 76.9033369,2.330625 C76.7575029,2.48687578 76.5439633,2.565 76.2627119,2.565 C75.9814605,2.565 75.769223,2.48687578 75.6259932,2.330625 C75.4827633,2.17437422 75.4111494,1.97906367 75.4111494,1.7446875 Z M79.1183994,8.143125 C79.1183994,7.49728844 79.1952216,6.91005473 79.3488682,6.38140625 C79.5025148,5.85275777 79.7238667,5.3996373 80.0129307,5.02203125 C80.3019946,4.6444252 80.6522515,4.35145938 81.0637119,4.143125 C81.4751723,3.93479063 81.9387093,3.830625 82.4543369,3.830625 C82.9907979,3.830625 83.4569391,3.92437406 83.8527744,4.111875 C84.2486097,4.29937594 84.587148,4.57020656 84.8683994,4.924375 L84.9387119,3.986875 L86.2590244,3.986875 L86.2590244,12.2603125 C86.2590244,12.817607 86.1717857,13.3136957 85.9973057,13.7485938 C85.8228256,14.1834918 85.5767343,14.5506756 85.2590244,14.8501563 C84.9413145,15.1496369 84.5637141,15.3774992 84.1262119,15.53375 C83.6887097,15.6900008 83.2043396,15.768125 82.6730869,15.768125 C82.4543358,15.768125 82.2030363,15.7433857 81.9191807,15.6939063 C81.6353251,15.6444268 81.3488696,15.5636985 81.0598057,15.4517188 C80.7707417,15.339739 80.4934007,15.1900009 80.2277744,15.0025 C79.9621481,14.8149991 79.7355879,14.5832305 79.5480869,14.3071875 L80.2980869,13.44 C80.4751711,13.6587511 80.657461,13.8410409 80.8449619,13.986875 C81.0324629,14.1327091 81.221263,14.2498954 81.4113682,14.3384375 C81.6014733,14.4269796 81.7941797,14.4907811 81.9894932,14.5298438 C82.1848066,14.5689064 82.3788151,14.5884375 82.5715244,14.5884375 C82.9100678,14.5884375 83.2173564,14.5402609 83.4933994,14.4439063 C83.7694425,14.3475516 84.0051172,14.2030218 84.2004307,14.0103125 C84.3957441,13.8176032 84.5454822,13.5819285 84.6496494,13.3032813 C84.7538166,13.024634 84.8058994,12.7004185 84.8058994,12.330625 L84.8058994,11.59625 C84.524648,11.9191683 84.1900159,12.1665616 83.8019932,12.3384375 C83.4139704,12.5103134 82.9595479,12.59625 82.4387119,12.59625 C81.9335011,12.59625 81.4764744,12.4894802 81.0676182,12.2759375 C80.658762,12.0623948 80.3098071,11.7642207 80.0207432,11.3814063 C79.7316792,10.9985918 79.5090252,10.5454714 79.3527744,10.0220313 C79.1965236,9.49859113 79.1183994,8.92698227 79.1183994,8.3071875 L79.1183994,8.143125 Z M80.5715244,8.3071875 C80.5715244,8.72906461 80.6144927,9.12619605 80.7004307,9.49859375 C80.7863686,9.87099145 80.9191798,10.195207 81.0988682,10.47125 C81.2785566,10.747293 81.509023,10.9660409 81.7902744,11.1275 C82.0715258,11.2889591 82.40746,11.3696875 82.7980869,11.3696875 C83.0532965,11.3696875 83.283763,11.3384378 83.4894932,11.2759375 C83.6952234,11.2134372 83.8801173,11.1275005 84.0441807,11.018125 C84.208244,10.9087495 84.3527738,10.7785424 84.4777744,10.6275 C84.602775,10.4764576 84.7121489,10.3097926 84.8058994,10.1275 L84.8058994,6.268125 C84.7121489,6.09624914 84.602775,5.93609449 84.4777744,5.78765625 C84.3527738,5.63921801 84.208244,5.51031305 84.0441807,5.4009375 C83.8801173,5.29156195 83.6965254,5.20692738 83.4933994,5.14703125 C83.2902734,5.08713512 83.0637132,5.0571875 82.8137119,5.0571875 C82.4178766,5.0571875 82.0793383,5.13921793 81.7980869,5.30328125 C81.5168355,5.46734457 81.285067,5.68999859 81.1027744,5.97125 C80.9204818,6.25250141 80.7863686,6.57932105 80.7004307,6.95171875 C80.6144927,7.32411645 80.5715244,7.72124789 80.5715244,8.143125 L80.5715244,8.3071875 Z M89.9818994,3.986875 L90.0287744,5.049375 C90.3308593,4.66916477 90.6954389,4.37099066 91.1225244,4.15484375 C91.5496099,3.93869684 92.0287718,3.830625 92.5600244,3.830625 C92.9714848,3.830625 93.3438769,3.88661402 93.6772119,3.99859375 C94.0105469,4.11057348 94.2943982,4.29025918 94.5287744,4.53765625 C94.7631506,4.78505332 94.9441384,5.10275848 95.0717432,5.49078125 C95.199348,5.87880402 95.2631494,6.34885141 95.2631494,6.9009375 L95.2631494,12.44 L93.8178369,12.44 L93.8178369,6.8853125 C93.8178369,6.55718586 93.7813789,6.27724074 93.7084619,6.04546875 C93.6355449,5.81369676 93.527473,5.62489656 93.3842432,5.4790625 C93.2410133,5.33322844 93.0639317,5.22645867 92.8529932,5.15875 C92.6420546,5.09104133 92.3985675,5.0571875 92.1225244,5.0571875 C91.6537721,5.0571875 91.2423179,5.18218625 90.8881494,5.4321875 C90.533981,5.68218875 90.2579421,6.01031047 90.0600244,6.4165625 L90.0600244,12.44 L88.6147119,12.44 L88.6147119,3.986875 L89.9818994,3.986875 Z M106.974524,11.6040625 C106.708898,11.9165641 106.372964,12.1600512 105.966712,12.3345313 C105.56046,12.5090113 105.070881,12.59625 104.497962,12.59625 C104.081293,12.59625 103.703693,12.5376568 103.365149,12.4204688 C103.026606,12.3032807 102.734942,12.1183867 102.490149,11.8657813 C102.245357,11.6131758 102.056556,11.2876582 101.923743,10.8892188 C101.79093,10.4907793 101.724524,10.0103153 101.724524,9.4478125 L101.724524,3.986875 L103.169837,3.986875 L103.169837,9.4634375 C103.169837,9.84364773 103.214107,10.1574467 103.302649,10.4048438 C103.391192,10.6522408 103.508378,10.8475514 103.654212,10.9907813 C103.800046,11.1340111 103.966711,11.2329685 104.154212,11.2876563 C104.341713,11.342344 104.534419,11.3696875 104.732337,11.3696875 C105.320882,11.3696875 105.793533,11.2577095 106.150306,11.03375 C106.507078,10.8097905 106.768794,10.5103144 106.935462,10.1353125 L106.935462,3.986875 L108.380774,3.986875 L108.380774,12.44 L107.005774,12.44 L106.974524,11.6040625 Z M117.892712,8.3071875 C117.892712,8.92698227 117.819796,9.49859113 117.673962,10.0220313 C117.528128,10.5454714 117.31589,10.9985918 117.037243,11.3814063 C116.758596,11.7642207 116.416151,12.0623948 116.009899,12.2759375 C115.603647,12.4894802 115.14011,12.59625 114.619274,12.59625 C114.088022,12.59625 113.623183,12.5129175 113.224743,12.34625 C112.826304,12.1795825 112.483859,11.9373974 112.197399,11.6196875 L112.197399,15.69 L110.752087,15.69 L110.752087,3.986875 L112.072399,3.986875 L112.142712,4.924375 C112.429172,4.57020656 112.775522,4.29937594 113.181774,4.111875 C113.588026,3.92437406 114.059376,3.830625 114.595837,3.830625 C115.12709,3.830625 115.597137,3.93479063 116.005993,4.143125 C116.414849,4.35145938 116.759898,4.6444252 117.041149,5.02203125 C117.322401,5.3996373 117.534638,5.85275777 117.677868,6.38140625 C117.821098,6.91005473 117.892712,7.49728844 117.892712,8.143125 L117.892712,8.3071875 Z M116.447399,8.143125 C116.447399,7.72124789 116.403129,7.32411645 116.314587,6.95171875 C116.226045,6.57932105 116.088025,6.25250141 115.900524,5.97125 C115.713023,5.68999859 115.476047,5.46734457 115.189587,5.30328125 C114.903127,5.13921793 114.561985,5.0571875 114.166149,5.0571875 C113.921357,5.0571875 113.698702,5.08583305 113.498181,5.143125 C113.297659,5.20041695 113.116671,5.28114531 112.955212,5.3853125 C112.793753,5.48947969 112.650525,5.61317637 112.525524,5.75640625 C112.400524,5.89963613 112.29115,6.0545825 112.197399,6.22125 L112.197399,10.2603125 C112.29115,10.42698 112.400524,10.5819264 112.525524,10.7251563 C112.650525,10.8683861 112.793753,10.9907807 112.955212,11.0923438 C113.116671,11.1939068 113.298961,11.273333 113.502087,11.330625 C113.705213,11.387917 113.931773,11.4165625 114.181774,11.4165625 C114.572401,11.4165625 114.909638,11.33323 115.193493,11.1665625 C115.477349,10.999895 115.713023,10.7759389 115.900524,10.4946875 C116.088025,10.2134361 116.226045,9.8840123 116.314587,9.50640625 C116.403129,9.1288002 116.447399,8.72906461 116.447399,8.3071875 L116.447399,8.143125 Z M123.658774,8.1353125 C123.658774,7.52072609 123.748617,6.95172137 123.928306,6.42828125 C124.107994,5.90484113 124.3632,5.45041859 124.693931,5.065 C125.024661,4.67958141 125.427001,4.37750109 125.900962,4.15875 C126.374923,3.93999891 126.906167,3.830625 127.494712,3.830625 C128.093673,3.830625 128.631428,3.93999891 129.107993,4.15875 C129.584558,4.37750109 129.989502,4.67958141 130.322837,5.065 C130.656172,5.45041859 130.911378,5.90484113 131.088462,6.42828125 C131.265546,6.95172137 131.354087,7.52072609 131.354087,8.1353125 L131.354087,8.3071875 C131.354087,8.92177391 131.265546,9.49077863 131.088462,10.0142188 C130.911378,10.5376589 130.656172,10.9907793 130.322837,11.3735938 C129.989502,11.7564082 129.58586,12.0558843 129.111899,12.2720313 C128.637939,12.4881782 128.10409,12.59625 127.510337,12.59625 C126.916584,12.59625 126.382735,12.4881782 125.908774,12.2720313 C125.434814,12.0558843 125.031172,11.7564082 124.697837,11.3735938 C124.364502,10.9907793 124.107994,10.5376589 123.928306,10.0142188 C123.748617,9.49077863 123.658774,8.92177391 123.658774,8.3071875 L123.658774,8.1353125 Z M125.111899,8.3071875 C125.111899,8.72906461 125.161378,9.12749813 125.260337,9.5025 C125.359296,9.87750188 125.509034,10.2069257 125.709556,10.4907813 C125.910077,10.7746368 126.160075,10.999895 126.459556,11.1665625 C126.759036,11.33323 127.109293,11.4165625 127.510337,11.4165625 C127.906172,11.4165625 128.255127,11.33323 128.557212,11.1665625 C128.859297,10.999895 129.109294,10.7746368 129.307212,10.4907813 C129.50513,10.2069257 129.654868,9.87750188 129.756431,9.5025 C129.857994,9.12749813 129.908774,8.72906461 129.908774,8.3071875 L129.908774,8.1353125 C129.908774,7.71864375 129.857994,7.3215123 129.756431,6.94390625 C129.654868,6.5663002 129.503827,6.23557434 129.303306,5.95171875 C129.102784,5.66786316 128.851484,5.44130293 128.549399,5.27203125 C128.247315,5.10275957 127.895756,5.018125 127.494712,5.018125 C127.098877,5.018125 126.752526,5.10275957 126.455649,5.27203125 C126.158773,5.44130293 125.910077,5.66786316 125.709556,5.95171875 C125.509034,6.23557434 125.359296,6.5663002 125.260337,6.94390625 C125.161378,7.3215123 125.111899,7.71864375 125.111899,8.1353125 L125.111899,8.3071875 Z M134.709774,3.986875 L134.756649,5.049375 C135.058734,4.66916477 135.423314,4.37099066 135.850399,4.15484375 C136.277485,3.93869684 136.756647,3.830625 137.287899,3.830625 C137.69936,3.830625 138.071752,3.88661402 138.405087,3.99859375 C138.738422,4.11057348 139.022273,4.29025918 139.256649,4.53765625 C139.491026,4.78505332 139.672013,5.10275848 139.799618,5.49078125 C139.927223,5.87880402 139.991024,6.34885141 139.991024,6.9009375 L139.991024,12.44 L138.545712,12.44 L138.545712,6.8853125 C138.545712,6.55718586 138.509254,6.27724074 138.436337,6.04546875 C138.36342,5.81369676 138.255348,5.62489656 138.112118,5.4790625 C137.968888,5.33322844 137.791807,5.22645867 137.580868,5.15875 C137.36993,5.09104133 137.126442,5.0571875 136.850399,5.0571875 C136.381647,5.0571875 135.970193,5.18218625 135.616024,5.4321875 C135.261856,5.68218875 134.985817,6.01031047 134.787899,6.4165625 L134.787899,12.44 L133.342587,12.44 L133.342587,3.986875 L134.709774,3.986875 Z M146.100837,8.1353125 C146.100837,7.52072609 146.19068,6.95172137 146.370368,6.42828125 C146.550057,5.90484113 146.805262,5.45041859 147.135993,5.065 C147.466724,4.67958141 147.869064,4.37750109 148.343024,4.15875 C148.816985,3.93999891 149.34823,3.830625 149.936774,3.830625 C150.535736,3.830625 151.073491,3.93999891 151.550056,4.15875 C152.026621,4.37750109 152.431564,4.67958141 152.764899,5.065 C153.098234,5.45041859 153.35344,5.90484113 153.530524,6.42828125 C153.707609,6.95172137 153.796149,7.52072609 153.796149,8.1353125 L153.796149,8.3071875 C153.796149,8.92177391 153.707609,9.49077863 153.530524,10.0142188 C153.35344,10.5376589 153.098234,10.9907793 152.764899,11.3735938 C152.431564,11.7564082 152.027923,12.0558843 151.553962,12.2720313 C151.080001,12.4881782 150.546152,12.59625 149.952399,12.59625 C149.358646,12.59625 148.824798,12.4881782 148.350837,12.2720313 C147.876876,12.0558843 147.473234,11.7564082 147.139899,11.3735938 C146.806564,10.9907793 146.550057,10.5376589 146.370368,10.0142188 C146.19068,9.49077863 146.100837,8.92177391 146.100837,8.3071875 L146.100837,8.1353125 Z M147.553962,8.3071875 C147.553962,8.72906461 147.603441,9.12749813 147.702399,9.5025 C147.801358,9.87750188 147.951096,10.2069257 148.151618,10.4907813 C148.35214,10.7746368 148.602137,10.999895 148.901618,11.1665625 C149.201099,11.33323 149.551356,11.4165625 149.952399,11.4165625 C150.348235,11.4165625 150.69719,11.33323 150.999274,11.1665625 C151.301359,10.999895 151.551357,10.7746368 151.749274,10.4907813 C151.947192,10.2069257 152.09693,9.87750188 152.198493,9.5025 C152.300056,9.12749813 152.350837,8.72906461 152.350837,8.3071875 L152.350837,8.1353125 C152.350837,7.71864375 152.300056,7.3215123 152.198493,6.94390625 C152.09693,6.5663002 151.94589,6.23557434 151.745368,5.95171875 C151.544846,5.66786316 151.293547,5.44130293 150.991462,5.27203125 C150.689377,5.10275957 150.337818,5.018125 149.936774,5.018125 C149.540939,5.018125 149.194588,5.10275957 148.897712,5.27203125 C148.600835,5.44130293 148.35214,5.66786316 148.151618,5.95171875 C147.951096,6.23557434 147.801358,6.5663002 147.702399,6.94390625 C147.603441,7.3215123 147.553962,7.71864375 147.553962,8.1353125 L147.553962,8.3071875 Z M161.003399,11.6040625 C160.737773,11.9165641 160.401839,12.1600512 159.995587,12.3345313 C159.589335,12.5090113 159.099756,12.59625 158.526837,12.59625 C158.110168,12.59625 157.732568,12.5376568 157.394024,12.4204688 C157.055481,12.3032807 156.763817,12.1183867 156.519024,11.8657813 C156.274232,11.6131758 156.085431,11.2876582 155.952618,10.8892188 C155.819805,10.4907793 155.753399,10.0103153 155.753399,9.4478125 L155.753399,3.986875 L157.198712,3.986875 L157.198712,9.4634375 C157.198712,9.84364773 157.242982,10.1574467 157.331524,10.4048438 C157.420067,10.6522408 157.537253,10.8475514 157.683087,10.9907813 C157.828921,11.1340111 157.995586,11.2329685 158.183087,11.2876563 C158.370588,11.342344 158.563294,11.3696875 158.761212,11.3696875 C159.349757,11.3696875 159.822408,11.2577095 160.179181,11.03375 C160.535953,10.8097905 160.797669,10.5103144 160.964337,10.1353125 L160.964337,3.986875 L162.409649,3.986875 L162.409649,12.44 L161.034649,12.44 L161.003399,11.6040625 Z M168.866899,5.28375 C168.741899,5.26291656 168.626015,5.24859379 168.519243,5.24078125 C168.412472,5.23296871 168.291379,5.2290625 168.155962,5.2290625 C167.655959,5.2290625 167.248411,5.33843641 166.933306,5.5571875 C166.6182,5.77593859 166.382525,6.07020648 166.226274,6.44 L166.226274,12.44 L164.780962,12.44 L164.780962,3.986875 L166.187212,3.986875 L166.210649,4.9634375 C166.4294,4.61447742 166.702835,4.33843852 167.030962,4.1353125 C167.359089,3.93218648 167.757522,3.830625 168.226274,3.830625 C168.330442,3.830625 168.450232,3.84234363 168.585649,3.86578125 C168.721067,3.88921887 168.814816,3.9139582 168.866899,3.94 L168.866899,5.28375 Z M83.1851494,36.705 L86.4051494,20.95 L90.0132744,20.95 L85.1832744,41.88 L81.7045244,41.88 L77.7226494,26.599375 L73.6545244,41.88 L70.1613994,41.88 L65.3313994,20.95 L68.9395244,20.95 L72.1882744,36.67625 L76.1845244,20.95 L79.2320244,20.95 L83.1851494,36.705 Z M99.0627394,42.1675 C97.9127337,42.1675 96.877744,41.9758353 95.9577394,41.5925 C95.0377348,41.2091648 94.256701,40.6820867 93.6146144,40.01125 C92.9725279,39.3404133 92.4789911,38.5450046 92.1339894,37.625 C91.7889877,36.7049954 91.6164894,35.7131303 91.6164894,34.649375 L91.6164894,34.074375 C91.6164894,32.8477022 91.7985709,31.7384425 92.1627394,30.7465625 C92.5269079,29.7546825 93.0252362,28.9113576 93.6577394,28.2165625 C94.2902426,27.5217674 95.0353393,26.9851061 95.8930519,26.6065625 C96.7507645,26.2280189 97.6731511,26.03875 98.6602394,26.03875 C99.7910784,26.03875 100.77336,26.2280189 101.607114,26.6065625 C102.440869,26.9851061 103.130862,27.5145799 103.677114,28.195 C104.223367,28.8754201 104.630655,29.6852036 104.898989,30.624375 C105.167324,31.5635464 105.301489,32.5937444 105.301489,33.715 L105.301489,35.21 L95.1383644,35.21 C95.1862813,35.813753 95.3132592,36.3695808 95.5193019,36.8775 C95.7253446,37.3854192 96.0056543,37.8238523 96.3602394,38.1928125 C96.7148245,38.5617727 97.1340912,38.8516656 97.6180519,39.0625 C98.1020127,39.2733344 98.650653,39.37875 99.2639894,39.37875 C100.126494,39.37875 100.876382,39.2062517 101.513677,38.86125 C102.150972,38.5162483 102.704404,38.041878 103.173989,37.438125 L105.057114,39.235 C104.807946,39.6087519 104.498887,39.9705191 104.129927,40.3203125 C103.760967,40.6701059 103.329721,40.9815611 102.836177,41.2546875 C102.342633,41.5278139 101.784409,41.7482283 101.161489,41.9159375 C100.53857,42.0836467 99.8389933,42.1675 99.0627394,42.1675 Z M98.6458644,28.841875 C97.6875263,28.841875 96.9136799,29.1772883 96.3243019,29.848125 C95.734924,30.5189617 95.3587819,31.4533273 95.1958644,32.65125 L101.851489,32.65125 L101.851489,32.3925 C101.822739,31.9324977 101.748469,31.489273 101.628677,31.0628125 C101.508885,30.636352 101.324407,30.2578142 101.075239,29.9271875 C100.826071,29.5965608 100.502637,29.3330218 100.104927,29.1365625 C99.7072166,28.9401032 99.2208673,28.841875 98.6458644,28.841875 Z M121.984079,34.26125 C121.984079,35.4112558 121.85231,36.4702035 121.588767,37.438125 C121.325224,38.4060465 120.939499,39.2397882 120.431579,39.939375 C119.92366,40.6389618 119.291167,41.1852064 118.534079,41.578125 C117.776992,41.9710436 116.904918,42.1675 115.917829,42.1675 C114.969075,42.1675 114.144916,41.9973975 113.445329,41.6571875 C112.745743,41.3169775 112.151582,40.8306282 111.662829,40.198125 L111.490329,41.88 L108.327829,41.88 L108.327829,19.8 L111.820954,19.8 L111.820954,27.82125 C112.309707,27.2462471 112.887097,26.8054182 113.553142,26.49875 C114.219187,26.1920818 114.997825,26.03875 115.889079,26.03875 C116.895334,26.03875 117.776992,26.2328106 118.534079,26.6209375 C119.291167,27.0090644 119.926056,27.5529132 120.438767,28.2525 C120.951478,28.9520868 121.337203,29.7882243 121.595954,30.7609375 C121.854706,31.7336507 121.984079,32.7997859 121.984079,33.959375 L121.984079,34.26125 Z M118.490954,33.959375 C118.490954,33.2789549 118.435851,32.6320864 118.325642,32.01875 C118.215433,31.4054136 118.026164,30.8687523 117.757829,30.40875 C117.489495,29.9487477 117.132519,29.5821889 116.686892,29.3090625 C116.241265,29.0359361 115.683041,28.899375 115.012204,28.899375 C114.197617,28.899375 113.531582,29.0790607 113.014079,29.4384375 C112.496577,29.7978143 112.098872,30.279372 111.820954,30.883125 L111.820954,37.294375 C112.098872,37.898128 112.498973,38.3868731 113.021267,38.760625 C113.543561,39.1343769 114.216784,39.32125 115.040954,39.32125 C115.683041,39.32125 116.224494,39.1894805 116.665329,38.9259375 C117.106165,38.6623945 117.463141,38.3030231 117.736267,37.8478125 C118.009393,37.3926019 118.203454,36.8583364 118.318454,36.245 C118.433455,35.6316636 118.490954,34.9704202 118.490954,34.26125 L118.490954,33.959375 Z M133.951669,37.65375 C133.951669,37.4045821 133.910941,37.1721886 133.829482,36.9565625 C133.748023,36.7409364 133.587504,36.5396884 133.347919,36.3528125 C133.108335,36.1659366 132.770526,35.9910425 132.334482,35.828125 C131.898438,35.6652075 131.330631,35.5118757 130.631044,35.368125 C129.79729,35.1956241 129.037819,34.9800013 128.352607,34.72125 C127.667395,34.4624987 127.080422,34.1486477 126.591669,33.7796875 C126.102917,33.4107273 125.721983,32.9770858 125.448857,32.47875 C125.175731,31.9804142 125.039169,31.4054199 125.039169,30.75375 C125.039169,30.1212468 125.178126,29.5198987 125.456044,28.9496875 C125.733962,28.3794763 126.134063,27.8787522 126.656357,27.4475 C127.178651,27.0162478 127.811145,26.6736471 128.553857,26.4196875 C129.296569,26.1657279 130.127915,26.03875 131.047919,26.03875 C132.015841,26.03875 132.88552,26.1657279 133.656982,26.4196875 C134.428444,26.6736471 135.0825,27.0234353 135.619169,27.4690625 C136.155839,27.9146897 136.565522,28.439372 136.848232,29.043125 C137.130942,29.646878 137.272294,30.2985382 137.272294,30.998125 L133.779169,30.998125 C133.779169,30.7010402 133.72167,30.4111472 133.606669,30.1284375 C133.491669,29.8457278 133.319171,29.5941678 133.089169,29.37375 C132.859168,29.1533322 132.574067,28.9784381 132.233857,28.8490625 C131.893647,28.7196869 131.498338,28.655 131.047919,28.655 C130.607084,28.655 130.223754,28.7101036 129.897919,28.8203125 C129.572084,28.9305214 129.301358,29.0742699 129.085732,29.2515625 C128.870106,29.4288551 128.709587,29.6348947 128.604169,29.8696875 C128.498752,30.1044803 128.446044,30.3512487 128.446044,30.61 C128.446044,30.8687513 128.493961,31.098749 128.589794,31.3 C128.685628,31.501251 128.855731,31.6833325 129.100107,31.84625 C129.344483,32.0091675 129.672709,32.1601035 130.084794,32.2990625 C130.49688,32.4380215 131.014375,32.5745827 131.637294,32.70875 C132.538132,32.9004176 133.34552,33.1256237 134.059482,33.384375 C134.773444,33.6431263 135.377188,33.9593731 135.870732,34.333125 C136.364276,34.7068769 136.740418,35.1477058 136.999169,35.655625 C137.257921,36.1635442 137.387294,36.7672882 137.387294,37.466875 C137.387294,38.1568785 137.238754,38.7893721 136.941669,39.364375 C136.644585,39.9393779 136.220526,40.4353104 135.669482,40.8521875 C135.118437,41.2690646 134.454798,41.5924989 133.678544,41.8225 C132.902291,42.0525012 132.039799,42.1675 131.091044,42.1675 C130.027289,42.1675 129.085736,42.016564 128.266357,41.7146875 C127.446978,41.412811 126.759381,41.0175024 126.203544,40.52875 C125.647708,40.0399976 125.228442,39.4865656 124.945732,38.8684375 C124.663022,38.2503094 124.521669,37.6202115 124.521669,36.978125 L127.914169,36.978125 C127.94292,37.4572941 128.053127,37.85979 128.244794,38.185625 C128.436462,38.51146 128.680835,38.774999 128.977919,38.97625 C129.275004,39.177501 129.610418,39.3236454 129.984169,39.4146875 C130.357921,39.5057296 130.741251,39.55125 131.134169,39.55125 C132.054174,39.55125 132.75375,39.3763559 133.232919,39.0265625 C133.712088,38.6767691 133.951669,38.2191695 133.951669,37.65375 Z M144.467384,41.88 L140.974259,41.88 L140.974259,26.32625 L144.467384,26.32625 L144.467384,41.88 Z M140.758634,22.286875 C140.758634,21.7502057 140.928737,21.3045851 141.268947,20.95 C141.609157,20.5954149 142.095506,20.418125 142.728009,20.418125 C143.360513,20.418125 143.849258,20.5954149 144.194259,20.95 C144.539261,21.3045851 144.711759,21.7502057 144.711759,22.286875 C144.711759,22.813961 144.539261,23.2523941 144.194259,23.6021875 C143.849258,23.9519809 143.360513,24.126875 142.728009,24.126875 C142.095506,24.126875 141.609157,23.9519809 141.268947,23.6021875 C140.928737,23.2523941 140.758634,22.813961 140.758634,22.286875 Z M152.970599,22.545625 L152.970599,26.32625 L155.716224,26.32625 L155.716224,28.91375 L152.970599,28.91375 L152.970599,37.59625 C152.970599,37.9508351 153.008932,38.2383322 153.085599,38.45875 C153.162266,38.6791678 153.272474,38.8492702 153.416224,38.9690625 C153.559975,39.0888548 153.730078,39.1703123 153.926537,39.2134375 C154.122996,39.2565627 154.341015,39.278125 154.580599,39.278125 C154.820184,39.278125 155.052577,39.2613543 155.277787,39.2278125 C155.502996,39.1942707 155.67789,39.1631251 155.802474,39.134375 L155.802474,41.836875 C155.524556,41.9135421 155.201122,41.9878121 154.832162,42.0596875 C154.463202,42.1315629 154.019977,42.1675 153.502474,42.1675 C152.927472,42.1675 152.393206,42.0908341 151.899662,41.9375 C151.406118,41.7841659 150.979664,41.5350017 150.620287,41.19 C150.26091,40.8449983 149.9806,40.3945861 149.779349,39.83875 C149.578098,39.2829139 149.477474,38.602504 149.477474,37.7975 L149.477474,28.91375 L146.918724,28.91375 L146.918724,26.32625 L149.477474,26.32625 L149.477474,22.545625 L152.970599,22.545625 Z M165.556314,42.1675 C164.406309,42.1675 163.371319,41.9758353 162.451314,41.5925 C161.53131,41.2091648 160.750276,40.6820867 160.108189,40.01125 C159.466103,39.3404133 158.972566,38.5450046 158.627564,37.625 C158.282563,36.7049954 158.110064,35.7131303 158.110064,34.649375 L158.110064,34.074375 C158.110064,32.8477022 158.292146,31.7384425 158.656314,30.7465625 C159.020483,29.7546825 159.518811,28.9113576 160.151314,28.2165625 C160.783818,27.5217674 161.528914,26.9851061 162.386627,26.6065625 C163.244339,26.2280189 164.166726,26.03875 165.153814,26.03875 C166.284653,26.03875 167.266935,26.2280189 168.100689,26.6065625 C168.934444,26.9851061 169.624437,27.5145799 170.170689,28.195 C170.716942,28.8754201 171.12423,29.6852036 171.392564,30.624375 C171.660899,31.5635464 171.795064,32.5937444 171.795064,33.715 L171.795064,35.21 L161.631939,35.21 C161.679856,35.813753 161.806834,36.3695808 162.012877,36.8775 C162.21892,37.3854192 162.499229,37.8238523 162.853814,38.1928125 C163.208399,38.5617727 163.627666,38.8516656 164.111627,39.0625 C164.595588,39.2733344 165.144228,39.37875 165.757564,39.37875 C166.620069,39.37875 167.369957,39.2062517 168.007252,38.86125 C168.644547,38.5162483 169.197979,38.041878 169.667564,37.438125 L171.550689,39.235 C171.301521,39.6087519 170.992462,39.9705191 170.623502,40.3203125 C170.254542,40.6701059 169.823296,40.9815611 169.329752,41.2546875 C168.836208,41.5278139 168.277984,41.7482283 167.655064,41.9159375 C167.032145,42.0836467 166.332568,42.1675 165.556314,42.1675 Z M165.139439,28.841875 C164.181101,28.841875 163.407255,29.1772883 162.817877,29.848125 C162.228499,30.5189617 161.852357,31.4533273 161.689439,32.65125 L168.345064,32.65125 L168.345064,32.3925 C168.316314,31.9324977 168.242044,31.489273 168.122252,31.0628125 C168.00246,30.636352 167.817982,30.2578142 167.568814,29.9271875 C167.319646,29.5965608 166.996212,29.3330218 166.598502,29.1365625 C166.200792,28.9401032 165.714442,28.841875 165.139439,28.841875 Z" id="Sign-up-on-our-Websi-Copy"></path>
                    </g>
                </g>
            </g>
        </g>
    </g>
</svg>