<?xml version="1.0" encoding="UTF-8" standalone="no"?>
<!-- Generator: Adobe Illustrator 16.0.4, SVG Export Plug-In . SVG Version: 6.00 Build 0)  -->

<svg
   xmlns:dc="http://purl.org/dc/elements/1.1/"
   xmlns:cc="http://creativecommons.org/ns#"
   xmlns:rdf="http://www.w3.org/1999/02/22-rdf-syntax-ns#"
   xmlns:svg="http://www.w3.org/2000/svg"
   xmlns="http://www.w3.org/2000/svg"
   xmlns:sodipodi="http://sodipodi.sourceforge.net/DTD/sodipodi-0.dtd"
   xmlns:inkscape="http://www.inkscape.org/namespaces/inkscape"
   version="1.1"
   id="Layer_1"
   x="0px"
   y="0px"
   width="783"
   height="68.176003"
   viewBox="0 0 783 68.176004"
   enable-background="new 0 0 783 112.588"
   xml:space="preserve"
   inkscape:version="0.91 r13725"
   sodipodi:docname="wsj.svg"><metadata
     id="metadata13"><rdf:RDF><cc:Work
         rdf:about=""><dc:format>image/svg+xml</dc:format><dc:type
           rdf:resource="http://purl.org/dc/dcmitype/StillImage" /><dc:title></dc:title></cc:Work></rdf:RDF></metadata><defs
     id="defs11" /><sodipodi:namedview
     pagecolor="#ffffff"
     bordercolor="#666666"
     borderopacity="1"
     objecttolerance="10"
     gridtolerance="10"
     guidetolerance="10"
     inkscape:pageopacity="0"
     inkscape:pageshadow="2"
     inkscape:window-width="1050"
     inkscape:window-height="647"
     id="namedview9"
     showgrid="false"
     fit-margin-top="0"
     fit-margin-left="0"
     fit-margin-right="0"
     fit-margin-bottom="0"
     inkscape:zoom="0.4"
     inkscape:cx="384"
     inkscape:cy="11.882001"
     inkscape:window-x="0"
     inkscape:window-y="0"
     inkscape:window-maximized="0"
     inkscape:current-layer="Layer_1" /><g
     id="g3"><path
       d="m 21.652,61.544 c 0,3.023 0.878,3.607 2.829,4.097 l 3.023,0.683 0,1.365 -20.092,0 0,-1.365 2.536,-0.584 c 1.951,-0.487 2.829,-1.465 2.829,-4.193 l 0,-59.109 -2.146,0 c -6.047,0 -8.485,9.851 -9.168,20.287 l -1.463,0 0,-22.237 34.429,0 0,22.238 -1.463,0 C 32.283,12.29 29.845,2.439 23.798,2.439 l -2.146,0 0,59.105 z m 14.923,4.779 2.146,-0.586 c 1.951,-0.487 2.829,-1.463 2.829,-4.193 l 0,-55.009 c 0,-2.731 -0.878,-3.609 -2.829,-4.097 l -2.146,-0.585 0,-1.366 19.019,0 0,1.366 -2.243,0.585 c -1.853,0.488 -2.926,1.268 -2.926,3.999 l 0,25.651 14.728,0 0,-25.651 c 0,-2.731 -1.073,-3.511 -2.926,-3.999 l -2.243,-0.585 0,-1.366 19.019,0 0,1.366 -2.146,0.585 c -1.95,0.488 -2.828,1.366 -2.828,4.097 l 0,54.912 c 0,2.731 0.878,3.806 2.828,4.293 l 2.146,0.584 0,1.365 -19.02,0 0,-1.365 2.243,-0.486 c 1.853,-0.487 2.926,-1.562 2.926,-4.291 l 0,-27.215 -14.727,0 0,27.212 c 0,2.73 1.073,3.804 2.926,4.291 l 2.243,0.488 0,1.363 -19.019,0 0,-1.363 z m 58.423,-0.584 6.73,0 c 8.778,0 10.436,-9.949 11.606,-20.287 l 1.463,0 0,22.235 -33.649,0 0,-1.364 2.146,-0.584 c 1.951,-0.488 2.829,-1.465 2.829,-4.194 l 0,-54.913 c 0,-2.73 -0.878,-3.706 -2.829,-4.194 l -2.146,-0.585 0,-1.366 32.674,0 0,22.238 -1.463,0 C 111.286,12.289 109.238,2.438 101.728,2.438 l -6.73,0 0,29.358 3.121,-0.098 c 4.194,-0.293 5.754,-3.901 6.827,-12.388 l 1.463,0 0,27.114 -1.463,0 C 104.069,35.793 102.41,34.135 98.021,33.842 l -3.023,-0.098 0,31.995 0,0 z M 135.651,9.461 c -1.268,-5.754 -2.048,-6.632 -3.901,-7.12 l -1.853,-0.488 0,-1.366 18.239,0 0,1.366 -1.463,0.292 c -3.121,0.683 -2.829,3.804 -1.951,7.998 l 7.705,38.233 5.657,-30.431 -2.048,-10.437 c -0.78,-3.706 -1.073,-4.876 -3.023,-5.364 l -1.268,-0.292 0,-1.366 17.849,0 0,1.366 -2.146,0.39 c -3.219,0.585 -2.731,4.096 -1.951,7.9 l 7.413,38.235 7.315,-36.186 c 1.365,-7.51 0.683,-9.363 -2.243,-9.948 l -2.048,-0.39 0,-1.366 13.362,0 0,1.366 -1.853,0.488 c -2.341,0.585 -2.926,2.438 -4.292,8.973 l -11.899,56.765 -2.536,0 -9.168,-44.28 -8.291,44.28 -3.219,0 -12.387,-58.618 z m 95.389,56.278 3.901,0 c 8.29,0 10.729,-9.854 11.704,-20.287 l 1.463,0 0,22.235 -49.84,0 0,-1.364 2.048,-0.392 c 4.194,-0.778 4.194,-1.948 3.121,-7.803 l -1.853,-8.778 -11.997,0 -1.268,6.635 c -1.463,7.51 -0.683,9.361 2.244,9.946 l 2.048,0.392 0,1.364 -13.557,0 0,-1.364 1.658,-0.487 c 2.633,-0.78 3.316,-2.341 4.682,-8.974 l 11.899,-56.766 2.926,0 12.484,58.618 c 1.268,6.048 1.853,7.313 5.364,7.313 3.023,0 4.096,-1.561 4.096,-4.484 l 0,-55.009 c 0,-2.731 -0.877,-3.609 -2.828,-4.097 l -2.146,-0.585 0,-1.365 19.312,0 0,1.463 -2.634,0.585 c -1.95,0.39 -2.828,1.268 -2.828,3.999 l 0.001,59.205 0,0 z m -41.062,-18.631 11.119,0 -5.657,-27.698 -5.462,27.698 z m 74.126,18.631 3.901,0 c 8.291,0 10.729,-9.854 11.704,-20.287 l 1.463,0 0,22.235 -30.918,0 0,-1.364 2.146,-0.584 c 1.951,-0.488 2.829,-1.465 2.829,-4.194 l 0,-55.01 c 0,-2.731 -0.878,-3.609 -2.829,-4.097 l -2.146,-0.585 0,-1.366 19.312,0 0,1.463 -2.633,0.585 c -1.951,0.39 -2.829,1.268 -2.829,3.999 l 0,59.205 0,0 z m 48.872,2.338 c -5.656,0 -7.606,-3.899 -9.459,-3.899 -1.073,0 -2.341,0.292 -3.316,3.511 l -1.17,0 0,-22.239 1.463,0 c 1.171,12.582 5.853,20.48 12.387,20.48 4.389,0 7.413,-3.999 7.413,-11.216 0,-15.216 -21.75,-21.75 -21.75,-38.624 0,-9.07 4.682,-15.996 12.972,-15.996 5.364,0 6.535,3.511 8.778,3.511 1.268,0 2.146,-0.975 2.633,-3.121 l 1.17,0 0,22.238 -1.463,0 C 321.464,11.506 318.441,2.24 311.417,2.24 c -4.876,0 -5.852,4.876 -5.852,8.193 0,14.533 21.75,19.507 21.75,39.793 -0.003,10.343 -5.659,17.851 -14.339,17.851 z m 35.892,-6.533 c 0,2.73 0.878,3.706 2.829,4.193 l 2.536,0.586 0,1.363 -19.604,0 0,-1.363 2.536,-0.586 c 1.951,-0.487 2.829,-1.463 2.829,-4.193 l 0,-59.106 -2.146,0 c -6.047,0 -8.485,9.851 -9.168,20.287 l -1.463,0 0,-22.237 34.431,0 0,22.238 -1.464,0 C 359.501,12.29 357.064,2.439 351.016,2.439 l -2.146,0 0,59.105 -0.002,0 z m 14.923,4.779 2.146,-0.586 c 1.951,-0.487 2.829,-1.463 2.829,-4.193 l 0,-55.009 c 0,-2.731 -0.878,-3.609 -2.829,-4.097 l -2.146,-0.585 0,-1.366 18.629,0 c 8.291,0 15.996,5.267 15.996,16.288 0,8.486 -3.999,14.436 -12.095,16.582 8.876,1.657 8.876,5.853 9.754,17.067 l 0.585,8.583 c 0.293,4.779 0.488,5.854 1.854,5.854 1.463,0 2.049,-3.315 2.049,-6.535 l 0,-1.658 1.657,0 0,2.242 c 0,5.365 -1.171,9.168 -6.729,9.168 -5.463,0 -7.998,-3.121 -8.39,-14.336 l -0.486,-12.484 c -0.195,-5.95 -1.658,-6.828 -4.487,-6.828 l -4.584,0 0,27.115 c 0,2.73 0.878,3.804 2.829,4.291 l 2.146,0.488 0,1.363 -18.727,0 -10e-4,-1.364 0,0 z m 13.752,-33.844 3.219,0 c 5.462,0 8.193,-1.463 8.193,-14.435 0,-12.972 -3.609,-15.605 -7.51,-15.605 l -3.901,0 -10e-4,30.04 0,0 z m 39.111,33.26 6.729,0 c 8.777,0 10.438,-9.949 11.606,-20.287 l 1.463,0 0,22.235 -33.649,0 0,-1.364 2.146,-0.584 c 1.95,-0.488 2.828,-1.465 2.828,-4.194 l 0,-54.913 c 0,-2.73 -0.878,-3.706 -2.828,-4.194 l -2.146,-0.585 0,-1.366 32.675,0 0,22.238 -1.464,0 C 432.944,12.289 430.894,2.438 423.383,2.438 l -6.729,0 0,29.358 3.121,-0.098 c 4.192,-0.293 5.755,-3.901 6.827,-12.388 l 1.464,0 0,27.114 -1.464,0 c -0.879,-10.631 -2.535,-12.289 -6.927,-12.582 l -3.021,-0.098 0,31.995 z m 36.186,0 6.73,0 c 8.775,0 10.436,-9.949 11.604,-20.287 l 1.463,0 0,22.235 -33.647,0 0,-1.364 2.146,-0.584 c 1.95,-0.488 2.829,-1.465 2.829,-4.194 l 0,-54.913 c 0,-2.73 -0.879,-3.706 -2.829,-4.194 l -2.146,-0.585 0,-1.366 32.674,0 0,22.238 -1.463,0 C 469.128,12.289 467.08,2.438 459.57,2.438 l -6.73,0 0,29.358 3.121,-0.098 c 4.193,-0.293 5.754,-3.901 6.827,-12.388 l 1.464,0 0,27.114 -1.464,0 C 461.91,35.793 460.252,34.135 455.863,33.842 l -3.023,-0.098 0,31.995 0,0 z m 43.598,-4.195 c 0,3.023 0.88,3.607 2.828,4.097 l 3.023,0.683 0,1.365 -20.092,0 0,-1.365 2.536,-0.584 c 1.948,-0.487 2.829,-1.465 2.829,-4.193 l 0,-59.109 -2.146,0 c -6.047,0 -8.485,9.851 -9.168,20.287 l -1.463,0 0,-22.237 34.43,0 0,22.238 -1.463,0 C 507.068,12.29 504.631,2.439 498.584,2.439 l -2.146,0 0,59.105 z m 53.553,-9.363 c 0,10.438 -5.27,15.896 -13.362,15.896 -7.313,0 -11.604,-5.948 -11.509,-12.483 0.098,-5.071 3.804,-7.606 6.827,-7.217 2.146,0.292 4.292,1.853 3.999,5.267 -0.293,4.877 -5.562,4.682 -5.755,7.705 -0.194,1.854 2.242,4.584 5.362,4.584 5.464,0 5.464,-6.925 5.464,-12.191 l 0,-47.305 c 0,-2.731 -0.88,-3.511 -3.023,-3.999 l -2.438,-0.585 0,-1.366 19.216,0 0,1.366 -2.146,0.585 c -1.95,0.488 -2.633,1.366 -2.633,4.097 l -0.002,45.646 0,0 z m 22.726,15.995 c -11.411,0 -16.972,-15.41 -16.972,-34.138 C 555.745,15.41 561.11,0 572.717,0 c 11.509,0 17.068,15.41 17.068,34.038 0,18.728 -5.266,34.138 -17.068,34.138 z m 0,-65.933 c -4.877,0 -7.313,3.901 -7.313,31.407 0,28.381 2.241,32.381 7.313,32.381 5.071,0 7.412,-4 7.412,-32.578 0,-27.308 -2.341,-31.21 -7.412,-31.21 z m 55.692,64.08 2.145,-0.586 c 1.951,-0.487 2.829,-1.463 2.829,-4.193 l 0,-55.009 c 0,-3.219 -1.463,-4.389 -4.877,-4.389 -4.291,0 -5.364,1.951 -5.364,7.51 l 0,42.33 c 0,10.534 -3.706,16.19 -12.775,16.19 -9.363,0 -14.824,-5.656 -14.824,-15.897 l 0,-45.744 c 0,-2.731 -0.684,-3.609 -2.634,-4.097 l -2.146,-0.585 0,-1.366 19.409,0 0,1.366 -2.634,0.585 c -2.146,0.488 -3.023,1.268 -3.023,3.999 l 0,46.524 c 0,9.461 2.73,11.899 7.705,11.899 5.854,0 8.291,-3.316 8.291,-12.875 l 0,-38.818 c 0,-8.193 -0.098,-10.144 -3.607,-10.924 l -1.854,-0.39 0,-1.366 31.992,0 c 8.29,0 15.995,5.267 15.995,16.288 0,8.486 -3.999,14.436 -12.095,16.582 8.876,1.657 8.876,5.853 9.754,17.067 l 0.585,8.583 c 0.293,4.779 0.486,5.854 1.854,5.854 1.463,0 2.049,-3.315 2.049,-6.535 l 0,-1.658 1.657,0 0,2.242 c 0,5.365 -1.17,9.168 -6.729,9.168 -5.462,0 -7.998,-3.121 -8.39,-14.336 l -0.486,-12.484 c -0.195,-5.95 -1.658,-6.828 -4.486,-6.828 l -4.584,0 0,27.115 c 0,2.73 0.877,3.804 2.828,4.291 l 2.146,0.488 0,1.363 -18.728,0 0,-1.363 -0.003,0 z m 13.752,-33.844 3.219,0 c 5.461,0 8.192,-1.463 8.192,-14.435 0,-12.972 -3.608,-15.605 -7.51,-15.605 l -3.901,0 0,30.04 z m 26.432,-30.236 -1.364,-0.39 0,-1.366 12.775,0 17.459,44.28 0,-31.893 c 0,-7.217 0.194,-9.753 -4.975,-10.631 l -1.657,-0.39 0,-1.366 14.435,0 0,1.366 -1.364,0.39 c -4.193,0.975 -3.9,4.389 -3.9,11.216 l 0,54.229 -3.121,0 -21.849,-53.74 0,41.354 c 0,7.9 0,10.145 6.242,11.021 l 0,1.363 -14.047,0 0,-1.363 1.758,-0.293 c 3.606,-0.685 3.511,-4.194 3.511,-11.313 l 0,-46.622 c -1.66,-3.413 -2.343,-5.267 -3.903,-5.852 z m 85.83,63.496 3.901,0 c 8.29,0 10.729,-9.854 11.704,-20.287 l 1.463,0 0,22.235 -49.742,0 0,-1.364 2.048,-0.392 c 4.194,-0.778 4.292,-1.948 3.121,-7.803 l -1.854,-8.778 -11.995,0 -1.271,6.635 c -1.463,7.51 -0.682,9.361 2.244,9.946 l 2.048,0.392 0,1.364 -13.558,0 0,-1.364 1.657,-0.487 c 2.635,-0.78 3.315,-2.341 4.683,-8.974 l 11.898,-56.765 2.928,0 12.482,58.618 c 1.271,6.048 1.756,7.313 5.269,7.313 3.021,0 4.097,-1.561 4.097,-4.484 l 0,-55.01 c 0,-2.731 -0.878,-3.609 -2.828,-4.097 l -2.146,-0.585 0,-1.365 19.312,0 0,1.463 -2.634,0.585 c -1.95,0.39 -2.828,1.268 -2.828,3.999 l 10e-4,59.205 0,0 z m -40.965,-18.631 11.119,0 -5.656,-27.699 -5.463,27.699 z M 783,63.396 c 0,2.634 -1.95,4.585 -4.291,4.585 -2.341,0 -4.292,-1.951 -4.292,-4.585 0,-2.633 1.951,-4.584 4.292,-4.584 2.341,0 4.291,1.952 4.291,4.584 z"
       id="path5"
       inkscape:connector-curvature="0" /></g><line
     x1="-4.4408921e-15"
     y1="112.588"
     x2="783"
     y2="112.588"
     id="line7"
     style="fill:none" /></svg>